<svg id="Calque_1" data-name="Calque 1" xmlns="http://www.w3.org/2000/svg" viewBox="0 0 1943.92 3208.62"><defs><style>.cls-1{fill:#fff;}.cls-2{fill:#49c1c4;}</style></defs><title>ANIM_Rayons_Blue</title><polygon class="cls-1" points="1918.52 2817.71 956.2 100.07 853.41 684.14 1883.1 2976.35 1918.52 2817.71"/><polygon class="cls-2" points="1936.19 2864.49 1013.83 69.62 902.64 644.92 1898.49 3020.14 1936.19 2864.49"/><polygon class="cls-1" points="1928.67 2979.56 1252.99 5.6 1095.7 677.9 1878.61 3162.96 1928.67 2979.56"/><polygon class="cls-2" points="1943.92 3029.59 1313.49 0 1146.17 658.47 1891.14 3208.62 1943.92 3029.59"/><polygon class="cls-2" points="1808.86 2674.65 295.3 1090.44 312.99 1789.91 1806.21 2873.34 1808.86 2674.65"/><polygon class="cls-2" points="1804.65 2799.95 462.62 857.67 447.64 1405.15 1790.3 2988.36 1804.65 2799.95"/><polygon class="cls-1" points="1798.89 2716.57 586.68 639.56 546.96 1265.61 1780.83 2890.96 1798.89 2716.57"/><polygon id="f" class="cls-2" points="1821.94 2717.93 626.83 585.64 582.03 1209.75 1802.46 2891.47 1821.94 2717.93"/><polygon class="cls-1" points="1876.71 2766.22 798.35 307.13 722.26 913.87 1848.58 2932.91 1876.71 2766.22"/><polygon class="cls-2" points="1891.45 2794.49 837.17 277.09 755.23 879.5 1861.72 2959.6 1891.45 2794.49"/><polygon class="cls-1" points="1764.48 2532.1 186.65 1354.58 236.69 2045.14 1771.07 2730.27 1764.48 2532.1"/><polygon class="cls-2" points="1791.15 2541.13 126.96 1436.28 195.22 2180.11 1802.68 2755.43 1791.15 2541.13"/><polygon class="cls-1" points="1827.65 2764.95 36.67 1787.66 113.8 2527.74 1841.14 2978.81 1827.65 2764.95"/><polygon class="cls-2" points="1821.84 2787.16 0 1854.64 85 2612.41 1837.5 3006.49 1821.84 2787.16"/></svg>