<svg id="Calque_1" data-name="Calque 1" xmlns="http://www.w3.org/2000/svg" viewBox="0 0 811.51 765.91"><defs><style>.cls-1{fill:#202020;}.cls-2{fill:#fecb33;}.cls-3{fill:#f29b36;}.cls-4{fill:#f9bf33;}.cls-5{fill:#fed96a;}.cls-6{fill:#fcdd82;}.cls-7{fill:#f5a935;}.cls-8{fill:#fed457;}.cls-9{fill:#f7bb3a;}.cls-10{fill:#fdc739;}.cls-11{fill:#f1a73b;}.cls-12{fill:#f7b834;}.cls-13{fill:#fadd89;}.cls-14{fill:#f1ad3a;}.cls-15{fill:#fcdb78;}.cls-16{fill:#fbda7a;}.cls-17{fill:#fbcd44;}.cls-18{fill:#fdd358;}.cls-19{fill:#fdd769;}.cls-20{fill:#f0a135;}.cls-21{fill:#eaad38;}.cls-22{fill:#ea9536;}.cls-23{fill:#f1ad34;}.cls-24{fill:#efb838;}.cls-25{fill:#ec9d3b;}.cls-26{fill:#f09637;}.cls-27{fill:#f3a436;}.cls-28{fill:#f3a535;}.cls-29{fill:#f7ce78;}.cls-30{fill:#f19a37;}.cls-31{fill:#f6c979;}.cls-32{fill:#f6cb58;}.cls-33{fill:#f3c15d;}.cls-34{fill:#fdd664;}.cls-35{fill:#f7bf50;}.cls-36{fill:#f9d37e;}.cls-37{fill:#fedb74;}.cls-38{fill:#f6b040;}.cls-39{fill:#faba55;}.cls-40{fill:#efb95c;}.cls-41{fill:#fcd071;}.cls-42{fill:#f7b145;}.cls-43{fill:#ea9b35;}.cls-44{fill:#ef9d36;}.cls-45{fill:#f9c832;}.cls-46{fill:#fdcc36;}.cls-47{fill:#f9c836;}.cls-48{fill:#e9bb31;}.cls-49{fill:#ecbe32;}.cls-50{fill:#efbf31;}.cls-51{fill:#f6c532;}.cls-52{fill:#f3c335;}.cls-53{fill:#f0c036;}.cls-54{fill:#eabd34;}.cls-55{fill:#f2c232;}.cls-56{fill:#e9bb30;}.cls-57{fill:#efc032;}.cls-58{fill:#edbf31;}.cls-59{fill:#f7d368;}.cls-60{fill:#f6cb49;}.cls-61{fill:#facf51;}.cls-62{fill:#fcd45a;}.cls-63{fill:#fdd96b;}.cls-64{fill:#f9cc44;}.cls-65{fill:#face4b;}.cls-66{fill:#f6cc52;}.cls-67{fill:#f5ce5a;}.cls-68{fill:#f3c741;}</style></defs><title>ANIM_Plus1_Jaune</title><path class="cls-1" d="M684.72,956.32c-26.09,3.78-40.36,28.47-68.4,23.14-17.27-3.28-30-8.84-37-22.85-14.46-28.93-27.42-58.67-39.72-88.6-12.71-30.93-4.47-57.66,19.75-79.95q48.79-44.89,97.63-89.73c18.93-17.36,44.79-12.47,66.92-20.08,27.65-9.51,58-7.63,87.09-13.22,24.73-4.76,48.12,16.43,52.7,41.19C874.79,766,885,826,894.69,886.12c13.57,84.05,27.59,168.17,43.51,251.73,11.88,62.35,22.37,125.2,36.6,187.3,11.22,49-8.51,70-52.6,82.61-26.27,7.52-53.63,9-80.08,18.64-36.22,13.19-67.56-8.82-75.09-46.21-12.81-63.54-24-127.51-37.22-190.81-8-38-14.32-77-23-115S686.64,998.23,684.72,956.32Z" transform="translate(-166.38 -664.35)"/><path class="cls-1" d="M499.26,1018.59c33.68-13.95,66.78-9.38,98.07-18.78,19-5.72,47.51,25.81,52.22,52.5,5,28.07,7.95,56.24,14.88,84.23,11,44.45-16.09,75.51-66.31,83-18.38,2.74-51.67,3.45-52.51,9-3.56,23.47,1.55,48.57,5.64,72.71,1.25,7.39,5.32,13.87,3.71,22.4-4.84,25.58-17.77,41.85-44.11,49-37.14,10.15-75.27,13.91-113,20.06-25.86,4.22-43.31-13-51.53-35.48-7.67-21-16.1-42.62-14.33-66,2.19-29-17.65-28.76-34.32-21.28-23,10.33-45.6,8.41-69.19,8.48-22.35.06-33.07-12.44-38-30.27-11.88-42.73-20.55-86.37-24-130.57-1.9-24.64,14.19-40.64,37-47.07,15.09-4.25,31.38-4,47-6.67,35.76-6,43.68-19,31.12-53.15-5.26-14.29-8.86-28.68-6.51-43.39,5.34-33.45,28.2-54.16,62.73-58.36,24.3-3,48.23-7.29,72.28-12.23,39.19-8.05,73.88,2.28,76.78,48.19C488.54,969.92,505.14,990.92,499.26,1018.59Z" transform="translate(-166.38 -664.35)"/><path class="cls-2" d="M593.29,856.27c-5-7.59-22.65-13-4.17-24.59,27.88,1.61,55-1.73,81.13-12.19,26.24-9.1,54.17-6.09,80.93-11.58,52.24,7.45,57.36,12.65,61,64.08.84,11.75,3.84,23.34,2.71,35.23a21.27,21.27,0,0,1-4,9.3c-21.77,8.88-43.72,15.85-67.08,5.52C730.09,913.88,732,898,726.54,885.78c-6.13-13.7-12.69-18.57-26.94-10.28-14.44,8.4-29.67,15.55-43.77,24.53-19.14,12.18-32,8.28-43.27-11.6C606.44,877.66,605.05,863.69,593.29,856.27Z" transform="translate(-166.38 -664.35)"/><path class="cls-3" d="M910.16,1266.68c1.72,11.58,11.4,21.44,7.45,34.25,5.66,11.87-1,25.26,4.56,37.14,12.46,23.48-12.48,21.53-20,23.61-28.27,7.8-57.34,13.77-87,14.36-4.87-10.08.43-21.54-4.3-31.63-8.12-35.51-20.2-70.32-18.73-107.5a10.74,10.74,0,0,1,8-3.38,17.22,17.22,0,0,1,7.94,3.37c11.51,13.48,13.23,30.26,14.68,46.78,1.21,13.77,2.32,27.48,8.31,40,4.1,8.59,1.16,27.15,16.75,21.86,17.67-6,47.13,7.93,50.82-25.81-1-10.16-1.59-20.34-4.65-30.18-1.38-7.95-1.52-15.71,3.26-22.76C901.46,1263.23,905.79,1263.42,910.16,1266.68Z" transform="translate(-166.38 -664.35)"/><path class="cls-4" d="M593.29,856.27c19,4,22.4,22.61,30.22,35.51,7.53,12.41,12.27,11.75,22.63,5.51,15.95-9.59,33.41-16.76,49-26.91,21.09-13.79,33.47-13.15,38.81,15,1.86,9.78,1.08,21.94,10.32,29.74,11.34,13.76,18.16,28.39,9,46.15-8.61,8-14.84,4.92-19.72-4.3-7.77-21.17-4-44.59-13.63-65.65-5.42-11.88-9.33-13-21.68-7.43-22.85,10.38-38.95,29.72-61,41.17-15.24,7.92-19.84,4.7-24.07-10.13C607.45,895.1,600,875.8,593.29,856.27Z" transform="translate(-166.38 -664.35)"/><path class="cls-5" d="M612.81,807.75c2-6,6.39-9.8,11.92-12.47,28.22,1.4,55-2.83,78.67-19.74a46.87,46.87,0,0,1,7.92-2.9c40.26-4.73,73.75-21.66,98.45-54.5l6,1.6c9.38,35.38-15.3,51-39,67.22a46,46,0,0,1-8.13,3.75C756,795,742.83,797.56,730,801.41c-25.35.34-47.14,13.93-71.21,19.15C642,821.48,624.73,824.2,612.81,807.75Z" transform="translate(-166.38 -664.35)"/><path class="cls-6" d="M654.34,771c4.93-15,19-20.16,30.47-28.05,32.91,8.5,61.2-4.24,89-19.38,6.47-9.35,15.8-4.12,24-4.7-5.81,29.23-28.35,39.8-53.36,46.82-12.25,3.44-25.23,4.39-35.93,12.29h0c-9.7,4.4-19.94,8.35-30.13,10C666.72,789.93,654.67,787.46,654.34,771Z" transform="translate(-166.38 -664.35)"/><path class="cls-7" d="M803.73,1237l-5.88-.07c-10.16-12-16.3-25.62-16.79-41.52l-1.71-16.18c-5.9-9.74,2.53-22.27-6.1-31.48-15.06-23.9-7.64-52.47-16.15-77.73,8-6.25,14.09-1.17,20.28,3.45a30.55,30.55,0,0,1,7.57,11.57c3.4,12,3.15,24.76,7.24,36.68,2.52,28.68,15.59,55.3,16.17,84.4C808.56,1216.79,812.9,1227.81,803.73,1237Z" transform="translate(-166.38 -664.35)"/><path class="cls-8" d="M660.81,813.8c23.06-9,45.18-21.78,71.47-17.9,6.69-5,14.28-2.26,21.53-2.52,7.49,5.49,2.9,10.1-1.07,14.75a24.54,24.54,0,0,1-8.26,3.39c-26.26,2.68-52.87,3.53-77.67,14.22-25.12,12.09-50.37,22.44-77.67,5.92,2.9-7.88,11.07-8.51,16.94-12.32C623.4,808.51,643.39,823.83,660.81,813.8Z" transform="translate(-166.38 -664.35)"/><path class="cls-9" d="M862.78,1004.42l6.48,18.24c1.26,13.63,12.72,29.68-9,37.89-12.15-6.18-12.79-18.46-15.7-29.54-1.31-16.92-5.46-33.29-10-49.59a72.76,72.76,0,0,1-2.34-13.65c.11-15.31-2.22-30.51-2.31-45.83,1.7-7,5.9-10.44,13.3-9.26,8.66,4.48,3,14,7,20.07,7.15,8.27,9.88,17.76,7.88,28.56C864,975.19,856.55,990.56,862.78,1004.42Z" transform="translate(-166.38 -664.35)"/><path class="cls-10" d="M844.57,914.75c-4.59.48-8.73,1.73-10.95,6.32-6.38,1.37-8.93-2.91-11.24-7.58-1.08-34.19-13.94-67-12.19-101.56,4-10.36,8.36-20.57,17.45-27.77l18.43,117.74C848.5,906.54,849.36,911,844.57,914.75Z" transform="translate(-166.38 -664.35)"/><path class="cls-11" d="M910.16,1266.68l-11,.07q-5.11,2.81-8.87-1.65c-15.14-36.29-16.88-75-20.56-113.42,2.82-9.65,7.42-16.18,18.81-10.56,7.49,16.78,1,36.52,11.19,52.73,5.33,9.78-.42,21.13,4.4,31Z" transform="translate(-166.38 -664.35)"/><path class="cls-12" d="M774,1076.06,757.09,1070c-1.86-11.62-11-21.7-7.35-34.49-5.41-9.71.29-21-4.33-30.81,1.83-17.36-15-30.05-11.95-47.73l16.72,5.83c6.38,1.91,9.53,6.74,11.52,12.65,2.53,11.42,5,22.86,8.87,34,4.8,13,5.13,26.64,6.29,40.19C778.5,1058.71,781.78,1068,774,1076.06Z" transform="translate(-166.38 -664.35)"/><path class="cls-13" d="M773.78,723.61c-23,29.39-68.54,39.31-89,19.38,20.08-24.64,50.69-7.17,74.26-18.39C763.2,722.65,768.84,723.86,773.78,723.61Z" transform="translate(-166.38 -664.35)"/><path class="cls-14" d="M888.49,1141.11c-7.85.47-12.86,4-13.19,12.42-14.57-.91-12.36-12.88-13.42-21.69-1.51-12.54-.87-25.34-4.85-37.57-1.86-6.1-4.18-12.08-5.12-18.45-.59-6.65.12-12.92,5.55-17.68,21.51-6,7.63-23.75,11.8-35.5Z" transform="translate(-166.38 -664.35)"/><path class="cls-15" d="M708.47,778c4.93-9,11.26-18,22.19-17.32,32.65,1.88,49.73-19.88,67.1-41.79l12-.78C792.32,765.68,752.18,774.89,708.47,778Z" transform="translate(-166.38 -664.35)"/><path class="cls-16" d="M654.34,771c15.34,23.2,36.24,3.41,54.11,7-25,19.85-51.1,34.4-83.72,17.25C632.33,784.43,643.29,777.68,654.34,771Z" transform="translate(-166.38 -664.35)"/><path class="cls-17" d="M827.65,784.17c.53,10.16-1.13,19.21-11.91,23.69-21.86,21.42-43.71,3.52-65.56,0L756.25,796a17.91,17.91,0,0,1,7.5-5c21.39,1.08,38.49-16.52,60.25-13.89Z" transform="translate(-166.38 -664.35)"/><path class="cls-8" d="M824,777.1c-18.67,12.71-38.65,21.15-61.89,18.82-3.74-6.83,2.72-8.56,6-11.9q3,0,5.91,0c18.51-5.3,28.25-24.43,46.82-29.64Z" transform="translate(-166.38 -664.35)"/><path class="cls-18" d="M820.79,754.33C808.22,769,795.24,783,774,784c17.66-19,44.15-32.23,41.82-64.24C825,730.18,820.38,742.62,820.79,754.33Z" transform="translate(-166.38 -664.35)"/><path class="cls-19" d="M660.81,813.8c-17.25,11.75-36.51,3.61-54.75,5.55,1.2-4.48,1.24-9.63,6.76-11.6C628.47,812.51,644.37,815.27,660.81,813.8Z" transform="translate(-166.38 -664.35)"/><path class="cls-20" d="M781,1195.39c2.81,15,17.49,25.13,16.79,41.52h-5.78C781.54,1224.89,779,1210.76,781,1195.39Z" transform="translate(-166.38 -664.35)"/><path class="cls-21" d="M862.78,1004.42c-10.12-13.43-4.14-28.63-4.74-43.11C864.53,975.14,863,989.85,862.78,1004.42Z" transform="translate(-166.38 -664.35)"/><path class="cls-22" d="M922.17,1338.07c-9.41-11.41-3.91-24.64-4.56-37.13C923.89,1312.72,922.49,1325.46,922.17,1338.07Z" transform="translate(-166.38 -664.35)"/><path class="cls-23" d="M745.41,1004.69c8.24,9.31,4,20.38,4.33,30.81C744.1,1025.83,744.56,1015.29,745.41,1004.69Z" transform="translate(-166.38 -664.35)"/><path class="cls-20" d="M773.24,1147.73c11.47,8.66,5.44,20.71,6.1,31.47C772.82,1169.59,775.93,1158.1,773.24,1147.73Z" transform="translate(-166.38 -664.35)"/><path class="cls-24" d="M844.57,914.75l1.51-12.84c5.48,9.73,4.51,20.32,4.08,30.84C844.24,928,845.94,920.91,844.57,914.75Z" transform="translate(-166.38 -664.35)"/><path class="cls-25" d="M904.07,1224.82c-8.4-9.34-4-20.49-4.4-31C905.66,1203.53,905.06,1214.15,904.07,1224.82Z" transform="translate(-166.38 -664.35)"/><path class="cls-26" d="M810.79,1344.41c8.56,9.57,3.94,20.93,4.31,31.62C809.08,1366.12,810.17,1355.24,810.79,1344.41Z" transform="translate(-166.38 -664.35)"/><path class="cls-27" d="M387.85,1308.38c-7.1-8.22-9.79-17.63-7.65-28.35-5.33-9.78.39-21.13-4.39-31-6.68-38.78-6.71-37.63-44.51-31.2-26.78,4.55-54.26,4.37-80.4,13.72-10.57,3.78-18.85.68-19.32-13.63-.52-15.59-2.91-31.13-4.48-46.68,3.61-3.19,7.58-3.17,11.74-1.32,2.33,1.71,5.12,3.49,6,6.08,9.52,26.93,27.05,31.93,51.34,19.08,19-3.26,38.34-1.41,57.11-8.14,15.83-5.67,28.07,2,35.09,17.35,8.74,33.7,24.78,66.5,12.91,102.8C397.23,1311.54,392.74,1312,387.85,1308.38Z" transform="translate(-166.38 -664.35)"/><path class="cls-28" d="M487.09,1230.83l6.83,29.92c4.56,11.3,6,20.84-11.17,20.07-22-26.17-20.55-58.72-24.39-89.82,4-16.4,15.77-23.71,31.31-26.93,23.91-5,47.09-13,71.84-14.44,13.7-.78,28.41-3.34,27.36-23.06,2.35-9.44,2.6-21.52,18.1-14.83,12.48,55,9,59-49,65.22-26.16,2.8-55.21-2.53-75.2,22C487.43,1209.14,482.14,1220.68,487.09,1230.83Z" transform="translate(-166.38 -664.35)"/><path class="cls-29" d="M469.87,1071.25c35.47-6.12,70.91-12.4,106.42-18.25,11.13-1.83,22.83-3,20.06,14.77,3.09,14.52-7.62,19.22-17.67,22.65-37.13,12.67-74.57,23.53-113,4.37C456.14,1085,451.17,1076,469.87,1071.25Z" transform="translate(-166.38 -664.35)"/><path class="cls-30" d="M482,1278.65c12.13-.54,11.85-9.34,11.91-17.91,10.79,16.81,4.45,36.59,9.38,54.53,2.61,9.5-5.55,10.66-12.7,12-21.18,4-42.26,8.54-63.44,12.6-37.36,7.16-37.37,7.07-39.31-31.5l10.7.07C435.58,1322.55,462.36,1313,482,1278.65Z" transform="translate(-166.38 -664.35)"/><path class="cls-31" d="M220.13,1118.45,325.2,1099a29.69,29.69,0,0,1,19-.85c4.31,20.93-11.95,25.18-25.6,28.7-27.76,7.15-56,13.17-85.09,8.83C225.4,1132.77,218.41,1129,220.13,1118.45Z" transform="translate(-166.38 -664.35)"/><path class="cls-32" d="M464,1087.95c45,17.76,105.48,8.54,132.33-20.17l5.08,8.09c5.92,12.07-2,18.1-10.41,23.93-27.59,15.08-58.57,12.3-88.2,16.71a52.77,52.77,0,0,1-9.36,1.86c-22,1.09-40.67-6.11-55.52-22.64-3-6-3.35-12-.18-18C451.51,1068.25,454.9,1085.45,464,1087.95Z" transform="translate(-166.38 -664.35)"/><path class="cls-33" d="M464,1087.95c-10.32.81-15.49-8.61-23.72-12-18.72-16.63-.87-40.08-11-58.32-2.1-7.38-4.46-14.68-5.87-22.25.2-12,1.52-23.09,18-21.2,4.12,27.37,17.08,53,16.38,81.3-.21,8.66,1.74,15.28,12,15.73C465.13,1075.84,458,1079.57,464,1087.95Z" transform="translate(-166.38 -664.35)"/><path class="cls-34" d="M441.47,974.22c-11.45,4.28-13.74,13.47-13,24.27-6.8,25.23-27.87,18.23-44.9,19.42-13.1.92-24.69-4.48-35.3-11.89-8.88-6.5-14.78-15.32-19.28-25.2l-2.27-6c3.28-3.38,7.35-4.22,11.83-3.72,18.37,5,30.86,23.25,53.41,20.6,15.46-1.82,23.39-6.86,24.56-22.11,2.54-10.44,10.94-16.43,17.83-23.58C446.13,953,440,964.57,441.47,974.22Z" transform="translate(-166.38 -664.35)"/><path class="cls-35" d="M329,980.82l16,17.72c6.13,4,10.95,9,12.08,16.65.9,5.42.93,10.91,1.28,16.37.38,6.62,2.24,13,3.8,19.38a65.29,65.29,0,0,1,1.4,7.86c.63,8.07,3.34,15.77,4.2,23.81a17,17,0,0,1-3.8,11.73c-15.7,3.54-13.81-10.3-18-18.18C331.22,1046,333.42,1012.81,329,980.82Z" transform="translate(-166.38 -664.35)"/><path class="cls-36" d="M344.12,962.41c23.77-16.59,51.91-8.84,77.74-13.95,1.44,20.7-12.92,25.69-28.91,29-10.61,2.17-21.19,5.18-32.16,2.12C352.64,976.36,346.14,971.55,344.12,962.41Z" transform="translate(-166.38 -664.35)"/><path class="cls-37" d="M356.86,974.67c22.78-6,52.1,4.27,65-26.21,3.42-4.56,7.95-3.5,12.47-2.48.45,9.91-8.83,14.72-11.92,22.77-17.7,32.09-44.09,36.16-66.81,10.29Z" transform="translate(-166.38 -664.35)"/><path class="cls-38" d="M589.24,1093.9c8.1-3.28,11.73-9.59,12.19-18,9.45,10.78,4.74,23.75,5.54,35.87-12,.68-11.81,9.31-11.74,17.89-15.24-1.34-11.47-13.26-12.58-22.5C583.27,1101.94,586,1097.81,589.24,1093.9Z" transform="translate(-166.38 -664.35)"/><path class="cls-39" d="M220.13,1118.44l11.61,11.24c4.79,3.44,9.87,6.66,10.19,13.49a15,15,0,0,1-5,12c-5.87,3.33-11.39,3.14-16.41-1.7C220.43,1141.77,209.81,1130.21,220.13,1118.44Z" transform="translate(-166.38 -664.35)"/><path class="cls-40" d="M346,1076.16c6.4,5.15,7.67,15.16,16.77,17.75,6.5,10.77,1.13,16.19-8.81,19.54-7.8-1-6.06-8.7-9.13-13L325.2,1099C336.57,1095.42,348.92,1092.75,346,1076.16Z" transform="translate(-166.38 -664.35)"/><path class="cls-41" d="M344.12,962.41a21.05,21.05,0,0,1,12.74,12.27l0,0c-5.94,4.48-11.88,3.94-17.83,0l-12.31.06C320.88,954.32,338.28,966.5,344.12,962.41Z" transform="translate(-166.38 -664.35)"/><path class="cls-42" d="M220.5,1153.43l17.14,0c.85.77,1.7,1.55,2.57,2.32a15.41,15.41,0,0,1,1.38,10.1,10.8,10.8,0,0,1-4,5.49l-10.52-.13C224,1165.65,217.65,1161.24,220.5,1153.43Z" transform="translate(-166.38 -664.35)"/><path class="cls-43" d="M487.09,1230.83c-8.7-9.63-4.27-21-4.33-31.86C489,1208.93,487.91,1219.9,487.09,1230.83Z" transform="translate(-166.38 -664.35)"/><path class="cls-44" d="M375.81,1249.05c8.42,9.34,4,20.5,4.39,31C374.59,1270.3,375.38,1259.65,375.81,1249.05Z" transform="translate(-166.38 -664.35)"/><path class="cls-45" d="M756.14,974.71l-6-11.92c1.46-16.32-1.19-32.13-6-47.68,21.85,13.84,43.71-6.15,65.56,0,10.75,15.7,12.58,33,9.11,51.22C799.28,978.75,778.28,981,756.14,974.71Z" transform="translate(-166.38 -664.35)"/><path class="cls-46" d="M750.18,807.82c21.85-2.4,43.7,11.63,65.56,0,.08,36.18,17.78,70.4,11.92,107.24-9,7.06-13.35.32-17.87-6-2-9.51-5-18.93-5.75-28.53-3.93-53.5-3.74-53.51-53.84-66.82q-3-2-2-4t2-2Z" transform="translate(-166.38 -664.35)"/><path class="cls-47" d="M809.78,909.14l17.87,6,6,6c9.21,15,5,31.65,5.95,47.68-7.95,5.94-15.89,7.23-23.83,0-1.36-17.95-8.87-35.21-6-53.63Z" transform="translate(-166.38 -664.35)"/><path class="cls-17" d="M750.18,807.83v6c-27,9.59-56,5.33-83.39,12C692.27,809,720.75,806.22,750.18,807.83Z" transform="translate(-166.38 -664.35)"/><path class="cls-48" d="M893.27,1266.7l5.84,0q.07,11.91.14,23.82c6.85,9-1.34,20.92,5.81,29.86,6.2,12,9.72,20.38-9.69,25.1-18.08,4.4-37.45,2.32-54.63,12.24-11.69,6.75-10.78-4.22-13.33-11.8-11.94-35.5-9.32-74.09-23.69-109,.75-40.74-18.92-78.43-17.8-119.23,12-23.59,30-19.43,49.06-10.7,17.69,21.73,22,47.6,24.5,74.62C862.42,1213,864.23,1245.45,893.27,1266.7Z" transform="translate(-166.38 -664.35)"/><path class="cls-11" d="M905.06,1320.43c-9.72-8.44-4.54-19.78-5.81-29.86C909.05,1299,903.76,1310.35,905.06,1320.43Z" transform="translate(-166.38 -664.35)"/><path class="cls-18" d="M768.06,784l-6,11.9-5.85,0-24-.06C742.58,787.06,756.19,788.14,768.06,784Z" transform="translate(-166.38 -664.35)"/><path class="cls-49" d="M833.62,1111.77c-17.37-9.74-32.54-2-47.69,6-10.72-10.45-4-23.83-6-35.75,12.77-18.39,31.94-23,52.58-24.43,12.7.2,19.34,8.63,24.95,18.45l6,11.91C854.82,1097.57,846.95,1108.08,833.62,1111.77Z" transform="translate(-166.38 -664.35)"/><path class="cls-50" d="M833.62,1064.09c-20.37-1.44-35.37,13.24-53.71,17.91l-5.93-5.94c1-8.69-1.87-16.43-5.86-23.89,16.72-18.39,36.66-23.86,60.19-15C837.63,1044.65,841.26,1053.27,833.62,1064.09Z" transform="translate(-166.38 -664.35)"/><path class="cls-51" d="M815.74,968.74h23.83v11.91c-4.1,14.51-14.88,22.74-27.46,29.34-16.61,4.61-33.22,12.22-50,.46-2-11.91-8.13-23.14-6-35.75C775.76,970.25,795.22,964.2,815.74,968.74Z" transform="translate(-166.38 -664.35)"/><path class="cls-52" d="M815.74,1004.5a61.06,61.06,0,0,1,23.84-23.84,90,90,0,0,1,11.91,47.67c-6.57,6.48-13.21,12.75-23.58,8C817.55,1028.11,814.3,1017.2,815.74,1004.5Z" transform="translate(-166.38 -664.35)"/><path class="cls-53" d="M827.66,1034.3l23.83-6,6,29.82q0,8.94,0,17.87c-8.24-3.38-13.46-12.8-23.82-11.93.93-8.67-1.9-16.41-6-23.83q-2.29-2-1.52-4T827.66,1034.3Z" transform="translate(-166.38 -664.35)"/><path class="cls-54" d="M833.62,1111.77c7.42-11.08,14.66-22.38,29.78-23.83,13.91,20.06-2.47,45.62,11.9,65.6l18,113.16c-25.79,1.54-28.7-18.07-34.44-36.14-10.89-34.32-2.69-72.07-19.44-105.24C837.18,1120.95,835.53,1116.3,833.62,1111.77Z" transform="translate(-166.38 -664.35)"/><path class="cls-55" d="M827.66,1034.3q0,3,0,6c-21.4-3.82-40.1,5.88-59.53,11.91-.5-14.12,2.21-28.69-6-41.71l53.59-6C823.83,1012.79,825.1,1023.8,827.66,1034.3Z" transform="translate(-166.38 -664.35)"/><path class="cls-56" d="M482,1278.65c4.38,21.72-6,36.58-26,38.52-18.91,1.83-42,17-57.42-8.72,1.43-35.05-7-68.38-17.7-101.32,26.91-9.9,52-28.16,83.27-17.88Z" transform="translate(-166.38 -664.35)"/><path class="cls-57" d="M237.62,1171.38l.12-6c7.18-14,20.5-14.4,33.24-13.6,24.06,1.5,46.45-3.56,68.76-12.23,38.66-15,78-27.25,120.52-18.59,8.7,1.77,17.6-.78,26-3.83a30.29,30.29,0,0,0,7.92-5.1q2.84,0,5.68-.06c17.73,1.43,36-4.12,53.21,4.12,2.19,23-16.57,24.68-30.76,27-76.73,12.77-148.8,44.41-226,55.05-1.83.25-3.41,1.87-5,3C257,1218.6,257,1218.6,237.62,1171.38Z" transform="translate(-166.38 -664.35)"/><path class="cls-58" d="M291.31,1201.21c2.65-5.66,6.62-10.26,12.92-11.28,75.83-12.28,146.35-46,223-55.05,10.7-1.26,21.06-6.06,26.25-17.21,7.43-17.39,20.55-17.76,35.73-11.93.94,8.22-2.7,17.6,6,23.87,7.78,14.2,7.93,22.24-12.38,24.69-31.54,3.82-62.56,11.8-94,16.85-12.1,1.94-19.29,8.25-24.74,18.1-28.8,1.11-53.39,21.8-83.27,17.88-2.79-13.06-12.4-20-23.35-14.24C335.93,1204.25,313.52,1200.06,291.31,1201.21Z" transform="translate(-166.38 -664.35)"/><path class="cls-59" d="M344.79,1100.43c5.2,2.07,5.93,6.57,6.15,11.34a8.19,8.19,0,0,1,1,8.81c-4,7.39-10.22,12.34-17.81,15.72-31.76,8.89-63.24,23-96.45,5.27l-5.92-11.89c27.85,1.56,55.07-3.37,82.14-8.72C326.54,1118.46,338.8,1113.74,344.79,1100.43Z" transform="translate(-166.38 -664.35)"/><path class="cls-60" d="M338.92,1129.61l11.92-11.91c15.89-7.92,26.36-17.67,12-35.75-4.12-7.4-6.94-15.13-6-23.8,20,5.28,40.4,17.32,59-3.37a17.68,17.68,0,0,1,8.13,1.48c12.93,9.3,6.69,26.91,16.34,37.63,17.39,7.75,33.09,20.53,53.89,18.13q-.15,2.87-.24,5.73c-16.24,7.77-32.36,6.82-48.64-.14-22.44-9.59-43.2-9.59-63.94,6.62-11.2,8.75-25.3,15.48-41.14,13.29Q335.89,1134.16,338.92,1129.61Z" transform="translate(-166.38 -664.35)"/><path class="cls-61" d="M440.28,1093.89c-16.61-6.59-9.1-25.24-17.87-35.75-8.72-17.82-26.73-12.23-40.91-15.75-10.24-2.55-22,.83-30.57-8.08l0-17.87c27.82-3.1,55.65,8.5,83.47,0,15,18.56-1.31,40.25,5.94,59.59Q440.29,1084.94,440.28,1093.89Z" transform="translate(-166.38 -664.35)"/><path class="cls-60" d="M589.23,1105.74c-13.39-.45-26.32.48-35.73,11.93-17.81-2.57-36.8,5.88-53.64-5.72,28.74-11.24,61.34-3.35,89.38-18.06Q589.24,1099.82,589.23,1105.74Z" transform="translate(-166.38 -664.35)"/><path class="cls-62" d="M434.36,1016.4c-27.81,27-55.65,2.65-83.47,0L345,998.53c27.83,11.73,55.66,22.78,83.48,0C435.39,1002.82,434.15,1009.85,434.36,1016.4Z" transform="translate(-166.38 -664.35)"/><path class="cls-63" d="M339,974.73l17.83,0c21.43,24.84,33.46,23.75,65.57-6-2.47,28.83-34.24,41.77-61.16,24.43C353.21,988,346.38,980.93,339,974.73Z" transform="translate(-166.38 -664.35)"/><path class="cls-64" d="M416.45,1058.14c-23.51,27-25.39,27-59.59,0q0-3,0-6C379,1034,403.12,1036.46,416.45,1058.14Z" transform="translate(-166.38 -664.35)"/><path class="cls-65" d="M416.45,1058.14c-18-20.81-38.92-12.19-59.61-6l-5.91-17.87c22.84-2.23,45.1,2.22,67.32,6.28,13.3,2.43,19.49,7.75,4.16,17.55Z" transform="translate(-166.38 -664.35)"/><path class="cls-66" d="M362.85,1081.95c6.11,4.92,19.06,4.35,14.64,17.76-4.2,12.75-12.56,19.71-26.65,18q0-3,.09-5.94c7.85-3.37,11.86-9.26,11.79-17.86Q362.79,1087.93,362.85,1081.95Z" transform="translate(-166.38 -664.35)"/><path class="cls-67" d="M338.92,1129.61l.05,6c-10.35,13.39-24.39,19.35-40.78,17.61-20.27-2.15-40.35,5.83-60.52.3l0,0q0-6,0-11.9C272.33,1145.32,305.5,1136.4,338.92,1129.61Z" transform="translate(-166.38 -664.35)"/><path class="cls-68" d="M237.67,1153.52c32.75-11.74,70.19,3.07,101.3-17.91,11.46-2.53,24.5-3.65,32.43-12.37,25.94-28.52,54.57-25,84.85-9.55,12.15,6.18,25.07,3.24,37.68,4.05-8.35,10-20,14.21-31.72,11.56-43.32-9.76-83.51,2.27-121.94,18.82-25.49,11-50.85,11.66-77.09,11.24a51.16,51.16,0,0,0-25.45,6Q237.71,1159.44,237.67,1153.52Z" transform="translate(-166.38 -664.35)"/></svg>