<svg id="Calque_1" data-name="Calque 1" xmlns="http://www.w3.org/2000/svg" viewBox="0 0 817.45 744.49"><defs><style>.cls-1{fill:#202020;}.cls-2{fill:#48bcbf;}.cls-3{fill:#3eaaad;}.cls-4{fill:#55bdc0;}.cls-5{fill:#91cacc;}.cls-6{fill:#40aeb0;}.cls-7{fill:#44b6b9;}.cls-8{fill:#53babc;}.cls-9{fill:#44b4b7;}.cls-10{fill:#3ea9ac;}.cls-11{fill:#45b7ba;}.cls-12{fill:#8cc6c8;}.cls-13{fill:#67b7b9;}.cls-14{fill:#59afb1;}.cls-15{fill:#73bbbd;}.cls-16{fill:#50b4b7;}.cls-17{fill:#54babc;}.cls-18{fill:#8bc8ca;}.cls-19{fill:#47b0b3;}.cls-20{fill:#43b4b7;}.cls-21{fill:#47b7ba;}.cls-22{fill:#6bc8cb;}.cls-23{fill:#55bfc2;}.cls-24{fill:#66c4c7;}.cls-25{fill:#82cbcd;}.cls-26{fill:#7ac8ca;}.cls-27{fill:#4aafb1;}.cls-28{fill:#6cbcbe;}.cls-29{fill:#8fd5d7;}.cls-30{fill:#5cc2c4;}.cls-31{fill:#7bc8ca;}.cls-32{fill:#8ad6d8;}.cls-33{fill:#82c4c6;}.cls-34{fill:#8ccbcd;}.cls-35{fill:#41afb2;}.cls-36{fill:#5cb2b4;}.cls-37{fill:#82c7c9;}.cls-38{fill:#6fcdcf;}.cls-39{fill:#40aaac;}.cls-40{fill:#41acaf;}.cls-41{fill:#49c0c3;}.cls-42{fill:#4db0b3;}.cls-43{fill:#50b7ba;}.cls-44{fill:#50b3b6;}.cls-45{fill:#94d9db;}.cls-46{fill:#8bd3d5;}.cls-47{fill:#47bdc0;}.cls-48{fill:#43b0b2;}.cls-49{fill:#45b3b6;}.cls-50{fill:#46b8ba;}.cls-51{fill:#54c0c2;}.cls-52{fill:#56c3c6;}.cls-53{fill:#46babd;}.cls-54{fill:#78d0d3;}.cls-55{fill:#81d3d5;}.cls-56{fill:#51c2c5;}.cls-57{fill:#42afb2;}.cls-58{fill:#43b2b5;}.cls-59{fill:#56c2c4;}.cls-60{fill:#5ac6c9;}.cls-61{fill:#88d3d5;}.cls-62{fill:#7bd1d3;}.cls-63{fill:#74cfd1;}.cls-64{fill:#40aaad;}.cls-65{fill:#57c4c7;}.cls-66{fill:#80d3d5;}.cls-67{fill:#85d4d6;}.cls-68{fill:#4dbec1;}.cls-69{fill:#4ebbbd;}</style></defs><title>ANIM_Plus1_Blue</title><path class="cls-1" d="M776.18,972.47c-12.4-2.17-23.6,3.7-35.37,5.66-35,5.83-59.09-11.5-61.78-46.32-2.29-29.66-3.37-59.48-3.5-89.23-.12-28.76,11.51-50.55,41-59.83,10-3.13,19.49-7.64,29.24-11.48,116.17-45.69,116-45.07,236.51-18.52,34,7.49,52.34,31,44.66,68.57-41.09,201.25-81,402.74-117.65,604.87-8.08,44.6-26,56.94-71.34,51.65-29.53-3.45-59.11-6.9-88.42-11.86-38.46-6.5-52.75-28.83-46-67.16q37.24-210.49,73.88-421.08C777.7,976.27,776.71,974.57,776.18,972.47Z" transform="translate(-211.22 -734.5)"/><path class="cls-1" d="M630,1194.81c-22-4-47.48-6.66-71.64-13.77-18.63-5.48-22.37,2.23-24.83,17.15q-5.33,32.3-12.25,64.33c-7.06,32.71-28.06,46.65-61.51,40.51s-66.87-12.88-100.19-19.9c-34.48-7.27-48.18-27.77-42.23-62.78,3.36-19.79,5.56-40.08,11.74-59,6.67-20.45-.68-25.55-19.42-27.68-19.85-2.25-39.51-7.1-58.93-12.07-29.77-7.62-43.71-28.47-38.5-58.49,6.11-35.26,13.18-70.37,20.67-105.37,6.07-28.35,29.55-44.07,58-39.35,21.53,3.56,42.94,7.91,64.31,12.34,11.91,2.47,18.78,1.66,20.5-13.72,2.42-21.58,7.92-42.89,13.09-64.07,7.35-30.08,27.81-44.58,57.37-39.6,35.28,5.95,70.48,12.68,105.38,20.52,32.9,7.39,46,28.64,40,61.6-3.46,18.89-6.23,38-11.19,56.5-4.59,17.12,2.14,23.15,18,25.51,21.57,3.23,43.06,7.28,64.36,12,29.64,6.57,44.9,30.32,39.43,60.34-6.11,33.5-12,67-19,100.38C677.23,1178.92,658.94,1194.47,630,1194.81Z" transform="translate(-211.22 -734.5)"/><path class="cls-2" d="M894.24,1246.3c-8.94,46.51-20.22,92.58-25.29,139.8-1.3,12.12-4.32,24-5.95,36.14-1.43,10.6-7.08,12-16.58,10.46-27.56-4.47-55.18-8.87-82.94-11.71-14.57-1.49-17.2-7.38-14-20.42,5-20.23,8.64-40.76,12.86-61.17a16.55,16.55,0,0,1,14.36,7.61c4.63,9.15,3.23,18.69,1.21,28.06-3.92,18.13,4.22,26.12,21.63,27.12a106.91,106.91,0,0,1,18,2.73c17.53,4.07,26-3.8,29.05-20.6,7.4-40.18,13.73-80.56,22-120.61,2.19-6.8,4.17-13.7,9.45-18.94C883.83,1241.59,889.22,1242,894.24,1246.3Z" transform="translate(-211.22 -734.5)"/><path class="cls-3" d="M822.27,993.87c3.19-20.49,6.26-41,9.62-61.46,2.13-13-3-17.77-15.77-15.38-24.67,4.64-49.31,9.43-74.08,13.47-5.54.9-16.15,7.08-15.87-5,.73-31.53-10.92-63.06-.06-94.52,8.49,7.33,7.45,19.86,15.15,27.63,3.66,7.07,7.2,14.7,6.71,22.44-1.28,20.31,5.53,26.08,25.65,19.49,14.78-4.84,31-5.9,46.64-6.63,24.08-1.12,36.18,11.06,34.57,35-1.35,20-3.36,40.16-13.37,58.34C836.37,993.25,830.28,996.37,822.27,993.87Z" transform="translate(-211.22 -734.5)"/><path class="cls-4" d="M773.85,1346.15c-5.05-.18-9.26-1.82-11.53-6.75,9.46-70.28,22.29-140,36.06-209.51,6.78-2.81,11,.88,14.89,5.71,4.21,8.16,3.85,16.72,2.21,25.39-2.72,13.44-6.26,26.74-8.12,40.38-1.91,19.44-7.47,38.21-10.32,57.48A365.45,365.45,0,0,1,784,1339.6C781.78,1343.61,779.38,1347.31,773.85,1346.15Z" transform="translate(-211.22 -734.5)"/><path class="cls-5" d="M779.16,810.7C824,787.83,868.79,764.36,920.93,789c2.78,6.24-.91,9.92-5.24,13.36a22.9,22.9,0,0,1-7.43,2.41c-33.35-9.92-64.22-2.3-94.16,13A43.46,43.46,0,0,1,791.66,823C785.36,821,778.38,819.81,779.16,810.7Z" transform="translate(-211.22 -734.5)"/><path class="cls-6" d="M958.11,920.58,931.7,1052.33c-6,.15-10.72-2.12-14-7.26a28.91,28.91,0,0,1-2.86-12.24C919.09,999,927.58,966,934,932.51c1.3-6.82,2.79-13.82,9.21-18.19C949.76,912.55,954.42,915.4,958.11,920.58Z" transform="translate(-211.22 -734.5)"/><path class="cls-7" d="M910.89,1158.39c-1,8.43-7.89,15.62-5.22,24.83-4.13,4-8.89,4.77-14.19,2.85a9.1,9.1,0,0,1-4.42-5.66c-.54-5.94,1.21-11.81.61-17.75-8.63-20.38-25.17-7.31-38.19-9.06a8.19,8.19,0,0,1-5-5c-1.24-21.33,9-30.73,29.75-26.83,11.53,2.16,23.13-9.51,34.24.82C910.57,1134.41,915.34,1146.09,910.89,1158.39Z" transform="translate(-211.22 -734.5)"/><path class="cls-8" d="M800.82,1120c3.22-30.11,6.89-60.15,15.62-89.3,7.24-11.08,12.82-6.35,18,1.87,1.88,11.82-2.13,23.3-2,35-1.87,11.24-4.46,22.34-6.57,33.55C821.23,1112.37,819.76,1127.87,800.82,1120Z" transform="translate(-211.22 -734.5)"/><path class="cls-9" d="M910.89,1158.39l-5.75-38.23a16.91,16.91,0,0,1-5.08-10.88c-.19-8.29,2.49-16.16,3.52-24.29,5.39-13-1.09-31.32,17.32-38.4,4.56.1,8.5,1.37,10.81,5.73C920.31,1086.81,924.11,1124.27,910.89,1158.39Z" transform="translate(-211.22 -734.5)"/><path class="cls-10" d="M958.11,920.58c-4.45-.17-8.56-1-11-5.39C936.34,887.41,944,863,961,840.38c4.47-2.13,8.72-2,12.68,1.23C971.94,868.61,966.32,894.85,958.11,920.58Z" transform="translate(-211.22 -734.5)"/><path class="cls-11" d="M889.38,1183.22h16.29l-11.44,63.08H878.92c-8.36-8.78-4.74-18.59-2.47-28.29C879.66,1206,880,1192.93,889.38,1183.22Z" transform="translate(-211.22 -734.5)"/><path class="cls-12" d="M779.16,810.7l10.37,9.89c-.36,1.06-.73,2.13-1.08,3.2-3.55,5-9,6.72-14.43,8.65a67.16,67.16,0,0,1-13.9,3.91,30.44,30.44,0,0,1-11.53-.69c-4.94-2.27-10.17-4.38-7.38-11.57C753.46,818.48,765.32,811.79,779.16,810.7Z" transform="translate(-211.22 -734.5)"/><path class="cls-13" d="M741.22,824.09c2.19,5.09,6.38,6.88,11.56,7.05,2.66,9-6.67,13.21-8.07,20.59a11.49,11.49,0,0,1-7.79,5.87c-16.48-3.65-8.11-17.39-10.82-26.63C729.8,825.72,735.85,825.65,741.22,824.09Z" transform="translate(-211.22 -734.5)"/><path class="cls-14" d="M973.65,841.6l-10.69.13c-3.15-2.45-4.44-5.84-4.94-9.65a28.14,28.14,0,0,1,1.37-10.93c3.51-9.43,9.13-17,19-20.55C992.63,816.1,967.77,827.08,973.65,841.6Z" transform="translate(-211.22 -734.5)"/><path class="cls-15" d="M978.37,800.61l-15.32,20c-7.54-3.09-15.26-6-18.4-14.61-.65-5.81,2.93-8.67,7.54-10.82C961.61,793.65,969.8,798,978.37,800.61Z" transform="translate(-211.22 -734.5)"/><path class="cls-16" d="M831.53,1030.81c-5-3-10-3.6-15.09-.06-1-9.18.27-18,4.73-26.17,4.71-4.37,9.26-9.2,16.65-5.59a16,16,0,0,1,2.52,7.17C839.39,1015.07,838.83,1024.15,831.53,1030.81Z" transform="translate(-211.22 -734.5)"/><path class="cls-17" d="M800.82,1120c10.37-.52,15.65-7.63,20.23-15.64a10.56,10.56,0,0,1,8.15,7.38c-.94,12.11-3.45,23-18.65,24.15l-12.17-6Z" transform="translate(-211.22 -734.5)"/><path class="cls-18" d="M952.19,795.16l-5.09,9.7a15.39,15.39,0,0,1-9.65,5.2,30.65,30.65,0,0,1-11.24-.69c-5-1.62-9.08-4.31-10.56-9.76L920.93,789Z" transform="translate(-211.22 -734.5)"/><path class="cls-19" d="M836.76,999.29l-15.58,5.29,1.09-10.7,14.5-5.11a8,8,0,0,1,2.76,5.26A7.93,7.93,0,0,1,836.76,999.29Z" transform="translate(-211.22 -734.5)"/><path class="cls-20" d="M380.77,1141c4.91-40.24,4.93-40.32-35.37-47.29-21.36-3.69-43.1-5.81-64-11.24-7.63-2-23.27,2.2-21.72-15,6.52-9.78,9.86-22.37,23.12-26.25,46.73-.67,91.72,12,137.47,18.66,56.26,8.16,112.89,14,168.64,25.84,15.23,3.22,32,5.08,41.38-13.16,5.46-7.1,11.55-12.88,21.61-10.07-4,23-8.46,45.87-11.79,68.93-2.21,15.32-10.79,17.21-23.71,14.52-31.35-6.52-63-11.69-94.11-19.14-15-3.59-22.41.84-26,14.75a10.61,10.61,0,0,1-10.75,1.68c-11.19-7.44-.38-24.62-13.85-31.15-14.34-7-30.08-6.12-45.26-8.33-11.51-1.68-17.9,3.7-19.38,15.11-1.23,7.1-3.08,14-7.31,20C394.1,1145.23,387.58,1144.43,380.77,1141Z" transform="translate(-211.22 -734.5)"/><path class="cls-21" d="M637.12,1072.84c-7.06,35.7-35.8,23.51-54,19.8-91.82-18.72-185.54-25.32-277.14-45-8.4-1.8-17.4-.78-26.12-1.07-6.23-6.22-13.46-11.93-11.38-22.38a3.33,3.33,0,0,1,.92-3.89c9.51-8.29,20-3.57,29.52-1,14.37,3.83,28.82,4.48,43.45,4.75a59.34,59.34,0,0,1,13.41,2.07c11.81,3.25,24.26,8.06,35.83,7,60-5.48,116.06,9.8,171.59,29.23,14.45,5.06,29.48,2.62,44.26,3.32C617.79,1066.16,628.7,1064.37,637.12,1072.84Z" transform="translate(-211.22 -734.5)"/><path class="cls-22" d="M270.37,1004.49l5.36-31.23c10.83-.41,13.42,10.09,20.14,15.14,23.63,19.94,53,11.74,79.73,16.25,27.21,10.16,34.28-9.64,42.06-28.35,3.54-9,4.34-19.24,12.1-26.28,18.72-17.15,46-19.66,64.23-37.69a84.47,84.47,0,0,1,9.92-9.83c5.88-3.81,11.37-8.32,18.3-10.32a9.12,9.12,0,0,1,6.55,2.66c4.11,7.78,1.64,14.67-2.81,21.32a43.4,43.4,0,0,1-5.05,5.85c-7.71,7.08-16.08,13.84-25.5,17.82-25.24,10.67-43.39,24.85-46.51,55.4-1.71,16.74-18.51,26.15-32.26,35.43-23.65,5-46.91-.34-70.27-2.52C320.14,1023.15,290.85,1028,270.37,1004.49Z" transform="translate(-211.22 -734.5)"/><path class="cls-7" d="M380.77,1141c4.93-3.74,9.8-2.59,14.65.18,3,4.68,1.93,9.83,1.74,14.88a150.93,150.93,0,0,1-4.68,29.78c-5.54,34.58-4.62,34.66,43.87,42.63,32.29,5.31,22-20.23,27.14-34.81,2.32-10,4-20.07,6.12-30.07,2.3-7.52,3.36-15.49,8.11-22.11q3.39-3.12,7-.32l11.55.37c-10.57,31.13-10.52,64.12-16.17,96.12-3.18,18-10.48,21.26-26.25,17.77-24.64-5.44-49.39-10.63-74.31-14.48-13.65-2.1-18-8.2-15.22-21.08C370,1193.62,375.31,1167.3,380.77,1141Z" transform="translate(-211.22 -734.5)"/><path class="cls-23" d="M637.12,1072.84c-47.8,3.12-93.64-3.17-137.79-23.51-26.82-12.35-56.65-8-85.38-7.9-20.89.08-41.43-1.2-60.62-10.56,11-4.53,22.12-2.62,33.33-1.11,15.89,2.14,31.05.84,45.28-8.09,18.36-11.52,37.49-13.82,56.7-1.37,11.58,8.52,22.38,18.4,37.09,21.61,27.35,11.82,55.57,18.63,85.68,18.92,14.9.14,25.19-17.48,41.31-9l-.83,10.65Z" transform="translate(-211.22 -734.5)"/><path class="cls-24" d="M652.74,1051.84c-44.91,27.84-88.18,14.36-131.2-5.23-8.75-7.45-22.91-11.9-18.57-27.37,2.62-9.34,10.15-13.4,20.23-10.23l19.8,5.83c-10.42,14.2-6.54,23.6,9.72,28.72,30.69,9.67,60.88,12.24,89.5-6.53C657.4,1033.67,652.19,1044.8,652.74,1051.84Z" transform="translate(-211.22 -734.5)"/><path class="cls-25" d="M569.87,1019.93a202.87,202.87,0,0,1,56.76,10.94c1.28,17.45-10.45,21.73-24.2,23.41-13.05,1.59-25.67-1.22-38.06-5.11-10.2-3.2-24.55-3.47-21.17-19.6C546.43,1014.14,558.49,1016.39,569.87,1019.93Z" transform="translate(-211.22 -734.5)"/><path class="cls-26" d="M569.87,1019.93c-10.33-.08-22.45-.34-22.88,13.21-.34,10.56,11.58,10.76,19.25,13,23,6.84,46.12,12.83,60.39-15.31,6.82-2.07,10.55,3.7,15.59,6.16-23.13,26.74-90,27.15-111.57-.1-11.89-15,2.45-17.9,12.35-22.09C552.22,1015.15,561.67,1014.23,569.87,1019.93Z" transform="translate(-211.22 -734.5)"/><path class="cls-27" d="M541.95,904.79c-4.73,34-10.12,67.91-19.53,101a26.18,26.18,0,0,1-14.56-13.14c-3.56-14.9,2.15-29,3.5-43.56a113.13,113.13,0,0,0,3.93-19.33c1.39-5.14,3-10.18,6.23-14.55l.18,0C528.86,912.58,531.7,901.53,541.95,904.79Z" transform="translate(-211.22 -734.5)"/><path class="cls-28" d="M432.22,952c-6.62,7.53-2.2,19.47-10.52,26.31-3.24.75-6.49,1.9-9.72-.06,4.91-33.86,10.15-67.66,19.78-100.59,6.1,1,9.72,5.24,12.91,10a18.92,18.92,0,0,1,1.66,10,52.53,52.53,0,0,1-1.31,6.74c-2.09,7.9-1.43,16.16-3,24.14C439.9,936.86,438.81,945.58,432.22,952Z" transform="translate(-211.22 -734.5)"/><path class="cls-29" d="M322.43,972.7c11.25,7,24.52,2.68,36.34,6.44,4,3,19.14,1.82,4.55,12-3.79,2.65,4.94,5.88,0,9-24.07,8-46,6.65-63.7-14.07C304.29,976.64,311.73,971.9,322.43,972.7Z" transform="translate(-211.22 -734.5)"/><path class="cls-30" d="M511.07,994c7.72.14,10.13,5.38,11.35,11.78a5.5,5.5,0,0,1,.78,3.2c-31.66,11.16-9.4,24.7-1.66,37.6-13.75-2.14-24.75-8.41-31.53-21C481.93,1005,491.43,996.13,511.07,994Z" transform="translate(-211.22 -734.5)"/><path class="cls-23" d="M270.37,1004.49c22.51,12.72,48.33,14.08,72.51,21.09q2.58,1.75,1.72,3.51t-1.72,1.75c-25.5,3.44-48.9-7.75-73.51-10.51Z" transform="translate(-211.22 -734.5)"/><path class="cls-31" d="M412,978.25c3.24-.72,6.51-5.81,9.72.05-8.28,18.16-8.49,47.09-42.06,31.57.68-5.78,4.74-9.46,8.32-13.45s7.76-7.39,13.16-8.84Z" transform="translate(-211.22 -734.5)"/><path class="cls-32" d="M475.48,867.13l9.3,1.48c10.76,4.54,5.48,14.53,7.48,22.09-17.3,18.79-31,6.6-44.75-5.16a8.73,8.73,0,0,1-.38-7.73C455.64,871.78,464.49,866.61,475.48,867.13Z" transform="translate(-211.22 -734.5)"/><path class="cls-33" d="M475.48,867.13c-7.37,8.15-15.91,13.45-27.51,11.32-3.41,2.68-1.24,8.18-5.31,10.54-5.35-2.12-8.69-6.17-10.9-11.32C439.94,847.58,459.72,865.69,475.48,867.13Z" transform="translate(-211.22 -734.5)"/><path class="cls-33" d="M490,883.69l-5.24-15.08A132.33,132.33,0,0,1,532,878.39c-1,7.09-6,10.52-11.89,13.16-4.58,2.71-9.51,2.85-14.58,2C499,892.57,494.42,888.24,490,883.69Z" transform="translate(-211.22 -734.5)"/><path class="cls-34" d="M322.43,972.7c-6.26,5.46-11.45,13.05-21.57,10.85-3.93.88-6.55,4.41-10.52,5.21-8.07-2.16-9.12-10.92-14.61-15.51C291.17,962.17,306.79,967,322.43,972.7Z" transform="translate(-211.22 -734.5)"/><path class="cls-35" d="M268.44,1024.22c5.17,6.76,13.76,11.78,11.38,22.38-6,7.65-9.15,18-20.13,20.86A136.27,136.27,0,0,1,268.44,1024.22Z" transform="translate(-211.22 -734.5)"/><path class="cls-36" d="M541.95,904.79c-6.83,3.34-11.38,11.09-20.25,10.48,3.32-6.61,6.08-13.36,5.2-21-.23-7.56,4.39-11.89,10.26-15.39C559,883.76,540.84,896.06,541.95,904.79Z" transform="translate(-211.22 -734.5)"/><path class="cls-34" d="M363.91,994c-1.86-1.33-9.41-2.06-4.83-3.78,14.69-5.52-.81-7.66-.31-11.12,9.34-1.41,17.71,2.25,26.23,5.07,11.33,6.19,5.71,11.55-.82,16.87C376.13,1002.48,369.38,1000.1,363.91,994Z" transform="translate(-211.22 -734.5)"/><path class="cls-37" d="M384.9,999.28c3-5,3.67-10,.1-15.06,5.72-.53,11.39-.84,16.12,3.38a18.54,18.54,0,0,1-10.92,11.7Q387.54,1002.61,384.9,999.28Z" transform="translate(-211.22 -734.5)"/><path class="cls-38" d="M537.15,878.86,526.9,894.25l-5.36,0q-2-1.7-1.35-3.44t1.28-1.75L532,878.39Z" transform="translate(-211.22 -734.5)"/><path class="cls-39" d="M773.85,1346.15l5.15-5.3c4.25-8.21,11.87-11.36,20.16-13.52,13.53-4.75,14.36-16.3,14.71-27.88.4-13.22,1.3-26.27,8.26-38,12.26-20.71,35.41-20.42,51.49.64-3,46.72-16.1,91.81-22.37,138a5.59,5.59,0,0,1-.94,2.42c-20,27.86-44.49,1.51-66.82,4.64-13.44,1.88-17-12.8-14.53-25.08C771.33,1370.14,775.09,1358.52,773.85,1346.15Z" transform="translate(-211.22 -734.5)"/><path class="cls-40" d="M873.63,1262.06c-41.38-17.44-51.64-10.64-52.58,34.79-.34,16.5.86,33.9-21,38.75,1.94-32.28,4.56-64.4,21.24-93.34,17.82-38.91,33.18-44.33,62.82-22.25-5,8.12-5.83,17.06-5.17,26.29C878.68,1252.07,879.79,1258.29,873.63,1262.06Z" transform="translate(-211.22 -734.5)"/><path class="cls-41" d="M836.89,994q-.06-2.64-.12-5.28c3.57-19.5,8-38.88,10.5-58.52,3.09-24.59-8.44-34.08-33.37-29.49-17.79,3.27-35.71,5.87-53.46,9.32-11.93,2.32-19.42,2-18.72-14.08.56-12.7-3-25.58-4.79-38.38l5.19-5.46c8.25-8.44,19-7.53,29.37-7.61,27-.21,54.1-2,80.91.14,38,3,73.78-8,110.41-13.74l.15,10.8a194.9,194.9,0,0,0-15.8,73.46c-13.51,39.27-17.75,80.55-26.29,120.9-15.9,14.42-33.38,5.63-50.4,3.48a13.2,13.2,0,0,1-5.45-5.43C861,1017.07,861.57,996.7,836.89,994Z" transform="translate(-211.22 -734.5)"/><path class="cls-42" d="M826.32,1246.27c-9.63,17.94-16,36.91-15.59,57.41.26,12.23-6.05,21.66-10.69,31.92-7.65-.82-14.47,1.7-21,5.24,1-28.32,12.2-55.36,10.59-84,11.87-10.9,12.63-27.59,21-40.33,4.46-6.79,4.57-17,15-19a13,13,0,0,1,8.34,6.81C835.32,1219,825.44,1231.65,826.32,1246.27Z" transform="translate(-211.22 -734.5)"/><path class="cls-43" d="M800.07,1199c5.53-11.69,1.94-26,10.48-36.8,6.4-8.94,7-22.85,21.3-25a15,15,0,0,1,11,2.88c2.15,3.48,1.73,7.4,1.88,11.22-.07,10.75-6.94,19-10.56,28.41C824.24,1188.65,819,1205.85,800.07,1199Z" transform="translate(-211.22 -734.5)"/><path class="cls-44" d="M800.07,1199c15-.32,19.48-16.29,31.5-21,5.88,8.91,2.09,15.41-5.25,21-8.59,17.72-18,35.13-25.41,53.33-3,7.38-6.16,6.49-11.31,4.52Z" transform="translate(-211.22 -734.5)"/><path class="cls-8" d="M831.57,1141.18l-21,21q0-13.14,0-26.27c6.85-7.79,14.6-15.05,15.76-26.26a9.83,9.83,0,0,1,8.91-6.59,10,10,0,0,1,5.51,5.46Q846.79,1127.83,831.57,1141.18Z" transform="translate(-211.22 -734.5)"/><path class="cls-45" d="M789.53,820.59c11.23-4.65,22.94-8.38,33.58-14.12,28.25-15.24,57.2-16.91,87.25-6.82,1.12,13.58-9,15.7-18.51,16.94-26.79,3.48-53.24,8.85-79.86,13.29-8.64,1.44-19.79,5.45-22.44-9.23Z" transform="translate(-211.22 -734.5)"/><path class="cls-46" d="M789.55,820.65c27.54,9.18,52.79-5.21,78.89-8.91,13.77-2,32.4,6.4,41.91-12.09l5.3-.05,10.5,5.28c1,14.76-10.65,16.88-20.41,18.43C870,829,834.24,834.51,798.22,837.81c-9.17.84-21.71,3-24.43-11.9Z" transform="translate(-211.22 -734.5)"/><path class="cls-47" d="M868.36,1036.09h52.51q0,5.26,0,10.51c-7.91,12.9-7.64,27.85-10.53,42-18.72,3.77-36.35-2.18-54.22-6.09C853.34,1065.24,856.45,1049.51,868.36,1036.09Z" transform="translate(-211.22 -734.5)"/><path class="cls-48" d="M826.32,1246.27c-9.15-15.38,3-28.08,5.26-42,6.75-34.6,23.3-42.12,57.79-26.27q0,2.63,0,5.26L884.1,1220C845.07,1209.69,845.07,1209.69,826.32,1246.27Z" transform="translate(-211.22 -734.5)"/><path class="cls-49" d="M889.37,1178c-23.18.14-49.53-6.69-57.79,26.27l-5.27-5.25,5.25-21c-2.18-11,5.77-18,10.52-26.27q2.62-3.55,5.25,0h0c16.26,1.25,33.56-2.16,47.29,10.51C894.45,1168,895.56,1174.19,889.37,1178Z" transform="translate(-211.22 -734.5)"/><path class="cls-50" d="M847.34,1151.69h-5.25l0-10.52c-3.42-12,1.83-21.78,8.07-31.33,18.25-18.87,36.62-11.87,55-.2q0,5.26,0,10.51c-8.78,2.79-15.67,11.76-26.39,8.2C857.14,1121.19,849.19,1132.3,847.34,1151.69Z" transform="translate(-211.22 -734.5)"/><path class="cls-9" d="M894.63,1162.21c-16.57.14-32.21-3.95-47.29-10.51C865.12,1146.12,884.74,1132.3,894.63,1162.21Z" transform="translate(-211.22 -734.5)"/><path class="cls-51" d="M836.83,1104.4l-10.51,5.27-5.26-5.26c-1.64-12.75,2.23-24.72,5.28-36.8,4.46-5.89,7.23-13.91,16.8-13.44,5.5,1,9.47,3.87,11.49,9.21C853,1078.91,850.23,1094,836.83,1104.4Z" transform="translate(-211.22 -734.5)"/><path class="cls-52" d="M842.08,1057.11l-15.75,10.5c-1.69-12.75,2.28-24.7,5.2-36.8-.51-9.21.3-18.15,5.31-26.24,18.17-.58,18.63,11.67,17.14,24.49C852.78,1039.4,850.28,1049.56,842.08,1057.11Z" transform="translate(-211.22 -734.5)"/><path class="cls-53" d="M905.13,1109.65c-17.34,3.5-37-16.62-52.54,5.26-5.84-5.29-5.64-11.92-4.21-18.84,1.65-5.34,4.35-9.93,9.48-12.69,18.77-11,35.31.53,52.52,5.23Z" transform="translate(-211.22 -734.5)"/><path class="cls-54" d="M962.81,830.93c-21.32,15.27-45.75,20.83-71.29,21.1-49.79.52-99.59.13-149.39.11-8-12.87,6.68-14.22,10.66-21l10.51,0c51.61,7.78,101.59-5,152-12.26,8.81-1.27,15.86-6.86,21.39-14l10.43-.07c3.73,6.86,16.7,4.34,16,15.73Q962.93,825.76,962.81,830.93Z" transform="translate(-211.22 -734.5)"/><path class="cls-55" d="M936.66,804.92c1.14,3.92,4.36,9.05-1.51,11-56.07,18.31-113.25,25-171.85,15.27l10.5-5.25c16.22,9.6,32.78,4.77,49.65,1.95,27.83-4.65,55.84-8.27,83.82-11.92,8.13-1.06,15.32-2.69,18.88-11.06Z" transform="translate(-211.22 -734.5)"/><path class="cls-56" d="M842.08,1057.11C844,1047,844.73,1036.57,848,1027c4.11-12.14-2.11-17.59-11.14-22.38q0-2.64-.08-5.29t.13-5.24c24.83-7.26,30.83-.24,31.46,36.78-7.47,9.4-4.86,23.85-15.77,31.54Z" transform="translate(-211.22 -734.5)"/><path class="cls-57" d="M479.51,1141.19c-.75,7.26,2.44,15.5-5.26,21-29.29,6.64-57.58,5.32-84.07-10.5l5.23-10.51,5.27-21c24.86-10.34,48.7-2.5,72.26,4.83C479.56,1127.05,484.6,1132.85,479.51,1141.19Z" transform="translate(-211.22 -734.5)"/><path class="cls-58" d="M479.51,1141.19c-1.45-13.43-13.73-13.07-21.9-14.63-18.7-3.56-37.91-4.43-56.92-6.39-1.13-20.63,7.45-29,28.29-23.09,5.7,1.62,11.9,1.61,17.89,2,36,2.61,40.09,7.12,37.9,42.05Z" transform="translate(-211.22 -734.5)"/><path class="cls-59" d="M342.88,1030.84q0-2.63,0-5.26l78.82,0c10.45-11.54,24.18-19.63,33.65-32.2a20,20,0,0,0,7.38-10.27c9.21-30.09,19.49-37,53.63-36.33,2.34,16.21-3.91,31.46-5.29,47.25-11.51,7.52-22.45,15.43-21.06,31.56-18.79-7.64-36.84-9.47-55.77,1.4-25.87,14.86-53.86,3.34-80.91,3.88Z" transform="translate(-211.22 -734.5)"/><path class="cls-60" d="M458.48,999.3c-13,7.75-21.48,21.77-36.78,26.27,14.27-19.67,29.66-38.5,28.68-65.34-.25-6.74,9.63-9.24,15.78-12,19.82-8.79,37.53-21,55.36-33q0,7.89,0,15.77c-3.21,5.29-6.79,11-12.91,12.38C478.36,950.1,461.35,968.25,458.48,999.3Z" transform="translate(-211.22 -734.5)"/><path class="cls-61" d="M384.9,999.28l5.3,0a18.48,18.48,0,0,1-10.56,10.58c-23-.57-46.25,2.18-68.84-5.2-9-2.93-19-3.71-20.46-15.92,1-6.71,2.2-13.19,10.52-5.21,19.34,13.55,39.44,22.58,63,10.49C371.55,993.22,378.35,995.73,384.9,999.28Z" transform="translate(-211.22 -734.5)"/><path class="cls-38" d="M432.22,952c-.59-9.23.2-18.18,5.27-26.27,11.87-11.35,29.38-2.23,41.81-11.58a34,34,0,0,1,7.09-2.79c5.32-1,10.24-.44,14.13,3.85C481.29,934.05,455.09,939.94,432.22,952Z" transform="translate(-211.22 -734.5)"/><path class="cls-62" d="M521.46,889q.06,2.59.08,5.18-4.4,10.46-15.74,10.53c-5.93,5.66-14.29,6.45-21,10.5h0c-9.13,6.16-19.47,5.56-29.63,4.84-13.45-1-18.22-7.77-12.45-20.63l0,0c14.83-3.1,30.1,8.56,44.71-1.35a102.48,102.48,0,0,1,18.35-9.16Z" transform="translate(-211.22 -734.5)"/><path class="cls-63" d="M484.76,915.23c5.35-6.83,12.69-9.68,21-10.5l-5.28,10.48Z" transform="translate(-211.22 -734.5)"/><path class="cls-64" d="M469,1193.74c0,2.6.15,5.22,0,7.81-2.21,37.83-5.17,40-42.41,31.42-.84-.19-1.61-.69-2.45-.88-41.91-9.37-41.91-9.37-39.14-48.86C414.19,1176.89,442.09,1181.16,469,1193.74Z" transform="translate(-211.22 -734.5)"/><path class="cls-40" d="M469,1193.74c-28.34-.76-56.23-5.23-84-10.51,6.2-9.77,5.34-20.72,5.23-31.54l84.07,10.5C474.34,1173,475.28,1184,469,1193.74Z" transform="translate(-211.22 -734.5)"/><path class="cls-65" d="M458.48,999.3c-2-27,5.78-47.09,35-54.63,9.86-2.54,18.71-9,28-13.67-.14,5.78.9,11.94-5.16,15.78-7.3,2.74-14.49,5.85-21.94,8.13-14.32,4.38-28.81,7.38-23.94,28.77C471.81,989.54,465.69,996.46,458.48,999.3Z" transform="translate(-211.22 -734.5)"/><path class="cls-63" d="M442.68,899.44c4.52,30.6,28.47,9.41,42.08,15.79-12.3,19-31.48,7.14-47.27,10.5C438.68,916.86,434,906.84,442.68,899.44Z" transform="translate(-211.22 -734.5)"/><path class="cls-66" d="M490,899.47c-15.77,17.83-31.54,8.44-47.3,0q0-5.24,0-10.48c.18-4.31,1.05-8.28,5.31-10.54q0,2.62,0,5.24C457.74,900.3,475.92,894.46,490,899.47Z" transform="translate(-211.22 -734.5)"/><path class="cls-67" d="M490,899.47c-14.52-3.9-36,10.69-42-15.78,14-1.39,28,27.3,42,0l15.75,5.25Q501.38,899.43,490,899.47Z" transform="translate(-211.22 -734.5)"/><path class="cls-68" d="M852.58,1062.36c3.72-11.28,2.95-24.8,15.77-31.54q0,2.63,0,5.27l-10.51,47.29c-.11,4.33-1,8.24-5.26,10.51-4.68,4.36-5.46,14.57-15.76,10.51h0Z" transform="translate(-211.22 -734.5)"/><path class="cls-69" d="M836.83,1104.4l15.76-10.51q0,10.51,0,21l-10.52,26.27h-10.5C834.59,1129.1,838.48,1117.15,836.83,1104.4Z" transform="translate(-211.22 -734.5)"/></svg>