<svg id="Calque_1" data-name="Calque 1" xmlns="http://www.w3.org/2000/svg" viewBox="0 0 1943.92 3208.62"><defs><style>.cls-1{fill:#fff;}.cls-2{fill:#fc3;}</style></defs><title>ANIM_Rayons_Yellow</title><polygon class="cls-1" points="25.4 2817.71 987.72 100.07 1090.51 684.14 60.82 2976.35 25.4 2817.71"/><polygon class="cls-2" points="7.73 2864.49 930.09 69.62 1041.28 644.92 45.43 3020.14 7.73 2864.49"/><polygon class="cls-1" points="15.26 2979.56 690.93 5.6 848.23 677.9 65.31 3162.96 15.26 2979.56"/><polygon class="cls-2" points="0 3029.59 630.43 0 797.76 658.47 52.78 3208.62 0 3029.59"/><polygon class="cls-2" points="135.07 2674.65 1648.62 1090.44 1630.93 1789.91 137.72 2873.34 135.07 2674.65"/><polygon class="cls-2" points="139.27 2799.95 1481.31 857.67 1496.29 1405.15 153.63 2988.36 139.27 2799.95"/><polygon class="cls-1" points="145.03 2716.57 1357.24 639.56 1396.96 1265.61 163.09 2890.96 145.03 2716.57"/><polygon id="f" class="cls-2" points="121.98 2717.93 1317.09 585.64 1361.89 1209.75 141.46 2891.47 121.98 2717.93"/><polygon class="cls-1" points="67.22 2766.22 1145.57 307.13 1221.67 913.87 95.34 2932.91 67.22 2766.22"/><polygon class="cls-2" points="52.47 2794.49 1106.75 277.09 1188.7 879.5 82.2 2959.6 52.47 2794.49"/><polygon class="cls-1" points="179.44 2532.1 1757.27 1354.58 1707.23 2045.14 172.85 2730.27 179.44 2532.1"/><polygon class="cls-2" points="152.77 2541.13 1816.97 1436.28 1748.71 2180.11 141.24 2755.43 152.77 2541.13"/><polygon class="cls-1" points="116.28 2764.95 1907.25 1787.66 1830.13 2527.74 102.79 2978.81 116.28 2764.95"/><polygon class="cls-2" points="122.08 2787.16 1943.92 1854.64 1858.92 2612.41 106.42 3006.49 122.08 2787.16"/></svg>