<svg id="Calque_1" data-name="Calque 1" xmlns="http://www.w3.org/2000/svg" viewBox="0 0 1388.8 251.62"><defs><style>.cls-1{fill:#fff;opacity:0.5;}</style></defs><title>BG_WhichTeamShouldGetIt</title><path id="trident" class="cls-1" d="M1026.82,1031c1.7-.29,3.4-.6,5.1-.87,3.91-.63,7.89,1.78,8,5.24.15,4.37-3.23,5.28-6.62,5.62a90.42,90.42,0,0,1-11.7.62c-11.9-.37-23.83-.43-35.62,1-5.71.7-11.58.4-17.18,2.15a16.08,16.08,0,0,1-7,.62c-7.46-1-13.95,2.49-20.74,4.52-1.53.46-1.88,1.72-1.49,3.43,1.39,6.06,9,12.34,15.39,12.69,3.11.17,6.44,0,9.26,1.12,5.29,2,9.38-.53,13-3.16,10.07-7.24,21.17-8.16,32.76-6.07,3.31.6,6.25,3,8.62,5.49,1.64,1.71,2.22,4.1,0,6.29-1.22,1.22-2.21,3-3.86,3.33-12.47,2.13-20.93,11.45-31.42,17.1-9.58,5.16-20.15,6-31,4.15A122.27,122.27,0,0,1,917,1082.45c-5.95-3-8-9.41-11.47-14.49-3-4.35-4-9.82-7.6-13.89a2.54,2.54,0,0,1-.76-1.68c1-5.91-3-5.61-7-6.33-12.52-2.24-25.19-1.14-37.74-2.19-8.89-.74-17.75-2.24-26.69-1.25-17.81,2-35.16-2.9-52.81-3.3-8-.18-16,.33-23.85-.86-8.74-1.34-17.45-1.14-26.11-.92-7.49.19-14.95-1.87-22.43-.06a14.06,14.06,0,0,1-4.68.07c-7.9-.84-9.86-3.37-8.41-11.1a55.49,55.49,0,0,1,2.24-8.12c1.83-5.2,4.1-7,12-5.55,10,1.87,20.13,1.46,30.12,2.61,10.44,1.2,20.89,2,31.35,2.43,16.54.72,33.1.65,49.67.42,8.07-.11,16.17.87,24.23,1.65,11.22,1.09,22.57.33,33.72,2.21,7,1.18,14.1,0,21.1,1,2,.3,3.41-.71,3.42-2.88a13.46,13.46,0,0,1,3.95-9.66c2-2.16,1.13-5.88,2.84-8.7a64.7,64.7,0,0,1,13.62-16c2.76-2.32,4-6.44,9.43-5.25,2.91.64,6.5-1.81,9.79-2.87,15.77-5.12,30.54-3.24,44.58,5.76,6.94,4.45,12.15,10.68,18,16.26,4.06,3.9,8.59,4.73,13.65,5a21.47,21.47,0,0,1,4.66.27c3.12.86,5.1,2.87,5.19,6.35s-2.72,3.45-4.91,4.59c-4.78,2.48-10.28,1.69-15.1,4-8.82,4.23-17.07.22-25.22-2.58a76.09,76.09,0,0,1-17.48-9c-6.53-4.37-13-3.3-19.63-.6-2.38,1-4.74,2.43-4.66,5.33.07,2.52,2.35,3.74,4.2,5.22,10.13,8.11,22.44,9.27,34.53,10.24,15.11,1.22,30.26,2,45.36,3.41,2.92.26,5.92-.47,8.89-.75Zm-32.28-21.44c-4.36-4.12-8.93-7.94-12.89-12.31a35.45,35.45,0,0,0-22.13-11.81c-13.42-1.89-25.7,1.56-37.43,7.5-5.63,2.85-8.46,8.7-12.26,13.42a3.45,3.45,0,0,0,1.41,5.54c7,2.53,8.63,8.11,8.11,14.5a127.07,127.07,0,0,0,.33,22.39c.53,5.57-.42,7.49-5.9,8.57-3.3.65-2.77,1.84-1.69,4.1,3.84,8.09,9.28,13.65,18.25,16.84a133.18,133.18,0,0,0,31.44,7.24,29,29,0,0,0,14.71-2.62c8.91-4.06,15.69-11.4,24-16.63-3.76.87-7.52.7-11.25,2.44-3.29,1.53-6.21,3.56-9.27,5.32-7.36,4.24-15,2.63-22.8,2.35-12.82-.47-27-9.69-28-25.45-.24-3.5.82-5.88,3.28-7.59a28.58,28.58,0,0,1,12-5.15c3.52-.53,7-1.19,10.53-1.8-4.16-2.07-8.45-2.28-12.31-4.21s-7.13-5-10.87-7.32a14.6,14.6,0,0,1-1.45-24.24c8.11-6.2,25.51-6.21,33.81-.24C973,1006.84,982,1013.51,994.54,1009.57Zm-294.2,12.09c-3.26.1-3.24,2.83-3.42,4.8-.23,2.51,2.19,1.9,3.48,1.78,9.66-.85,19.23,1.08,29,.41,13.19-.9,26.37,1.71,39.67,1.6,12.13-.1,24.29,2,36.43,3.12,12.48,1.19,25-.15,37.5.65,5.46.35,10.86,1.14,16.4,1.07,10.44-.13,20.88.48,31.32.92,1.59.07,3.37.88,3.6-1.48.21-2.07-1.74-1.84-3-2.08-6.93-1.3-14-.58-21-1.56-10-1.4-20.15-1.49-30.25-2.07-10.92-.63-21.82-2.4-32.74-1.73-16,1-31.85-.86-47.78-.94-10.44-.06-20.88-1.57-31.32-2.37-8.5-.65-17.22,1.44-25.52-2A7.13,7.13,0,0,0,700.34,1021.66Zm203.87,15.72c0,2.75,1.14,5.51,1.94,8.35a2.37,2.37,0,0,0,2.85,1.87c1.58-.26,1.37-1.59,1.12-2.61-1-4.08-.18-8.09.25-12.13a26.11,26.11,0,0,0-1.08-9.76c-.58-2.1-2.34-2.51-4.08-2.4-2.09.14-1.67,2.13-1.64,3.32C903.67,1028.4,902.69,1032.81,904.21,1037.38Z" transform="translate(68.68 -974.96)"/><path id="hache_de_guerre2" data-name="hache de guerre2" class="cls-1" d="M1132.8,1076.78c.11-5.53,3-9,8.5-9.6a58.36,58.36,0,0,0,8.19-1.23c9.36-2.4,18.08-6.47,27-10,2.58-1,2.82-3.12,2-5.24-1.08-2.9-3.28-5.57-.72-8.78.22-.28-.17-1.37-.58-1.76-2.4-2.3-2.3-5.56-3.33-8.38s.21-4.88,2.94-5.4c4.81-.91,8.61-3.92,13-5.73,4-1.67,4.93-1.61,6.23,2.73a29.06,29.06,0,0,0,7.22,12.48,47.13,47.13,0,0,1,7.51,9.69c4.62,8.15,8.91,16.48,14.53,24,1.68,2.26,3.16,5.09,1.18,7.7-2.24,3-2.6,5.21.58,7.59.53.39.59,1.43.83,2.18,1.23,3.91,2.24,7.92,4.43,11.43,3.25,5.18,3.92,11.53,7.74,16.46,5.49,7.09,9.26,15.27,14.49,22.6,4.92,6.91,9,14.44,14.65,20.92,5.11,5.88,9.93,12,14.49,18.35a271.51,271.51,0,0,0,17.64,21.3c4.1,4.63,8.43,9.14,15.05,10.34,1.76.32,3.72,1.48,3.74,3.6s-1.68,3.49-3.45,4.53c-4.66,2.74-9.88,4.48-14.09,8-3.34,2.82-6.75,2.43-10.21.13-4.74-3.16-7.68-8-11.13-12.25-6.11-7.59-11.66-15.65-18-23-6.95-8-13.8-16.22-18.79-25.35-7.64-14-17.22-26.88-23.06-41.86-2.54-6.51-7-12.06-9.9-18.49a39.24,39.24,0,0,0-8.94-12.85c-3.56-3.22-6.31-6.35-7.37-11a5.41,5.41,0,0,0-3.51-4c-4.05-1.43-14.67,2.72-16.33,6.83-3.06,7.59-.91,14.69,3.15,21.35,1.16,1.91,2.78,3.57,3.77,5.55,5,10.11,13,16.59,23.64,20,2.05.66,3.91,2.4,3.15,4.84a43.69,43.69,0,0,1-3.7,8.23c-1.73,3.11-4.65,3.42-7.59,2.08-3.45-1.57-7.1-2-10.74-2.65a56.19,56.19,0,0,1-8.83-2c-11.54-4.1-19.58-12.91-28.16-20.82-7.09-6.54-11.72-15-14.8-24.26A52.87,52.87,0,0,1,1132.8,1076.78Zm56.56,52.22c-4.39-1.92-6.36-5.58-8.77-9.06-2.78-4-5.64-8-8.18-12.14-3.52-5.76-6.26-11.69-6-18.85.42-11.18,4.32-13.85,12.8-17.76,1.43-.66,2.92-1.2,4.36-1.86,6.91-3.18,14.79-.43,17.72,6.56,1.48,3.54,3,4.47,6.46,2.25a47.07,47.07,0,0,1,8.28-3.76c1.93-.77,2.55-1.81,1.31-3.59-5.83-8.33-10-17.66-16-25.93-1-1.37-1.83-2-3.56-1.23a18.18,18.18,0,0,1-3.49.68c-8,1.83-8.13,2-6.57,9.9.44,2.24-.16,3.61-2.32,4.79a130.53,130.53,0,0,1-30.86,12.13c-3.51.88-4.73,2.7-3.93,5.92a142.1,142.1,0,0,0,6,17.85,67.3,67.3,0,0,0,10.14,18.1c5.06,6.22,10,12.63,17.9,15.78,3.64,1.45,7,3.73,10.34,5.8a16.66,16.66,0,0,0,4.62,1.71C1196.86,1132.27,1193,1130.56,1189.36,1129Zm30.48-26.57c5.91,10.33,10.48,21.28,15.57,32,4.46,9.36,11.27,17.1,16.29,26a126.82,126.82,0,0,0,10.74,16.48q14.35,18.12,28.57,36.34c4.37,5.57,10.18,5.71,15.15.46,1.07-1.13.42-1.41-.4-2.06-13-10.14-22.09-23.63-31.81-36.61a125.35,125.35,0,0,0-12.62-15.13,27.15,27.15,0,0,1-5.12-7,156.74,156.74,0,0,0-10.36-16.75c-7.2-10.4-14.63-20.63-19.16-32.66-2.45-6.51-6.06-12.58-8.86-19-1.12-2.57-2.45-1.3-3.69-.69-1.08.54-3.82.08-2.24,2.85a6.12,6.12,0,0,1,.41,1.52C1214,1093.31,1217.19,1097.79,1219.84,1102.43Zm-76.58-24.72c-.35-1.14.28-3.38-1.53-3.08-2,.33-1.51,2.68-1.11,4,2.31,7.71,4.08,15.64,8.58,22.51,2.52,3.84,4.24,8.24,8,11.2C1149.84,1101.89,1147,1089.63,1143.26,1077.71Zm44.2-38.58c2-1.44,6.72-1,5.2-5.26-.68-1.92-1.11-5.73-5.26-4.15-4.45,1.7-5.29,3-3.78,7.14C1184.07,1038.62,1185.11,1040.85,1187.45,1039.12Z" transform="translate(68.68 -974.96)"/><path id="hache_de_guerre1" data-name="hache de guerre1" class="cls-1" d="M-43.1,984.72c9.38-4.22,17.21-5.35,25.33-5.8a156,156,0,0,1,25.39.15,38.54,38.54,0,0,1,15.29,4.44A74.67,74.67,0,0,0,38,990.22c2.15.64,3.78,1.91,3.92,4.46.15,2.69-1.63,3.95-3.75,4.47-6.46,1.58-12.86,3.32-18.72,6.54-6.51,3.58-12,8.33-15.64,14.9-2.26,4.1-1.41,8.19.71,12.16.85,1.59,2,1.78,3.56,1.45,10.66-2.29,21.68-1.71,32.34-4.2,3.5-.82,7.25-.54,10.9-1,12.74-1.53,25.57-2.49,38.34-3.7,11.74-1.11,23.68-.48,35.28-3.41,2.79-.7,5.9-.08,8.87-.09,4.85,0,9.6-.37,14-2.84,2.59-1.46,5.7.08,8.37-.82,7.47-2.51,15.32-2.54,23-3.05,7.13-.48,14.39-.59,21.59-.39,2.37.07,4.61,1,5.2,3.64,1.2,5.32,3.82,10,6.31,14.71,2,3.8.42,7-3.73,6.76-10.77-.56-20.94,3.22-31.56,3.78-14.67.76-29.17,3.53-43.91,4-15.26.53-30.37,3-45.56,4.56-9.8,1-19.63,2-29.64,1.36a128.66,128.66,0,0,0-37.1,3.13,23.3,23.3,0,0,1-4.2.29c-4.3.18-6.34,3.36-4.56,7.16.48,1,1.06,2,1.62,3,2.86,5.05,2.77,7.2-1.06,11.41a8,8,0,0,0-2.42,4.82c-.36,5.11-3.39,9.27-4.87,14-1,3.08-4.77,3.29-8.1.41a75.75,75.75,0,0,1-6.84-7c-4.15-4.65-8.1-9.47-13.51-12.82-2.59-1.6-3-3.71-2.06-6.91,3.46-11.39,4.79-8.7-6.78-10.81-2.93-.53-5.92-.66-8.62-2.07a35.85,35.85,0,0,0-12.55-3.69c-3.26-.38-5.34-2.22-5.45-5.48s2.06-4.41,5.07-5.2a45.65,45.65,0,0,0,17.75-8.73,14.72,14.72,0,0,1,6.69-3.55c3.06-.5,3.13-1.81,2.57-4.31-2.55-11.5-11.17-18.16-23-17.6-4,.19-7.95,0-11.83,1-3,.74-5.62-.11-6.83-2.85s0-5.76,2.26-7.62c3.82-3.13,7.93-5.91,12-8.7S-45.74,985.84-43.1,984.72Zm53.93,58.48c1.94,5.31,4,6.05,10.56,5.38,9.13-.93,18.1-3.17,27.42-2.6,15.6,1,31.1-.87,46.58-2.49,13-1.35,25.94-3.71,39.09-3.15,8.15.35,16-2.08,24-2.64a369,369,0,0,0,40.78-5.52c1-.17,2-.12,2.41-1.35.63-2-3.12-7.7-5.26-7.8a214.54,214.54,0,0,0-29.24,1.09c-8.9.82-17.37,4-26.25,4.63-7.33.56-14.64,1.22-22,2-4.74.51-9.43,1.82-14.31,1.46-8.18-.6-16.33.77-24.47,1.26-9.93.6-19.78,2.62-29.65,4.1C37.39,1039.54,24.11,1040.36,10.83,1043.2Zm-63.24-42.12a30.41,30.41,0,0,0,4.62.25c6.65-.63,12.38,1.74,17.3,5.79,7.27,6,12.92,13,11.85,23.31-.12,1.14.15,2,1.32,2.29,4,1.06,8.11,2,12.43,1.36-2.94-8.68,1.19-21.09,8.5-27.47,6.11-5.32,13.06-9.21,20.63-12.62-9.62-7.64-20.58-7.06-31.24-7.18C-23.52,986.65-39.3,989.32-52.41,1001.08ZM.38,1062.84c.35-3.55-2-2.64-4.46-2.19a37,37,0,0,1-6.35.32c-1.3,0-2.55-.15-3.21,1.38-1,2.34-2.12,4.63-3.1,7-.42,1-.94,2.2.28,3.09,5.11,3.74,8.29,9.25,12.59,13.73,2.27,2.36,3.92,2,4.86-1,1.21-3.88,1.6-8,4.27-11.4.83-1-.13-2.42-.44-3.65C4.12,1067.31,1.63,1065.73.38,1062.84Zm3-17.56c-.48-1.34-.76-2.74-2.76-2.58a57.88,57.88,0,0,1-20.13-1.78c-.95-.26-2.47-.65-2.57,1.18s-.42,3.79.09,5.47c.93,3.06,1.69,5.82,6.53,5.55,6.06-.33,12.05-1.27,18.1-1.47,2.17-.07,2.26-1.34,2-2.79A24.1,24.1,0,0,0,3.37,1045.28Zm-33.89-3.42c-2.68,4.06-7.65,3.62-10.26,7.26,1.26.59,2.26,1.1,3.29,1.53,6.8,2.88,8.29,1.83,7.43-5.24C-30.19,1044.47-30.31,1043.53-30.52,1041.86Z" transform="translate(68.68 -974.96)"/><path id="lance" class="cls-1" d="M910.09,1101.13c1.06,3.86.73,7.91,1.73,11.83s3.26,5.51,6.89,5c6.62-1,13.07.33,19.58.89,2,.17,4.12.54,6,0,3.78-1.08,5.6,1,6.87,3.78,3,6.59,4,13.48,2,20.57-1.34,4.77-3.91,6.16-9,5.32-9.28-1.54-18.68.4-28-1-2.33-.35-1.87,2-2.05,3.36-.66,4.86-.12,9.82-1.25,14.64-.75,3.17-1.47,6.52-5,7.7-4.21,1.41-8.36,1.12-11.34-2.62-3.43-4.29-7.83-7.77-10.31-12.88a11,11,0,0,0-7.39-5.85c-11.41-2.74-22.79-5.73-34.34-7.66-8.84-1.48-17.9-1.75-26.88-2.35-6.81-.45-13.76-.7-20.4-2.77-2.46-.77-4.89.14-7.34,0-6.44-.32-12.91-.51-19.2-2.08-13-3.26-26.15-2.15-39.34-1.72-9.48.31-19-1.08-28.52-.82-7.49.21-14.7-2.89-22.05-4.45a9.93,9.93,0,0,1-6.74-5.25c-2.26-4.48.95-11.86,6.82-13.52,7.39-2.08,14.69-4.51,23-2.46,6.08,1.51,12.81.32,19.25.5,13.94.38,27.83,2,41.79,1.55,11.79-.34,23.6-1.45,35.35-1,13.6.52,27.2.54,40.79,1,3.31.12,6.21,1.59,9.48,1.72,8.9.36,17.3-1.78,25.57-4.67a6.17,6.17,0,0,0,2.77-1.56c4.11-5.12,9.81-8.25,14.85-12.22,5.93-4.67,13.69-2.57,15.88,4.76C909.75,1099.63,909.9,1100.38,910.09,1101.13ZM825.16,1124c-.87-.25-2.14-.21-2.56-.78-3.42-4.76-8.27-5-13.48-4.81-7.1.24-14.27-1.62-21.58.77,11.06,8.82,22.86,15,37.21,14.58,2.43-.06,4.93.33,7.17-1.06,5.53,2.88,11.59,2.47,18,3.5-7.89-8.74-18.46-11.28-27.67-16.23Zm17.85-4.35c7.2,4.14,13,9.82,18.34,15.82,2.86,3.25,5.8,4.3,9.66,5.13,6.7,1.43,14,2.36,18.61,8.06,3.38,4.21,6,9,10.22,12.58.88.76,1.25,2.45,2.72,2.09,1.3-.32,1.76-1.81,1.84-3,.49-7,1.13-14,1.17-21,.06-11.42-2.47-22.52-5-33.59-.45-2-1.26-3.49-3.34-1.92-3.61,2.72-8.17,4.08-10.88,8.2a11.42,11.42,0,0,1-5.92,4.23C868.28,1120.41,856,1123.54,843,1119.69Zm101.92,12.86c-.24-2-1.56-3-3.78-3.64a74.77,74.77,0,0,0-21.81-2.26c-4.74.15-5.38,2.25-5.47,6.27s1.32,6,5.41,6c6.68,0,13.37.09,20,.31C944.25,1139.4,946,1137.52,944.93,1132.56Zm-158.28-2.61c-9.68-2.24-16.82-11-28-10.14-4.72.37-9.68-1-14.58-1.32a54,54,0,0,0-14.13,1c8.09,6,8.09,6,18.14,6.33,1.38,0,2.74.37,4.12.46C763.66,1126.95,774.84,1130.1,786.65,1129.94Zm-65.72-4.58c-1.54-.62-3.13-1.15-4.63-1.86a69.67,69.67,0,0,0-14.22-5.47c-7.14-1.69-11.93,1.18-18.38,2.86C695.85,1128.49,708.67,1124.57,720.93,1125.36Z" transform="translate(68.68 -974.96)"/><path id="carotte" class="cls-1" d="M538.05,992.84c16-1,27.39.34,37.68,6.74,1.63,1,3,2.51,4.58,3.56,5.48,3.55,11.44,1.13,15.6-1.34,7.09-4.21,15-5,22.32-7.74a17.54,17.54,0,0,0,3.92-1.8c4.5-3,7.67-1.51,8.37,4.07.36,2.88.34,5.76,1.09,8.64.65,2.48,1.89,3.72,4.33,3.64a119.64,119.64,0,0,0,13.07-.7c6.77-1,10.09,2.17,8.62,8.91-1,4.64-.42,9.34-.83,14-.37,4.16-2.42,5.62-6.35,5.46-5-.2-10-.13-15.06-.29-3.53-.11-5,1.31-5.43,5-1.12,10.67-1.63,10.9-12.55,8.88-7.36-1.36-7.36-1.36-8.62,6a15.69,15.69,0,0,1-.72,3.8c-1.29,2.84-2.81,4.8-6.67,3-5.86-2.71-11.66-5.57-17.47-8.35-6.82-3.26-12.15.27-17.87,2.16-7.94,2.62-15.44,4.5-24.23,2.39-5.77-1.38-11.56-4-17.82-3.56-2.93.22-5.74-.74-8.55-1.58-15.26-4.57-30.51-9.14-46.07-12.69-5.72-1.3-11.2-4.13-16.45-6.9-4.58-2.41-5.92-7.79-4-12.61.59-1.5,1.18-3,1.69-4.54,1.28-3.84,3.45-5.82,7.9-6.48,9.71-1.44,19.48-3.16,28.22-8.16,2.48-1.42,5.37-1,8-1.81C510.23,995.92,526.06,993.17,538.05,992.84Zm-29,22.45a19.54,19.54,0,0,1,.42,2.16c.13,3.1-1.13,5.57-4.16,6.32-3.45.86-3.64-2.37-4.61-4.45a10.6,10.6,0,0,1-.54-5.26c.31-5.33,0-5.58-5.21-4.19-4.71,1.26-8.82,4.26-13.4,5.41-6.7,1.68-13,4.8-20.07,5.16-2.05.11-2.62,1.64-3.06,3.25-.57,2.11,1,2.72,2.42,3.58a47.3,47.3,0,0,0,14,5.14c6.19,1.35,6.72,1.27,8.76-4.71.47-1.38.72-2.83,1.2-4.2.55-1.59,1.35-3,3.39-2.88,1.84.07,3.53.29,4.66,2,1.54,2.39.75,4.37-.36,6.77s-4.17,6.26,1.12,7.75c10.69,3,21.49,5.63,32.24,8.43,2.39.62,3.79.31,4.58-2.56a54.33,54.33,0,0,1,4.28-10.26c1.49-2.89,3.47-2.4,5.23,0,2.13,2.9,1.18,5.79.14,8.77-.75,2.14-1.56,5,.67,6.24,3.17,1.77,6.76,3.36,10.65,2.1,1.35-.44,1.35-1.74,1-2.88-2.34-6.66-.9-13.4-.63-20.14.16-4,.46-7.67,3.22-10.83,1.54-1.77,3-3.87,5.58-2.43a4.89,4.89,0,0,1,2,6.8c-4.35,7.83-1.76,15.65-.6,23.51.13.9,0,1.9,1.53,2,5.36.33,12.17-4.9,13.72-10.18,1.85-6.33.49-12.4-.42-18.65s-4.72-9.41-10.2-11.56c-11.52-4.52-23.44-3.76-35.38-3.16-3.5.18-4.64,1.86-4.59,5.29a63.37,63.37,0,0,1-1,10.1c-.39,2.62-1.75,4.71-4.73,4.57s-4-2.31-4-5c0-2.58-.34-5.14.28-7.73.35-1.45.72-3.77-1.22-4.09s-4.49.19-5.26,2.53A56.09,56.09,0,0,0,509.07,1015.29Zm88.94,10c2.62,1.1,5.06.11,7.44.45,13.14,1.87,26.36.87,39.54,1.06,4,.06,4.29-2.21,4.35-5.3s-.88-4.25-4.13-4.42c-7.08-.36-14.44,1.86-21.21-2.08-.58-.34-2,.21-2.7.72C614.29,1020.52,605.53,1021.07,598,1025.24Zm-9-7.75c10.68-3,21.65-5.25,30.88-12,1-.73,2.11-1.26,1.22-2.57s-2-.39-3.05-.09c-10.23,2.83-19.47,8.3-29.66,11.24-1.21.35-2.06,1.11-1.72,2.48S588,1017.76,589,1017.49Zm5.94,17.58-.1.95c8.28,1.67,16.55,3.36,24.83,5a1.8,1.8,0,0,0,2.23-1.38c.3-1.33,0-2.71-1.37-3.26s-3-1.35-4.67-.83c-2.72.86-5.38.29-8.11.05C603.52,1035.23,599.23,1035.23,595,1035.07Z" transform="translate(68.68 -974.96)"/><path id="hache" class="cls-1" d="M120.49,1062.82c4.32,1,6.43,3.33,5.88,8.17a30.25,30.25,0,0,1-2.92,10.12c-4.81,9.77-9,19.74-10.89,30.55-.54,3-.06,3.81,3.06,3.19,2.83-.56,5.75,0,5.63,3.73-.13,4.08-.07,8.21-1,12.25-2.44,10.41-2.43,10.37-13.13,10.4-1.66,0-4-.81-4.74,1.67-1.16,3.64-2.63,7.27-3.11,11-.78,6.19-2.51,8-8.83,7.67-3.39-.19-6.78-.65-10.16-.66-4.28,0-5.45-1-5.45-5.35,0-3.67.15-7.29-.63-11-.55-2.6-.9-3.42-4-2.87-4.59.82-9.39.73-12.25-4.24-.84-1.46-2.39-1.18-3.81-1.27-18.21-1.12-36.37.9-54.58.92-12.92,0-25.93,1-38.9,1.62-3.37.17-7-1-10.09-.09-8.08,2.52-14.14-3.65-13-10.76.36-2.23.39-4.51.54-6.77.26-3.93,2.44-6.39,6.16-7.05a89.71,89.71,0,0,1,15.14-1.89c15.34-.08,30.66-.64,46,1.06a277.53,277.53,0,0,0,40.18,1.58,107.11,107.11,0,0,0,19.36-2c2.5-.55,2.93-1.85,2.59-4.29A197.31,197.31,0,0,0,59,1071q-1.34-3.85,1.74-6c4.43-3,8.89-5.74,14.75-5.48,9.87.45,19.72,1.5,29.65,1.11,4.16-.16,8.51-.69,11.34,1C118.59,1062.24,119.53,1062.58,120.49,1062.82Zm-36.85,5.81c-3.94,0-7.79-1.44-11.81-.22-3.29,1-4.94,2.5-3.64,6.06,4.24,11.51,5.62,23.62,7.3,35.66.36,2.6,1.45,3.47,4.11,3.64a153,153,0,0,0,21.13.33c2.49-.18,3-1.1,3.54-3.1,3.06-11.17,6.6-22.16,12.12-32.43,3-5.54,2.24-7-5.44-9.24C103.11,1068.29,93.36,1068.53,83.64,1068.63Zm-36.55,54.86c-7.19-.18-14.37-.58-21.56-.63-13.21-.08-26.18-3.59-39.33-3.12-12.52.45-25.14-1.36-37.61,1.73-4.57,1.13-2.86,4.09-3.13,6.56-.31,2.87,1.64,2.59,3.65,2.5A38.66,38.66,0,0,1-45,1131c9.06,1,18-.93,27-.92,9.88,0,19.7-1.91,29.6-.74,3,.36,5.93-.42,8.85-.9,8.51-1.39,17.1.07,25.62-.88,1.49-.17,3.18.06,4.11-1.54C50.25,1123.73,48.83,1123.53,47.09,1123.49Zm24.82,9.26c11.8-.67,23.6-.21,35.4-.12,4.25,0,6.45-2.46,5.87-6.65-.25-1.83-1.66-1.62-2.84-1.89-8.5-1.91-17.15-1.64-25.77-1.81a101.87,101.87,0,0,1-11-.42c-3.93-.51-6,1-6.32,4.19C65.35,1132.28,65.89,1133.09,71.91,1132.75ZM92.6,1141c-2.24-1.7-10.17.32-10.09,1.79.17,3.31-2.75,8,1.6,9.62,6.35,2.35,7,1.59,8.31-3.36C91.64,1146.51,95.68,1143.34,92.6,1141Z" transform="translate(68.68 -974.96)"/><path id="apay" class="cls-1" d="M644.11,1108.73c-8.26,5.42-16.78,10.46-24.15,17.14-1.09,1-2.15,2-3.15,3.07-1.62,1.72-4.19,2.81-5.81,1.92-8.22-4.52-16.79-1.05-25.14-1.68-22-1.64-43.67,2.56-65.54,3.09-7.17.17-7.84,1.17-6.41,8.25.39,1.93,1.05,3.8,1.59,5.7,1.39,4.86-.37,7.73-5.51,8.21a53.32,53.32,0,0,1-9.85-.24,31.12,31.12,0,0,0-11.73.79c-4.71,1.34-7.8-1.46-7.48-6.25.94-14-1-15.77-15.27-13.76-3.26.46-6.5,1.05-9.77,1.39-3.64.37-6.63-.82-7.72-4.61-2.33-8.08-4.29-16.27-4.73-24.7-.41-7.78,1.58-9.28,9.44-9.23,5.57,0,11.14-1,16.71-1.53,3.47-.34,3.75-2.7,3.19-5.34a31.29,31.29,0,0,1-.58-11.76c.62-3.78,2.46-5.87,6.6-5.75,6.41.18,12.81.64,19.19-.9,3.57-.86,8.07,3.89,7.71,8.3-.38,4.71,1.59,5.81,5.76,5.35,14.53-1.59,29-3.55,43.61-4.45,16.16-1,32.06-3.53,48-6.14a10.4,10.4,0,0,1,5.84.38c11.32,4.85,23.8,5.08,35.37,9,5.1,1.72,10.23,3.49,15.91,2.69a4.45,4.45,0,0,1,4.88,3.44,5.85,5.85,0,0,1-3.39,6.59c-5.2,2.6-9.6,6.4-14.62,9.23C646,1107.48,645.09,1108.13,644.11,1108.73Zm-4.87-8.13c-.95.08-1.89.14-2.84.24-8.5.89-17,3-25.37,3.37-13.53.53-26.66,3.75-40.17,4.3-15.39.63-30.49,5-46.05,4.32-.49,0-1,.12-1.48.06-2.71-.35-4-2.12-4.36-4.64-.35-2.71,1.68-3.45,3.72-3.61,6.55-.52,13.27-.1,19.66-1.4,15.85-3.21,32-3.44,48-5.5,14.62-1.88,29.15-5.23,44-4.88.46,0,1-.18.79-1.08-8.28-1.58-16.79-2.67-25-5-5.48-1.53-10.76-2.15-16-.43-5.9,1.94-12,2.16-18,2.61-22.3,1.71-44.49,4.31-66.71,6.77-1.68.19-2.78.4-2.92,2.43-.28,4.13-.78,8.3,1,12.18,1.35,3,3,5.75,2.83,9.29-.13,2.89,2.17,3.42,4.51,3.15,10.94-1.27,22-.13,33-1.85,13-2.05,26.27-.45,39.41-1.11,7-.35,14.09-1.63,21.13,0a5.43,5.43,0,0,0,3.83-.66C621.83,1114.18,629.73,1106.51,639.24,1100.6Zm-142.17-16.14c-1-1.48-2.22-1.34-3.35-1.34a55.12,55.12,0,0,1-7.39,0c-4.27-.59-5.4.53-4.75,5.09,1.51,10.46,5,20.44,6.66,30.87,1.14,7.34.8,14.78,2.23,22.07.39,2,.71,3.94,3.12,3.3,3.95-1,8.12,2.51,11.79-.74.35-.31-.08-1.55-.23-2.34-1.11-6-1.92-12-3.44-17.91-3-11.49-5.43-23-4.28-35A20,20,0,0,0,497.07,1084.46Zm-19.67,23.37c-.84-1.93-2.21-2.25-4.1-2.1-5.58.43-11.16.73-16.75,1q-4.42.24-3.69,4.55c.58,3.41,1.38,6.79,1.79,10.22s2.26,4.76,5.31,4.42a104.19,104.19,0,0,1,17.2-.63c1.35.07,3,0,2.7-1.93C479.14,1118.18,478.23,1113,477.4,1107.83Z" transform="translate(68.68 -974.96)"/><path id="truelle" class="cls-1" d="M405,1102.75c-.57-4.63-2.31-8.44-4-12a91.43,91.43,0,0,1-5.86-16.36c-.63-2.47-1.69-2.55-3.8-2-3.77,1-7.2,2.92-10.92,3.86-3.95,1-8.26,3.17-11.81-1.15-.68-.82-1.45-1.64-1.14-2.74,2.18-7.8.09-15.65.36-23.46.44-12.74.28-25.5,1.76-38.2.39-3.33.38-6.7.68-10,.23-2.57,1.12-4.95,3.76-5.86s4.91.58,6.47,2.49c7,8.51,15.4,15.67,21.15,25.35,4.63,7.79,11.76,13.92,16.88,21.53,2.5,3.71,3.87,7.85,5.48,11.9.75,1.87-.14,3.3-2,4.49-4.92,3.22-10.37,5.2-15.88,7-3,1-3.59,2.38-2.83,5.38a94.28,94.28,0,0,0,5.72,15.89c3.23,7.15,4.26,15.09,5.38,22.88a2.49,2.49,0,0,1-2,2.94c-2.14.53-4.4,1-6.07-1.09-2.55-3.24-6-4.65-9.94-5.43-2.2-.44-3.12-.52-2.82,2.43.83,8.26,3.58,16.12,4.61,24.33.72,5.71,2.22,11.32,3.14,17,.87,5.33-1,7.61-6.33,8.39-3.8.56-7.56,1.47-11.32-.21-1.84-.82-3.54-1.71-3.88-3.91-2.45-15.43-7.56-30.23-10.63-45.51-.81-4-.25-8.15-1.8-12.18-.85-2.22,1.08-4.83,3-6.29,5.25-4,11.55-3.79,17.69-3.62a3.07,3.07,0,0,1,3,3.78c-.5,3.81,1.9,5.74,4.9,7C398.86,1100.44,401.89,1101,405,1102.75Zm-19.7-54.23c4.07-5.08,7.75-6.15,11.85-4.68,5.6,2,8.42,6.75,11,11.47,1.34,2.45,2.52,1.88,4.3,1.19,2.17-.84,2.72-2.14,1.56-4.21-1.76-3.16-3.4-6.37-5.95-9a119.45,119.45,0,0,1-9.72-11.93c-6-8.12-11.78-16.3-18.79-23.56-.54-.56-1-1.39-1.82-1.23s-.83,1.17-.88,1.9c-.6,9.21-1.5,18.42-1.67,27.63-.18,9.79-.28,19.62,1.07,29.37.18,1.3-1,3.22.84,3.69,2.19.55,4.23-.82,6.18-1.79,1.75-.87.52-2.11.43-3.32C383.27,1058.28,382.48,1052.41,385.3,1048.52Zm2.54,103.53c1.28,1.48,2.83,1.29,4.34.74,1.77-.64,1.57-2.07,1.29-3.57-.9-4.79-1.8-9.59-2.6-14.4s-2.23-9.51-3.34-14.27c-1.72-7.38-1.91-15-3.84-22.41-.41-1.58-.79-2.39-2.45-2-1.87.43-5.19-.5-5,2.23.25,4.1-1,8.15.15,12.28,3,11,5.62,22.2,8.64,33.25C385.75,1146.65,385.63,1149.82,387.85,1152.06Zm9.48-98.86c-3.58-2.8-4.82-2.23-6,2.08-.83,2.95-.7,6,1.58,7.86s4.43-1,6.68-1.65a1.64,1.64,0,0,0,1.12-2.43A17.6,17.6,0,0,0,397.32,1053.2Z" transform="translate(68.68 -974.96)"/><path id="brosse_a_dent" data-name="brosse a dent" class="cls-1" d="M344,1095.16c-.4,5.05-1.13,10.11-1.14,15.16,0,11.24-1.62,22.47-.1,33.74.68,5.06-1.8,7.79-7,7.87-7.32.11-15,1.56-21.8.55-8-1.2-15,1.74-22.52,1.63-5.93-.09-6.91-.89-7-6.93a73.56,73.56,0,0,0-.74-8.23c-.64-5.06,1.21-9.78,1.87-14.66.81-5.95,1.87-11.75.93-17.94-.43-2.82.1-6.43.75-9.61.46-2.23,2.05-3.15,4.2-3.25,2.75-.13,5.57-.71,8.23-.26,6.32,1.06,11.58-3.21,17.67-3,1.64,0,1.25-1.4,1.37-2.47.76-6.88.11-13.73-.12-20.6-.22-6.24-.74-12.45.9-18.72,1.08-4.15.85-8.7.83-13.07,0-5.12,1.64-7.61,6.66-8.83a15.62,15.62,0,0,1,4.07-.55c4.74.14,9.49.73,13.73-2.36,1.14-.83,3-1.52,4.14,0s.37,3-.57,4.21c-2.42,3-1.45,6.64-1.81,9.93-1.29,11.73-2.51,23.49-3,35.27C343.18,1080.31,344.32,1087.73,344,1095.16Zm-17,41.22a40.4,40.4,0,0,1,.61,4.5c.09,3.15,2.42,3.44,4.59,3.45,2.62,0,2.52-2.13,2.31-3.94-.89-7.9,0-15.81.21-23.67.3-9.15,1.34-18.3,1.58-27.48.29-11.2.12-22.38,1.59-33.58.79-6,.91-12.25,1.3-18.39.14-2.17.18-4.91-3.15-4.51-3,.35-7.42-.21-7.87,3.61-.93,7.91-2.92,15.75-2.69,23.75.28,9.81,1,19.6,1.36,29.41.18,5.2.47,10.48-.17,15.61C325.32,1115.61,326.95,1126,327,1136.38Zm-31.19-35c2.7.58,5.56,1,5.58,4.43,0,2.16-1.91,3.13-3.81,3.78-.84.29-2.73-.75-2.28,1.14.32,1.37,2.07,1.32,3.18.65,2.21-1.32,3.61-.6,4.67,1.46.67,1.3,1.85,2.49.56,4.12a4.54,4.54,0,0,1-4.18,1.94c-2.16-.08-6.14-1.72-6,1.57.09,3.14,3.57.4,5.51.57,2.56.22,5.27,0,5.29,3.57,0,3.35-2.69,3.71-5.17,4.11-.66.11-1.37-.21-2-.16a38.41,38.41,0,0,0-4.48.57,1.41,1.41,0,0,0-1.17,1.85c.24.81,1.09.77,1.76.63,1.74-.37,3.48-.78,5.2-1.26,2.86-.81,5.54-.59,6.27,2.7s-2.25,4-4.52,4.75a59.2,59.2,0,0,1-6.45,1.39c-3.26.69-1.9,3.49-2.2,5.33-.35,2.15,1.44,2.11,3.09,2.08,3.1-.06,5.84-1.51,8.79-2.08,2.56-.5,3.49-2.06,3.45-4.35-.1-5.34-.56-10.69-.41-16s-1.81-10.36-1.14-15.58C306.12,1101.54,302.8,1098.75,295.76,1101.39Zm17.91,36c.94,1.67.9,3.49,1.22,5.23.42,2.27,2.09,2.74,4,2.6,2.65-.19,1.47-2.09,1.34-3.42-.57-6-1.85-12-1.64-18,.25-7.34-.91-14.76,1-22.07.41-1.58.06-3.79-2.56-3.83-2.33,0-3.09,1.17-3.57,3.5-1.08,5.21-.46,10.32-.26,15.5C313.44,1123.74,314.71,1130.55,313.67,1137.37Z" transform="translate(68.68 -974.96)"/><path id="marteau" class="cls-1" d="M1080.63,1162.75c-10.41-2.34-20.07-6.59-29.4-11.67s-19.41-8.25-29.12-12.38c-4.7-2-9.17-4.54-14.14-6-3.71-1.11-3.36-4.55-2-7.2,3.7-7,5.41-14.64,7.66-22.12a14.63,14.63,0,0,1,1.41-2.76c2.31-4.31,6.6-7,9-11.3,1.25-2.26,3.82-2.22,6.14-1.41,7.1,2.5,14.58,3.93,21.3,7.46,2.71,1.43,4.39,1,5.84-1.81,4.75-9.09,9.82-18,12.78-27.92a26.35,26.35,0,0,1,2.56-5.8c1.48-2.5,3-4.73,1.5-7.93-.69-1.46.56-3.07,1.36-4.59,3.15-6,7.17-11.59,8.32-18.51a22.67,22.67,0,0,1,1.8-4.65,4.77,4.77,0,0,1,6.35-2.93c9.89,4.11,20.91,5.21,29.89,11.8,4.3,3.16,5.63,5.7,3.3,10.6a85.89,85.89,0,0,1-15.31,22.82c-5.51,5.75-7.92,13.24-10.83,20.28-2.44,5.91-4.92,11.63-8.74,16.75-2,2.64.77,3,2,3.11,4.1.42,7.29,2.8,10.79,4.48,5.39,2.59,7.1,5.35,4.24,10.33-7.17,12.48-10.27,26.88-18.78,38.67C1086.63,1162.71,1085,1163.38,1080.63,1162.75Zm-44.75-64.21c-6.78-1.25-10.06.34-11.82,4.81-2.54,6.46-4.81,13-7.18,19.54-1,2.61-.07,4.36,2.47,5.45,6.36,2.72,12.82,5.24,19,8.33,5,2.52,10.83,2.78,15.62,5.93,6.6,4.34,14.12,6.88,21.2,10.3,3.54,1.71,6.76,1.37,9-2.92,1.78-3.34,3.36-6.74,5-10.14,2.88-6,4.37-12.59,7.31-18.52,1.28-2.58.73-3.61-1.19-4.59-4.37-2.23-8.85-4.29-14-2.78-1.27.37-1.75-.4-2-1.26-.71-2.9-3.1-3.07-5.33-3.32-8.56-1-16.87-2.62-24.79-6.32C1044.39,1100.78,1039,1099.57,1035.88,1098.54Zm50.41-38.95c-4.5-.25-4.92,3.63-6.13,6.22-3.92,8.32-7.26,16.92-11.26,25.2-4.47,9.27-4.67,9.17,5.34,10a7.15,7.15,0,0,1,1.34.24c3.85,1.07,6-.69,8.08-3.89,6.24-9.72,9.18-20.94,14.6-31,1.37-2.54-.31-3.48-2-3.93C1092.87,1061.53,1089.43,1061,1086.29,1059.6Zm12.76-27.5c-1.7.75-4.66-2.14-6.39,1.22-2.42,4.7-4.62,9.51-7,14.23-1.11,2.19-.66,3.11,1.8,3.79,5.36,1.49,11,2.23,15.93,5.05,1.28.73,2.22.32,3.25-.56,4.48-3.82,7.19-8.85,9.71-14a2.32,2.32,0,0,0-1.24-3.41C1109.94,1036.35,1105.41,1032.7,1099.06,1032.09Z" transform="translate(68.68 -974.96)"/><path id="fleche" class="cls-1" d="M184.62,1132.53c-4.28-1.26-8.58.47-12.9-.11-4-.53-5.78-3.61-3.67-7,4.14-6.58,10.61-10.72,16.41-15.52,1.95-1.61,4.08-3.06,5.6-5a5.31,5.31,0,0,1,5.29-2.26c3.59.4,7.16.7,10.43,2.54,2.65,1.49,5,.52,6.7-1.65,3.72-4.71,7-9.84,11-14.27,7.63-8.39,13.06-18.37,20.19-27.09,1.38-1.68,1.4-3.14-.63-4-2.76-1.22-5-3.28-7.84-4.38-2.61-1-4.18-3.12-4.94-6.16-1-3.81.5-5.83,3.67-7,10.66-4.08,20.19-10.63,31.17-14,3.78-1.16,7.71-1.54,11.46-3,3-1.17,5.89,2.1,4.78,5.09a34.46,34.46,0,0,0-2,11.07,70.67,70.67,0,0,1-2.08,14.2c-1.3,5.59-3,11.11-4.68,16.59-1,3.19-3.82,2.72-6.06,2a32.38,32.38,0,0,1-10.74-5.72c-2.58-2.21-4.52-3-7.25.31-4.84,5.86-8.4,12.63-13.36,18.35-6,7-11.16,14.65-16.85,21.88-2.95,3.75-.28,6.22.83,8.78,1.35,3.11,2.8,6.31,5.31,8.93,1.94,2,1.49,4.07-.64,6.54-6.63,7.69-15.09,13.39-21.85,20.92-2.11,2.35-5.14,3.91-7.88,5.62-2.25,1.41-3.9.5-4.78-1.9a9.27,9.27,0,0,1-.4-5.34c1.19-4.79.51-9.86,2.4-14.54.72-1.78.07-3.06-2.07-3.23C187.73,1132.88,186.18,1132.69,184.62,1132.53Zm-7.42-6.85c2.22.54,3.86-1,5.46-.17,3.4,1.68,7.1.73,10.63,1.27,5.29.8,6.05,1.46,5.09,6.94-.76,4.36-1,8.81-1.44,13.22,5.71-6.24,13.36-9.92,18.17-16.73,1.53-2.17,1.83-3.59.64-6-1.58-3.24-4.1-6-5-9.56a1.9,1.9,0,0,0-1.93-1.37c-3.44-.2-6.43-1.93-9.67-2.83-2.34-.65-4.9-.83-6.35,1.11-2,2.73-5,4.07-7.47,6.14C182.5,1120,179.48,1122.23,177.2,1125.68ZM271.86,1041c.28-2.65.34-4.33.65-6,.52-2.85-.79-3.59-3.2-2.77-3.73,1.27-7.38,2.74-11.07,4.13-6.29,2.37-11.53,6.84-17.89,9.06-2,.7-1.86,1.56-.3,2.61,2.38,1.62,4.74,3.28,7.17,4.83,5.34,3.42,10.68,6.85,16.13,10.1.82.49,2.27,2.31,3.31-.38C269.49,1055.34,272.08,1048,271.86,1041Z" transform="translate(68.68 -974.96)"/></svg>