<svg id="Calque_1" data-name="Calque 1" xmlns="http://www.w3.org/2000/svg" viewBox="0 0 403.49 327.19"><defs><style>.cls-1{fill:#202020;}.cls-2{fill:#47bcbf;}.cls-3{fill:#42b1b4;}.cls-4{fill:#46b9bc;}.cls-5{fill:#45b7ba;}.cls-6{fill:#46bbbe;}.cls-7{fill:#4db6b9;}.cls-8{fill:#50b5b7;}.cls-9{fill:#40aeb1;}.cls-10{fill:#4cb9bb;}.cls-11{fill:#60c7c9;}.cls-12{fill:#44b6b9;}.cls-13{fill:#42b2b5;}.cls-14{fill:#43b2b5;}.cls-15{fill:#4dbdc0;}.cls-16{fill:#69c9cb;}.cls-17{fill:#83c4c5;}.cls-18{fill:#57bcbe;}.cls-19{fill:#75c3c5;}.cls-20{fill:#81d3d5;}.cls-21{fill:#64c0c2;}.cls-22{fill:#5ec1c3;}.cls-23{fill:#5abbbd;}.cls-24{fill:#82d2d5;}.cls-25{fill:#4fb5b8;}.cls-26{fill:#76cacc;}.cls-27{fill:#4eb2b4;}.cls-28{fill:#56bbbe;}.cls-29{fill:#48bdc0;}.cls-30{fill:#3fadb0;}.cls-31{fill:#5dbdc0;}.cls-32{fill:#3eabae;}.cls-33{fill:#47bbbe;}.cls-34{fill:#51b9bb;}.cls-35{fill:#3ea8ab;}.cls-36{fill:#60babc;}.cls-37{fill:#80c5c7;}.cls-38{fill:#73bdbe;}.cls-39{fill:#61b9bb;}.cls-40{fill:#4db4b6;}.cls-41{fill:#7ac2c4;}.cls-42{fill:#4fbabc;}.cls-43{fill:#6fbdbf;}.cls-44{fill:#42acaf;}.cls-45{fill:#4ab4b7;}.cls-46{fill:#53b7b9;}.cls-47{fill:#65c0c2;}.cls-48{fill:#5eb9bc;}.cls-49{fill:#55b1b3;}.cls-50{fill:#53b3b5;}.cls-51{fill:#68bcbe;}.cls-52{fill:#49b8bb;}.cls-53{fill:#44b2b5;}.cls-54{fill:#66bcbe;}.cls-55{fill:#64b6b8;}.cls-56{fill:#6ec9cc;}.cls-57{fill:#5ac6c8;}.cls-58{fill:#4ab8ba;}.cls-59{fill:#5bb6b9;}.cls-60{fill:#72c2c4;}.cls-61{fill:#47b1b3;}.cls-62{fill:#45b1b4;}.cls-63{fill:#78bcbe;}.cls-64{fill:#41aaad;}.cls-65{fill:#46b6b9;}.cls-66{fill:#52bbbe;}.cls-67{fill:#4bb5b8;}.cls-68{fill:#4bb4b7;}.cls-69{fill:#44b0b3;}.cls-70{fill:#4bb2b5;}.cls-71{fill:#4ab5b7;}.cls-72{fill:#4db3b5;}.cls-73{fill:#40aaad;}.cls-74{fill:#4eb2b5;}.cls-75{fill:#42adaf;}.cls-76{fill:#41afb2;}.cls-77{fill:#40aaac;}.cls-78{fill:#41adaf;}.cls-79{fill:#4eb4b7;}.cls-80{fill:#48b9bc;}.cls-81{fill:#46b2b5;}.cls-82{fill:#59c2c4;}.cls-83{fill:#52bcbe;}.cls-84{fill:#49bfc2;}.cls-85{fill:#54bcbf;}.cls-86{fill:#4db2b4;}.cls-87{fill:#49bec1;}.cls-88{fill:#48babd;}.cls-89{fill:#54c4c7;}.cls-90{fill:#46b8bb;}.cls-91{fill:#49bcbf;}.cls-92{fill:#75cfd1;}.cls-93{fill:#84d4d6;}.cls-94{fill:#4fc1c4;}.cls-95{fill:#7bced0;}.cls-96{fill:#62c9cb;}.cls-97{fill:#50c2c4;}.cls-98{fill:#57b6b8;}.cls-99{fill:#4bbdc0;}.cls-100{fill:#67cacd;}.cls-101{fill:#76cfd1;}.cls-102{fill:#46adaf;}.cls-103{fill:#58bec0;}.cls-104{fill:#56b6b8;}.cls-105{fill:#3da9ac;}.cls-106{fill:#5cb6b8;}.cls-107{fill:#49c0c3;}</style></defs><title>BLUE_TEAM</title><g id="BLUE"><path class="cls-1" d="M374.61,1030.26c6.77-13.13,14.09-27.09,21.19-41.16q22.43-44.5,44.65-89.1c7-14,15.77-17.08,30.36-11.1a307,307,0,0,1,40.36,20.42c9.88,5.86,15.81,15,22.29,23.78,11.29-5.74,20.79.42,30.58,4.6,4.31,1.84,8.81,3.35,12.88,5.61,12.24,6.78,14.76,16.29,8.11,28.63-14,26-27.7,52.13-42.05,77.92-3.26,5.86-2.78,8.35,3.29,11.07,13.27,5.95,13.24,6.23,20-7.16,11.58-23.1,23-46.28,34.55-69.4,7.8-15.62,17.33-18.77,32.7-10.09,10,5.62,22.61,8,27.05,20.85.6,1.72,1.79,1.39,3.11,1.61,18.22,2.92,33.32,10.86,47.2,23.65,8.75,8.06,21.89,11.35,33,16.78,7.54,3.67,15.2,7.14,22.59,11.1,9.52,5.1,13.14,13.72,8.95,23.71-4,9.55-10.3,18.19-13.94,27.85-3.25,8.6-20,3.18-16.71,18.69,2,9.58-7,17.63-10.21,26.71a6.56,6.56,0,0,1-.88,1.81c-4.55,5.92-9.27,11.38-3.34,19.59,2.16,3,.62,7.91-1.31,11.62-4.33,8.33-8.49,16.77-13.24,24.86-5.87,10-15.47,12.78-25.87,7.35-20.51-10.72-40.85-21.78-61.23-32.76-1.75-.95-4.34-2.06-4.73-3.56-3.29-12.74-13.8-9.15-22.36-10.55-17.84-2.93-33.2-10.67-44-25.65-3.31-4.59-5.79-8-12.44-5.39-4.3,1.68-9.3,0-13.64-2.13-20.47-10.09-40.87-20.31-61.43-30.21-7.43-3.58-12-8.87-11.35-17.19.3-4.06-1.31-4.49-4.36-4.37-27.4,1.08-49.59-12.5-71.92-25.64C373.93,1048,372.3,1040.28,374.61,1030.26Z" transform="translate(-373.66 -886)"/><path class="cls-2" d="M711.44,1172.93c-9.79,23.67-9.78,23.66-31.68,12-12.11-6.46-24.06-13.27-36.45-19.15-5.92-2.81-6.12-5.16-3.13-10.53,9.21-16.53,17.81-33.4,26.64-50.14,2.31-.9,4.36-.66,6,1.39a8.26,8.26,0,0,1-.5,6.42c-3.83,7.43-7.76,14.82-11.72,22.18q-4,8.13-8,16.22c-2.71,5.36-1.36,8.71,3.88,11.38,10.17,5.18,20.19,10.66,30.39,15.77,3.28,1.64,7,5.84,10.66,1.31,3.39-4.18-1.54-6.38-3.35-9.25a3.57,3.57,0,0,1-.49-1.92C701.06,1163.95,705.64,1170.95,711.44,1172.93Z" transform="translate(-373.66 -886)"/><path class="cls-3" d="M500.27,990.38c-6.47,3-12.46,7.46-20.27,6.28-.54,6.92,7,7.14,8.15,11.9-2.09,2.32-4.74,4.1-6.48,6.77a31,31,0,0,1-8.86,7c-2.66.89-5.34,3.08-8-.05-.79-7.78-3.84-14-11-18.11-5.44-3.1-9.42-2.75-12.36,3.2-1.59,3.22-2.57,7.15-7.09,7.78a6.57,6.57,0,0,1-5.22-2.26c1.2-6.78-1.76-12.3-5.39-17.62-.12-3.91,1.38-6.93,4.87-8.84A59.23,59.23,0,0,1,469,1000.51c3.1-3,2.14-6.69,4.43-8.89a12.2,12.2,0,0,1,7.89-3.76c7.11,1.66,12.35-6.16,19.58-3.91C503.31,986.34,502.51,988.43,500.27,990.38Z" transform="translate(-373.66 -886)"/><path class="cls-4" d="M552.66,1092.58c-8.72,24.56-8.71,24.55-31.34,13.36-12.88-6.37-25.66-13-38.72-19-5.2-2.38-7.44-4-4-10.08,6.34-11.21,11.58-23,17.28-34.61,3.62-1.07,5,1.19,6,4,.56,4.09-1.53,7.32-3.43,10.6-13.68,26.43-12.52,20.74,10.63,32.62,6.23,3.2,12.52,6.29,18.73,9.52,6.84,3.56,12,3.21,15.07-4.76a7.25,7.25,0,0,1,4.06-4.23A5.55,5.55,0,0,1,552.66,1092.58Z" transform="translate(-373.66 -886)"/><path class="cls-5" d="M487.53,1033.51c-4.31,4.34-6.29,10.2-10,15.09-9,12-20.68,13.87-33.83,11.81-17.53-2.76-32.93-10.91-48-19.87-4.57-2.71-4.11-5.26-2.09-8.91,3.41-6.15,6.75-12.34,10.12-18.51,2.27-1.14,4.16-.53,5.77,1.28a6.38,6.38,0,0,1,.46,3.06c-6.83,17.89-6.84,17.91,10.7,26.43,7.62,3.7,15.77,5.79,24,7.54,10.85,2.31,19.86-1.16,27.33-9.11a54.37,54.37,0,0,0,4-3.95c1.57-1.77,2.6-3.92,4-5.79a5.67,5.67,0,0,1,2.46-1.56A4.81,4.81,0,0,1,487.53,1033.51Z" transform="translate(-373.66 -886)"/><path class="cls-6" d="M650.78,1109.29c-4.36,7.4-8.24,15.14-13.17,22.15-12.48,17.72-35.31,20.26-54.94,6.22-10.89-7.79-20-16.85-17.59-32.09-.06-4.14,1.69-7.84,2.81-11.7,1.3-1.6,2.8-1.3,4.34-.46,1.88,1.87,1.61,4.23,1.53,6.59-.62,19.09,6.79,29.53,24.72,34.89,16.86,5,26.42,1,36.83-15.67,1.07-1.71,2.14-3.41,3.31-5.05,1.84-2.47,3.16-5.31,5.29-7.6a6.55,6.55,0,0,1,4.43-1.69C650.35,1105.67,652.88,1106.19,650.78,1109.29Z" transform="translate(-373.66 -886)"/><path class="cls-7" d="M627.26,1089.3,659.73,1027c3.05,6.11,1.36,12.13-.31,18.15-3.47,8.44-8.85,16.11-10.35,25.36,1.22,4.76,2.14,9.56,1.48,14.51a10.46,10.46,0,0,1-.75,2.87,9,9,0,0,1-4.28,3.88c-7.06-.08-9.09,8.59-15.81,9.11C627.6,1097.28,630,1092.75,627.26,1089.3Z" transform="translate(-373.66 -886)"/><path class="cls-8" d="M409,1014.67l-5.3-1.55,31.7-62.52c2.46-.18,5.11-2.2,7.24.75.18,7.75-5.25,13.13-8.26,19.53-2.7,3.5-3.61,7.68-4.38,11.9-4.52,4.68-7.87,10-8.19,16.71-.62,1.88-1.91,3.53-1.71,5.68C420.92,1013.57,416.35,1015.75,409,1014.67Z" transform="translate(-373.66 -886)"/><path class="cls-9" d="M756.31,1070.38c-8.7,21.25-8.7,21.25-28.15,10.3-16.41-9.24-16.41-9.24-26.8,7.34a4.13,4.13,0,0,1-4.7-1.16c-1.46-3.45-.39-6.75.61-10a24.06,24.06,0,0,1,8.54-11.84c5.77-3.24,10.87-.54,15.92,1.95a57.85,57.85,0,0,1,10.27,6c6.74,5.29,12.31,5.05,17-2.56C751.41,1069,753.87,1068.56,756.31,1070.38Z" transform="translate(-373.66 -886)"/><path class="cls-10" d="M697.13,1086.64l4.23,1.38c-1.55,3.86-2.52,8-5.48,11.17-1.41-1.29-1.54-3.11-2-4.78-3.39-3.85-7.53-3.81-10,.06-3,4.63,1.92,6.89,4.79,9.47,5.76,5.24,13.31,6.13,20.23,8.56,5.61,2,12,2.07,16.42,7a4,4,0,0,1-1.17,4.76l.08-.05a11,11,0,0,1-7,.53c-11.54-5.09-23.58-8.74-35.57-12.58a21.13,21.13,0,0,1-9.37-5.44l-5.48-1.6,12.36-23.94C686.21,1079.58,692.42,1080.66,697.13,1086.64Z" transform="translate(-373.66 -886)"/><path class="cls-11" d="M747.28,1059.25l3.79,1.43c11.71,6.19-.7,6.67-2.31,9.72-7.67,2.56-14.44-1.49-21.32-3.34-10.26-2.76-20.94-1.87-31.11-4.66-3.51-3.89-4.63-8-1.21-12.57,2.24-1.1,4.54-.85,6.85-.35,8.89,1.67,17.13,6,26.29,6.58C734.92,1055.2,740.73,1059.38,747.28,1059.25Z" transform="translate(-373.66 -886)"/><path class="cls-12" d="M718.22,1122.29l6,1.9c-6.49,18-6.49,18-23,9.87-12.88-6.38-12.88-6.38-22.43,8.57-2.73-1.5-3.86-4-4.16-6.93.63-7,2.68-13.19,9.83-16.27,6.29-.48,12,1.67,17.15,4.85C708,1128.26,713.35,1128.55,718.22,1122.29Z" transform="translate(-373.66 -886)"/><path class="cls-7" d="M582.82,1061.51l20.87-42.28c2.31-1.11,4.66-2.75,6.73.39a9.06,9.06,0,0,1-.64,6.06c-2.82,6.35-6.53,12.3-8.88,18.87-.83,5.17-3.48,9.89-3.76,15.2-.7,3.5-2.74,6.29-4.77,9.09-2.86,2.45-4.51,7.08-9.67,5.49C580,1070,584.65,1065.8,582.82,1061.51Z" transform="translate(-373.66 -886)"/><path class="cls-13" d="M634.12,1013.41q-7.14,14.26-14.27,28.52c-6.95,13.93-11.85,28.85-20.41,42-2.47-3-1.63-6.9-2.75-10.27,1.11-6.92,5-12.68,7.93-18.81,2.23-6.51,6.6-11.91,9.42-18.12,2.54-6.28,6.28-11.91,9.65-17.75,1.61-2.72,3.37-5.3,6.33-6.75A3.36,3.36,0,0,1,634.12,1013.41Z" transform="translate(-373.66 -886)"/><path class="cls-14" d="M543.21,1009.88l-19.86,38.71c-1.86-2.07-2.77-4.93-5.4-6.36-6-5.81-6.21-12-1.28-18.58,8.2-.79,14.27-4.42,16.84-12.7,1.18-2.29,2.4-4.55,5.28-5C541.16,1006.22,542,1008.22,543.21,1009.88Z" transform="translate(-373.66 -886)"/><path class="cls-15" d="M646.78,1071.86c-.91-10.42,6.29-17.82,9.9-26.55,6.55-2.53,12.84,2,19.35.69,2.35.42,3.28,2.3,4.25,4.14l-.35,2a74.07,74.07,0,0,0-6.77,3.93c-9,4.37-14.92,13.1-24.17,17.12A2.41,2.41,0,0,1,646.78,1071.86Z" transform="translate(-373.66 -886)"/><path class="cls-16" d="M677.18,1047.13c-7.33,5-13.7-.87-20.5-1.82l3.05-18.34,1.62-3.35c3.44.07,4.37,3,6,5.18,3.85,6.07,10.44,6.63,16.53,8.19,1.7,1.22,3.29,2.47,1.5,4.78a.94.94,0,0,1-.6,1.31C682,1044,680.06,1046.42,677.18,1047.13Z" transform="translate(-373.66 -886)"/><path class="cls-17" d="M457.5,906.89c.45-2.38,1.71-3.65,4.16-2.56,16.07,7.16,33.14,12.54,46,25.47-.15,3.75-3,3.48-5.54,3.79-4.13-.84-7.19-3.75-10.82-5.56a116.89,116.89,0,0,0-26.14-12.56,32.12,32.12,0,0,1-4.91-3.48C458.49,910.76,458.13,908.76,457.5,906.89Z" transform="translate(-373.66 -886)"/><path class="cls-18" d="M598.76,1085.11c-1.28,3.47-2.47,7-3.85,10.39-3,7.33-2.2,13.74,4.34,18.85,4.59,2.65,4.59,2.79,8.57,2.75,2.64,0,5.33-.69,6.47,2.7-8.37,6.62-17.85,5.07-26-4.21a17.29,17.29,0,0,1-4.38-8.9c-.68-8.32.46-16.06,7.16-22C593.71,1083.18,596.35,1082.14,598.76,1085.11Z" transform="translate(-373.66 -886)"/><path class="cls-19" d="M534.66,965.22c1.15-3.49,2-7.16,3.56-10.43,1.43-2.93,2.33-7.67,7.65-4.85,4,3.25,9.65,2.37,13.61,5.63l5.16,2c3.86,4.54.29,7.11-2.61,9.86a3.21,3.21,0,0,1-2.64-.77c-2.78-2.73-5.2-6-9.51-6.5-2.72-.31-4.6.9-4.92,3.58-.38,3.2,1.86,3.72,4.45,3.61,3.43-.15,7-2.53,10.23.78a3.78,3.78,0,0,1-.48,2.94c-6.69,5.78-13.83,7.75-21.82,2.6C535.32,971.22,535,968.21,534.66,965.22Z" transform="translate(-373.66 -886)"/><path class="cls-20" d="M681.92,1038c-7.73,1.21-13.2-1.68-16.25-9-2-8.12,3.4-9.51,9.43-10.28l3.62,1.72C689.14,1025.56,690,1030.25,681.92,1038Z" transform="translate(-373.66 -886)"/><path class="cls-21" d="M614,1119c-5.83.12-11.93-.06-16.74-3.24-2.34-1.55,1.25-.91,2-1.43,7.63,3.34,13.16-.51,17.18-6.13,4.2-5.88,7.27-12.57,10.83-18.91,8,2.08,3.12,7.19,2.67,11.26a23.73,23.73,0,0,1-11.62,17.82A6.48,6.48,0,0,1,614,1119Z" transform="translate(-373.66 -886)"/><path class="cls-22" d="M711.44,1172.93c-2.17.66-4.16,4-6.5-.21-2.21-3.95-7-3.29-10.59-4.82-8.13-.67-14.73-4-19.32-11-.51-7.05,2.79-6.15,7-3.35,8.22,4,16.54,7.73,24.6,12C709.23,1167,714.85,1167.27,711.44,1172.93Z" transform="translate(-373.66 -886)"/><path class="cls-23" d="M725,1120c-10.29-3-20.65-5.85-30.84-9.21a14.63,14.63,0,0,1-8.56-6.53c-3.4-9.41.14-12.83,11.67-11.28l-1.42,6.17.06-.19c-3.17,4,.33,5.09,3,6.13,7.24,2.89,14.44,5.9,22.06,7.72l2,.78C725,1115.33,729.15,1116.35,725,1120Z" transform="translate(-373.66 -886)"/><path class="cls-12" d="M648.61,1087.12l.57-1.94c1.59-6.83,5.65-11,12.81-11.77,2.17.5,3,2.29,3.84,4l-15,31.83c-.27-2-1.62-3-3.41-3.6-1.61-2.45-1-5-.4-7.57s1.51-5.1,3.43-6.73C654.81,1087.63,647.77,1089.1,648.61,1087.12Z" transform="translate(-373.66 -886)"/><path class="cls-24" d="M728.69,1058c-10,1.53-18.41-4.32-27.72-6a6.7,6.7,0,0,1-.46-4.61c4.58-3.85,9.36-5.72,12.19-4.77,3.34,5.25,10.08,3.24,14.27,6.67-4.53,1.72-4.53,1.72-10.65-1.2C719.47,1052.61,728.81,1049.41,728.69,1058Z" transform="translate(-373.66 -886)"/><path class="cls-25" d="M500.85,1045.84l-4.94-3.55,13.8-25.47c4.58-3.75,5.48.78,7.3,3.24a4.66,4.66,0,0,1,0,2.83,43.34,43.34,0,0,0-4.56,12.11C509.56,1039.66,506.74,1044.4,500.85,1045.84Z" transform="translate(-373.66 -886)"/><path class="cls-26" d="M515.89,1066.66l3.61,1.82c2.67,2.56,6.9,1.72,9.54,4.36,9.53,1.82,16.63,8.91,25.63,11.87-4.59,8.55-11,2.63-16.68,2.08-6.73-3.82-14.39-6-20.36-11.21C515.6,1072.9,513.17,1070.27,515.89,1066.66Z" transform="translate(-373.66 -886)"/><path class="cls-27" d="M442.46,950.85c-2.36.37-4.72,1-7-.24L450,919.37c3.39-1.1,4.8,1,5.91,3.63a12.08,12.08,0,0,1-.46,6.22,21.4,21.4,0,0,1-1.89,4.2c-3.43,5.48-4.85,12.13-9.7,16.79Z" transform="translate(-373.66 -886)"/><path class="cls-28" d="M582.82,1061.51c5.93,4.14,0,8.44.18,12.66,2,8.68-4.05,13.79-8.64,19.55l-1.5.61-3.86-1.13a13.26,13.26,0,0,1,2.78-10C575,1075.72,577.71,1068,582.82,1061.51Z" transform="translate(-373.66 -886)"/><path class="cls-29" d="M695.43,1050.45c-2.94,3.79,1.82,7,.79,10.67,2.61,4,8.8.57,11,5.35-2.72,3.29-6.46,5.88-7.26,10.49-4.2,1.42-6.72-1.26-9.32-3.78-2.29-3.81.26-8.59-2.43-12.33l7.92-14.73A3.21,3.21,0,0,1,695.43,1050.45Z" transform="translate(-373.66 -886)"/><path class="cls-30" d="M543.21,1009.88c-1.66-.51-3.1-1.25-3.54-3.13-2.55-8,4.28-12.59,6.73-18.78,2.25-4.73,4.69-9.32,9.1-12.49,1.91-1,3.85-1.73,5.85-.22Z" transform="translate(-373.66 -886)"/><path class="cls-31" d="M515.89,1066.66l2,7.29a4.88,4.88,0,0,1-2.88.9,9.65,9.65,0,0,1-8.63-10.89c1.72-5.42,4.81-10.07,8.2-14.56a6.8,6.8,0,0,1,2.59-1.72,4.87,4.87,0,0,1,5.34,2.44Z" transform="translate(-373.66 -886)"/><path class="cls-32" d="M500.27,990.38c.55-2,1.47-4-.37-5.83.72-7.31,5.51-12.57,9.21-18.38,2.46-2.09,5.18-3.91,7-6.71a4.84,4.84,0,0,1,2.37-1.35C517.38,971.68,511.37,982.47,500.27,990.38Z" transform="translate(-373.66 -886)"/><path class="cls-33" d="M690.85,1072.17,700,1077l-2.84,9.68-17.94-5.48,2.51-5.26C685.26,1075.9,686.55,1070.35,690.85,1072.17Z" transform="translate(-373.66 -886)"/><path class="cls-34" d="M487.53,1033.51l-5.71-1.68a5.94,5.94,0,0,1-1.16-2.81c-.25-5.33-.47-10.76,2.11-15.6,1.69-3.18,4.14-6.2,6.7-.38C493,1020.26,491.79,1027,487.53,1033.51Z" transform="translate(-373.66 -886)"/><path class="cls-14" d="M665.82,1077.45c-1.49-.5-2.69-1.29-3-3-1.5-2.67-1-5.3.09-7.94a34.14,34.14,0,0,1,10-12.23,6.09,6.09,0,0,1,7-2.16C674.83,1060.36,672,1069.83,665.82,1077.45Z" transform="translate(-373.66 -886)"/><path class="cls-35" d="M515.11,1005.81c4.21-10.23,8.67-20.33,14.44-29.8,2.07,2.31,2.49,5.29,3.31,8.11-.06,5.29-3.43,9.26-5.46,13.76a30.32,30.32,0,0,1-4.46,5.76C520.54,1005.15,518.26,1007.07,515.11,1005.81Z" transform="translate(-373.66 -886)"/><path class="cls-36" d="M720.94,1112.84c-9.21,1.09-17.2-3.3-25.35-6.28-2.64-1-7.64-5.4.34-7.57C703.11,1105.71,713.27,1107,720.94,1112.84Z" transform="translate(-373.66 -886)"/><path class="cls-37" d="M728.69,1058c-2.78-4.67-8.06-5.93-12.74-8.79,4.13-1.38,7.52,2.67,11,.06,7.87,1.08,13.06,7.62,20.31,10A43.23,43.23,0,0,1,728.69,1058Z" transform="translate(-373.66 -886)"/><path class="cls-38" d="M612.3,1002.45c.55-1.57,1-3.16,1.65-4.69,4.87-11.9,4.88-11.9,16.38-4.77-.32.31-.64.62-1,.94-5.83,1.78-7.33,7.44-10.41,11.69-1.42,1.51-2.88,2.94-5.18,2.86C610.21,1007.22,610,1005.15,612.3,1002.45Z" transform="translate(-373.66 -886)"/><path class="cls-39" d="M515.83,1073.41l2.1.54L538,1084.1c4.07,4.15,10.72,2.39,14.83,6.44l-.17,2-6.16-1.72C532.51,1092.73,518.41,1084.71,515.83,1073.41Z" transform="translate(-373.66 -886)"/><path class="cls-40" d="M489.47,1013c-4.67-3.42-5.4,0-5.82,3.48-.54,4.44-.85,8.91-1.26,13.37-3.78,1.55-6.52-.09-8.4-3.18-2.2-3.6,1.08-5.34,3-7.37,1.39-1.44,1.84-3.53,3.52-4.72,1-3.89,2.58-7.14,7.58-6.08C489.4,1009.81,490.39,1011.15,489.47,1013Z" transform="translate(-373.66 -886)"/><path class="cls-41" d="M681.92,1038c4.49-6.86,4.27-12.85-3.2-17.53,16.83,5.6,16.85,5.66,6.66,21.33C685.16,1039.66,683.76,1038.61,681.92,1038Z" transform="translate(-373.66 -886)"/><path class="cls-42" d="M682,1153.59c-2.35-.11-6.07-2.89-5.4,2.81-5.52,1.59-7.42-1.66-8.35-6.23a21.22,21.22,0,0,1,3.28-11.52c1.18-1.33,2.43-2.49,4.4-1.44a7.45,7.45,0,0,1,2.84,5.42C675.62,1147.54,677.42,1151,682,1153.59Z" transform="translate(-373.66 -886)"/><path class="cls-43" d="M502.53,932.71l5.16-2.91c6.15,4.07,9,10.05,9.93,17.14.19,3.06-1.78,3.11-4,2.86-2.47-1-3.64-3.13-4.9-5.22C507.24,940.34,503,937.52,502.53,932.71Z" transform="translate(-373.66 -886)"/><path class="cls-44" d="M690.85,1072.17c-3.62-.17-2.86,10.41-9.14,3.73.41-5.78,5.56-9.51,6.52-15.05C696.05,1063,691.37,1068.07,690.85,1072.17Z" transform="translate(-373.66 -886)"/><path class="cls-41" d="M675.1,1018.72c-2,4.47-10.08,3.38-9.43,10.28l-4.32-5.39C663.32,1014.64,667.62,1012.21,675.1,1018.72Z" transform="translate(-373.66 -886)"/><path class="cls-45" d="M515.11,1005.81c2.15-.85,3.72-3.42,6.56-2.24,2.48,7-1.28,12.25-5.11,17.43-3.13,0-2.77-5.74-6.85-4.17Z" transform="translate(-373.66 -886)"/><path class="cls-46" d="M612.3,1002.45c-.42,2.49,0,4.54,2.78,5.4,1.32,2,1.05,4.07.42,6.18-1.07,2.63-2.61,4.71-5.76,4.88l-6,.32C605.37,1013,608.88,1007.76,612.3,1002.45Z" transform="translate(-373.66 -886)"/><path class="cls-37" d="M712.7,1042.62a18.77,18.77,0,0,0-10.6,5.5c-3,.67-4-1.6-5.13-3.61C700,1034.92,700.33,1034.88,712.7,1042.62Z" transform="translate(-373.66 -886)"/><path class="cls-47" d="M634.12,1013.41l-3.55-1-.68-1.19a8.67,8.67,0,0,1,1.45-6.49,21.67,21.67,0,0,1,3.57-3.95c1.69-1.6,3.91-1.81,6-2.24C644.62,1006.26,637.88,1009.15,634.12,1013.41Z" transform="translate(-373.66 -886)"/><path class="cls-38" d="M641,998.57a7,7,0,0,1-5.06,2.78c-6.34.87-8.85-1.44-6.49-7.8l.93-.56C634.07,994.47,638.1,995.41,641,998.57Z" transform="translate(-373.66 -886)"/><path class="cls-48" d="M534.66,965.22c3.93,1.28,3.51,4.09,2.49,7.11a3.36,3.36,0,0,1-.55,4,5.22,5.22,0,0,1-2.83.68,4.81,4.81,0,0,1-3.46-2.51C531.37,971.25,531.78,967.66,534.66,965.22Z" transform="translate(-373.66 -886)"/><path class="cls-49" d="M750.78,1068.72c-1-2.72,6-5.15.29-8,5,1.49,11.49,2.15,5.24,9.7l-6.07.3q-.73-.91-.25-1.48T750.78,1068.72Z" transform="translate(-373.66 -886)"/><path class="cls-50" d="M561.35,975.26l-4.28.84c-1.15-2.45-.22-4.28,1.73-5.81l.47-2a1.22,1.22,0,0,1,0-1.43q.44-.54.68-.47l1.91.55c2.06-1.09,3.42-4.23,6.53-2.21C568.19,969.68,562.72,971.1,561.35,975.26Z" transform="translate(-373.66 -886)"/><path class="cls-51" d="M512.66,948.33c1.91.47,3.64.29,5-1.39,1.74,3.61,1.28,7.39.83,11.16l-1.31,2.05a3.3,3.3,0,0,1-3.72-.16,6.93,6.93,0,0,1-2.07-3.3,21.55,21.55,0,0,1-.12-6.39A3.25,3.25,0,0,1,512.66,948.33Z" transform="translate(-373.66 -886)"/><path class="cls-52" d="M598.76,1085.11l-6.43.22a5.21,5.21,0,0,1-.41-4.37c1.24-2.81,2.7-5.44,5.76-6.68,5.28,2.36,1.6,6.35,1.75,9.65A.91.91,0,0,1,598.76,1085.11Z" transform="translate(-373.66 -886)"/><path class="cls-53" d="M571.77,1083.2l-2.78,10-3.93,12.37A33.85,33.85,0,0,1,571.77,1083.2Z" transform="translate(-373.66 -886)"/><path class="cls-54" d="M552.83,1090.54c-4.87-2.33-11.23-1.2-14.83-6.44,5.55.51,10.9,6.21,16.67.61C558.48,1088,553.4,1088.58,552.83,1090.54Z" transform="translate(-373.66 -886)"/><path class="cls-55" d="M568.39,964.74,561.86,967c.22-3.34,4-5.6,2.79-9.38C569.15,958.27,572.34,959.65,568.39,964.74Z" transform="translate(-373.66 -886)"/><path class="cls-56" d="M457.5,906.89l3.29,3.1c1.53,3.62,1,6.81-2,9.51a3.05,3.05,0,0,1-3.26-.11c-2.64-4.06-.82-7.62,1.26-11.14A1,1,0,0,1,457.5,906.89Z" transform="translate(-373.66 -886)"/><path class="cls-57" d="M456.83,908.25c-.74,3.58-1.93,7.13-.77,10.85a2.81,2.81,0,0,1-1.21,3.85L450,919.37Z" transform="translate(-373.66 -886)"/><path class="cls-58" d="M522.55,1050.12l-5.64-1.67a4,4,0,0,1,0-3.9c.94-1.7,2.67-2.38,4.24-3.28,4.08,1.42,2.74,4.49,2.23,7.31A1.45,1.45,0,0,1,522.55,1050.12Z" transform="translate(-373.66 -886)"/><path class="cls-59" d="M677.18,1047.13c1.29-3.7,3.83-5,7.62-4.06l-4.51,7.07C678.76,1049.64,677.5,1048.86,677.18,1047.13Z" transform="translate(-373.66 -886)"/><path class="cls-60" d="M697,1044.51l5.13,3.61L701,1052l-5.54-1.55q.36-2.17.71-4.33A1.49,1.49,0,0,1,697,1044.51Z" transform="translate(-373.66 -886)"/><path class="cls-61" d="M530.31,974.54l3.76,1.14c1.18,3.16.86,5.87-2.31,7.74-4.08-1.47-2.63-4.6-2.22-7.41A1.37,1.37,0,0,1,530.31,974.54Z" transform="translate(-373.66 -886)"/><path class="cls-62" d="M725,1120c1.42-2.81-1.23-4.32-2.06-6.41,9.1,2.58,3.85,6.74,1.17,10.62Z" transform="translate(-373.66 -886)"/><path class="cls-63" d="M559.49,955.57c-4.62-1.68-10.17-1.11-13.61-5.63C550.67,951.2,555.57,952.2,559.49,955.57Z" transform="translate(-373.66 -886)"/><path class="cls-31" d="M529,1072.84c-3.41-.94-7.35-.74-9.54-4.36C523,1069.18,526.43,1070.13,529,1072.84Z" transform="translate(-373.66 -886)"/><path class="cls-64" d="M670,1150.2c.43,3.94,3.24,5.36,6.59,6.19,4.56,5.92,12.55,6.53,17.72,11.51,1.1,4.11,7.5,2.32,7.89,6.74.3,3.34-1.05,6.49-3.21,9.29-2.89,3.73-5.6.86-7.91-.29C678,1177.11,665,1170.31,652,1163.57c-5.34-2.77-5.7-6.73-3-11.72,3.17-5.84,6-11.85,9-17.79,2.84-1.34,4.53.52,6.29,2.22C668.42,1140,670,1144.77,670,1150.2Z" transform="translate(-373.66 -886)"/><path class="cls-62" d="M718.22,1122.29c-1.41,9.1-5.45,12.4-13.88,6.43-5.83-4.13-12.63-5.94-19.39-7.79-4.41-3.45-11.09-3-14.36-8.42l1.71-5.8c13,3.76,26.17,6.91,38.58,12.45C713.32,1120.24,715.78,1121.24,718.22,1122.29Z" transform="translate(-373.66 -886)"/><path class="cls-44" d="M670.6,1112.5c4.93,2.55,12.46.69,14.36,8.42-5.78,3.89-7.25,10.17-9,16.29l-2.5,1.38c-1.73.48-3.79.16-4.48-1.14-2.32-4.35-3.92-1-5.77.24l-5.22-3.63C662.76,1127.2,664.69,1118.69,670.6,1112.5Z" transform="translate(-373.66 -886)"/><path class="cls-1" d="M434.66,1013.84a36.37,36.37,0,0,1,2.45-3c4-4,1.56-15,12-11.7,13.52,4.28,18.89,12.43,16.73,23.82-.8,6.06-5.42,8.91-10,11.84-8.06,3.32-15.44,1-22.65-2.74C426.1,1024.86,426.3,1022.35,434.66,1013.84Z" transform="translate(-373.66 -886)"/><path class="cls-65" d="M474.62,991.86c-2.13,3.95-.66,8.22-.34,15.33-14-12.23-29-16.79-44.55-20.09-.16-2.88,1.52-4.76,3.51-6.48,5.92-3.09,12.24-1.45,18.43-1.6a13.07,13.07,0,0,1,7.37,2.85C462.65,987.67,471.22,985.74,474.62,991.86Z" transform="translate(-373.66 -886)"/><path class="cls-29" d="M511.37,966.88c-4.58,5.4-6.12,12.77-11.47,17.67-6.36.83-10.85,8.3-18.33,5.14,1-5,4.58-9.08,4.78-14.33,5.13-6.84,6.92-15.09,9.62-23C504.55,953.55,505.88,962.43,511.37,966.88Z" transform="translate(-373.66 -886)"/><path class="cls-66" d="M487.49,976.69c2.06,6.17-1.42,9.82-5.92,13l-6.94,2.17c-5.22-3.38-14.15,0-16.31-9,3.75-2.38,7.59.06,11.38-.27,6.27,1,9.57-2,10.63-8a4.28,4.28,0,0,1,3.62-2C486.19,973.05,487.19,974.57,487.49,976.69Z" transform="translate(-373.66 -886)"/><path class="cls-67" d="M434.66,1013.84c.37,5.51-10.07,10.7-.5,16.5,1.77,4.46,6.47,3.36,9.66,5.12,2.47,1.37,7.37.4,5.76,5.84-15.92,2.21-28.82-6.27-28.6-18.76a20.33,20.33,0,0,1,6.23-9.84l1.54-.66Z" transform="translate(-373.66 -886)"/><path class="cls-68" d="M456,1032.51l9.82-9.6,6.62-2.22a12.6,12.6,0,0,1-2.72,11.61,31.19,31.19,0,0,1-4.4,4.06c-3,2.08-5.72,5.32-10.11,3.4C452.51,1037,455.93,1034.94,456,1032.51Z" transform="translate(-373.66 -886)"/><path class="cls-69" d="M425,996.21c7,3.92,11.8,8.34,3.77,15.82h0c-8.3-.08-8-5.94-7.82-11.67C421.83,998.57,422.8,996.81,425,996.21Z" transform="translate(-373.66 -886)"/><path class="cls-70" d="M467.13,1031.74c3.35-2.93,4.22-7.06,5.35-11.06l8.08-6c-.61,1.83-.69,4.23-1.93,5.39-7.11,6.65-1.08,8,3.76,9.87l-.56,1.94-.57,1.94c-3.41,1.83-7,.69-10.47.49A5.06,5.06,0,0,1,467.13,1031.74Z" transform="translate(-373.66 -886)"/><path class="cls-71" d="M425,996.21c-.51,1.58-1.27,2.93-3.07,3.31-.89.62-1.52.4-1.94-.57-.08-7.13,1.72-13.22,9-16.29,1.25-1.56,2.66-2.24,4.44-.8l-3.64,5.24C427,989.54,425.75,992.75,425,996.21Z" transform="translate(-373.66 -886)"/><path class="cls-64" d="M515.83,1073.41c7.19,11.16,19,14.25,30.67,17.44-.18.64-.34,1.29-.56,1.92-4.77,14.09-5.8,14.83-18.81,9-11.78-5.28-23.16-11.44-34.78-17.08-6.48-3.14-9.15-6.71-4.15-13.73,3.4-4.78,5.29-10.63,7.85-16,4.94-1.48,6.16,2.64,8.11,5.5s1.9,6.39,4.55,8.71A13.56,13.56,0,0,0,515.83,1073.41Z" transform="translate(-373.66 -886)"/><path class="cls-72" d="M508.74,1069.18c-6.94-2.31-5.75-11.88-12.67-14.21,2.7-2.46,4-5.66,4.78-9.12l9.79-11.85c3.68,2.68,6.77,5.78,7.41,10.59l-1.14,3.87-.58,1.94c-5.35,3.29-11.15,6.32-8.41,14.36Z" transform="translate(-373.66 -886)"/><path class="cls-73" d="M454.59,1038.56c4.22,1.68,6.28-2.4,9.45-3.53,5.73-.79,9.11,1.82,10.49,7.29-7.89,12.21-19.47,14.39-32.52,11.39-11.45-2.63-22.14-7.22-32.74-12.47-8.83-4.37-10-9.11-5.23-16.77,1.58-2.55,2.95-5.23,4.41-7.85,6.25-2.18,11.41-.68,15.48,4.55-2.46,5.83-1.33,9.67,5,12.58,6.86,3.16,13.26,7.06,21.23,5.6C451.41,1037.87,452.78,1037,454.59,1038.56Z" transform="translate(-373.66 -886)"/><path class="cls-74" d="M423.93,1021.17l-15.48-4.55.57-1.95c10.68-.35,7-10.69,10.93-15.72l1.94.57c1,4.87,1,10.3,6.84,12.52Z" transform="translate(-373.66 -886)"/><path class="cls-75" d="M474.54,1042.32,464,1035l3.08-3.29,3.87,1.12c3.58.58,9.65-1.52,6.61,6.16C477.1,1040.6,476.34,1041.95,474.54,1042.32Z" transform="translate(-373.66 -886)"/><path class="cls-76" d="M477.61,1039c.89-5.37-3.67-4.9-6.61-6.16,3.66-2.43,6.85.42,10.25.91C480.56,1035.89,480.29,1038.29,477.61,1039Z" transform="translate(-373.66 -886)"/><path class="cls-77" d="M614,1119l2.5-1.31c5.27.29,8.78-4.23,13.67-5,3.7-.84,7.57-2.81,10.49,1.54-2.2,4.09-3.8,8.68-6.69,12.2-14.47,17.61-28,17.27-47,6.19-16.91-9.88-19.3-20.15-14.07-38.3h0c9.77-1.66,10.7,6.15,13.18,12.3C592.32,1120.53,601.78,1124.72,614,1119Z" transform="translate(-373.66 -886)"/><path class="cls-78" d="M640.65,1114.23c-3.83-2-7.26.18-10.82,1-1.39-5.15,2.52-7.1,5.7-9.5,3.76-1,5.89-5.35,10.26-5.2,2.18,2.52,1,4.57-.92,6.51C643.8,1109.65,644.08,1113,640.65,1114.23Z" transform="translate(-373.66 -886)"/><path class="cls-14" d="M644.86,1107.06c.55-2.15,1.63-4.32-.23-6.39.39-3.26,2-4.29,5-2.73l-2.27,7.75Z" transform="translate(-373.66 -886)"/><path class="cls-79" d="M636.54,1106.72l-6.72,8.54c-4.73-.76-7.73,7.94-13.33,2.45,6.89-3.83,8.25-12,13.44-17.15,4.25-4.85,7-11.94,15.6-10.14C647.76,1098.74,640.64,1101.89,636.54,1106.72Z" transform="translate(-373.66 -886)"/><path class="cls-80" d="M665.11,1066.72l-2.27,7.75c-6.52,1.07-9.45,6.71-13.67,10.71l-2.39-13.32,1.94.56C654.79,1072.27,657.9,1063.59,665.11,1066.72Z" transform="translate(-373.66 -886)"/><path class="cls-81" d="M636.54,1106.72c1.3-6.37,8.53-9.46,9-16.29l3.08-3.3c13,2.4-1.67,7.44,1,10.82a6.94,6.94,0,0,0-5,2.73C642.92,1104,641.31,1107.48,636.54,1106.72Z" transform="translate(-373.66 -886)"/><path class="cls-82" d="M432.35,971l10.11-20.18,0,0c6.55,1.09,11.07,4.55,13,11.1-1.57,6.22-3.19,12.4-8.84,16.44C440.83,977.93,433.84,979.79,432.35,971Z" transform="translate(-373.66 -886)"/><path class="cls-83" d="M432.35,971c3.63,5.27,10,4.13,14.93,6.48,2.45-.43,3,1.15,3.3,3.07l-17.19,1.27-4.44.8Q426.25,975.55,432.35,971Z" transform="translate(-373.66 -886)"/><path class="cls-84" d="M750.78,1068.72l-.54,2c-7.14,11.62-7,11.34-18.84,5-7.61-4-14-11.85-24.16-9.26-3.68-1.76-8.68-.82-11-5.35C714.85,1060.47,732.48,1067,750.78,1068.72Z" transform="translate(-373.66 -886)"/><path class="cls-85" d="M697.3,1093c-6.1,1.47-14,1.1-11.67,11.28-6-3-8.1-8.64-3.83-12.9S692.64,1087.41,697.3,1093Z" transform="translate(-373.66 -886)"/><path class="cls-86" d="M586.05,1106.63c-3.94-4.58-6.18-11-13.18-12.3,2.35-7.24,8.42-12.6,10.13-20.16l8.07-6c2,4.22,1.62,8.88,2.4,13.33l-1.14,3.88A31.63,31.63,0,0,0,586.05,1106.63Z" transform="translate(-373.66 -886)"/><path class="cls-87" d="M626.35,1019.57c-3,6.16-7.85,11.38-9.56,18.23-6.48,1.86-11.5,7.63-18.88,7.08,2.94-6.95,5.67-14,10.14-20.18C613.56,1020.92,619.18,1017.47,626.35,1019.57Z" transform="translate(-373.66 -886)"/><path class="cls-14" d="M593.47,1081.45c-4.35-3.8-4.43-8.37-2.4-13.33l4.78-9.11c1.85-8.45,6.35-6.75,11.39-3l-9.56,18.24A13.54,13.54,0,0,1,593.47,1081.45Z" transform="translate(-373.66 -886)"/><path class="cls-88" d="M607.24,1056c-4.31-1-8.68-2.2-11.39,3-3.07-5.26,3.32-9.14,2.05-14.13,6-3,11-9,18.89-7.08C613.77,1044,608.92,1049.17,607.24,1056Z" transform="translate(-373.66 -886)"/><path class="cls-89" d="M626.35,1019.57,608,1024.7l1.69-5.8,3.64-5.23c5.61-1.93,11.26-3.45,17.18-1.32l0,.09Z" transform="translate(-373.66 -886)"/><path class="cls-33" d="M531.77,983.42l2.31-7.74,1.92.58c1.82,6.86,9.59,7.3,13.21,12.23-3,6.19-7.85,11.39-9.53,18.26-2.68.72-3,3.13-3.65,5.24-12.07,1-15.33-3.17-10.71-13.68C525.91,992.67,530.16,988.62,531.77,983.42Z" transform="translate(-373.66 -886)"/><path class="cls-90" d="M525.31,998.31c-4,10.51,4,11.56,10.71,13.68-1.05,1.68-2.62,3.24-3.08,5.06-2.21,8.94-7.67,9.77-15,6.46-1.14-.46-.8-1.73-1.37-2.51h0c-1.09-6.63,4.8-11.21,5.11-17.43C522.35,1001.45,522.64,999.05,525.31,998.31Z" transform="translate(-373.66 -886)"/><path class="cls-45" d="M516.55,1021l1.37,2.51c-1.59,6.4-5.92,13.3,3.2,17.77-.51,1.58-1.27,2.92-3.07,3.3-2.83-3.28-6.26-6.14-7.41-10.59C511.41,1029.11,514.13,1025.13,516.55,1021Z" transform="translate(-373.66 -886)"/><path class="cls-91" d="M665.11,1066.72c-5.89.67-9.8,7.06-16.4,5.7,7.91-6.28,14.32-14.55,24.25-18.12Z" transform="translate(-373.66 -886)"/><path class="cls-92" d="M458,919.65,460.8,910c1.59.48,2.92,1.23,3.32,3a135.82,135.82,0,0,0,29.81,13l8.6,6.7c3.26,3,6.71,5.82,7.39,10.6-2.27,4.76-5,.46-7.52.4-6.19-2.82-11-7.62-16.2-11.75-5.73-3.68-12.17-5.06-18.78-5.79-3.67-.41-7.27-.74-10-3.68A1.87,1.87,0,0,1,458,919.65Z" transform="translate(-373.66 -886)"/><path class="cls-93" d="M493.93,926c-11.3-.48-20.67-7-31.13-10.12-1.2-.36.08-2.21,1.32-2.88C475.16,914.83,484.21,921.19,493.93,926Z" transform="translate(-373.66 -886)"/><path class="cls-94" d="M549.2,988.49a83.79,83.79,0,0,0-8.39-2.39c-6.25-1.13-7-4.73-4.82-9.84l1.16-3.93c7.65,3.95,14.64.9,21.65-2l-1.73,5.81C554,979.93,550.67,983.62,549.2,988.49Z" transform="translate(-373.66 -886)"/><path class="cls-95" d="M559.95,966.41l-.67,1.91c-2.82-.91-5.17.79-7.73,1.35-3.23.7-7.1,2.13-9.35-1-2.42-3.41-.14-7.27,1.7-10.23,2.43-3.92,6.09-1.11,9-.22C556.78,959.36,560.5,961.2,559.95,966.41Z" transform="translate(-373.66 -886)"/><path class="cls-96" d="M458,919.65l-.55,1.92c5.39,5.38,12.94,1.64,19,4.52,3.86,1.85,8.59,1.49,12,4.58,5.35,3.5,9.35,8.92,15.72,10.94,2.13,3.37,6.07,5.08,8,8.64,1.85,2.07.79,4.23.22,6.38-4.94,2.07-5.42,2.33-8.2-2.79-3.31-6.1-8-10.64-13.31-14.8a35.37,35.37,0,0,0-25.3-7.85,25.76,25.76,0,0,1-2.93.15c-3.24-.41-7,.91-9.37-2.59l1.66-5.82,1.2-3.85Z" transform="translate(-373.66 -886)"/><path class="cls-97" d="M454.31,960.66l-11.82-9.79c2.61-6.38,4.9-12.92,9.54-18.24,3.28-3,7.58-2.07,11.41-3h0c2.06-.86,3.83.13,5.64.87a2.94,2.94,0,0,1,.22,2.71c-1.43,1.54-3.45,1.78-5.31,2.41-13.24,4.43-14.27,7.12-7.29,18.79a6.15,6.15,0,0,1-.26,4.27A4.85,4.85,0,0,1,454.31,960.66Z" transform="translate(-373.66 -886)"/><path class="cls-57" d="M463.43,929.67c-3.45,2.36-7.61,2-11.41,3l1.18-3.87Z" transform="translate(-373.66 -886)"/><path class="cls-98" d="M507.92,1064.75c-5.07-9.75-4-11.63,8.41-14.36Z" transform="translate(-373.66 -886)"/><path class="cls-99" d="M511.37,966.88c-8.23-1.61-9.91-9.65-14.54-14.79-3.46-2.41-5.71-5.28-3.69-9.76,7.36.07,8,6.82,10.82,11.2,2.39,3.69,4,8,9.7,5.61l3.48,1C517.37,964.25,514,965.29,511.37,966.88Z" transform="translate(-373.66 -886)"/><path class="cls-100" d="M630.55,1012.35c-5.6,2.08-11.3,2.94-17.18,1.32l1.7-5.83c.51-1.58,1.28-2.92,3.08-3.31,4.91-1.67,9.82-2.56,14.7.13Z" transform="translate(-373.66 -886)"/><path class="cls-101" d="M632.86,1004.67c-4.91.94-9.82,2.15-14.7-.13,1.7-5.77,2.74-12.21,11.25-11-.32,4.66,2.26,6.92,6.49,7.8C635.4,1002.93,634.64,1004.27,632.86,1004.67Z" transform="translate(-373.66 -886)"/><path class="cls-102" d="M663.21,1137.69c4.27-9.4,6.85.38,10.25.9L670,1150.2Z" transform="translate(-373.66 -886)"/><path class="cls-56" d="M512.09,950.26c-4.73-1-6.52-4.66-8-8.64,2.13-.08,3.23,3.38,5.83,1.69l2.74,5Q512.37,949.29,512.09,950.26Z" transform="translate(-373.66 -886)"/><path class="cls-57" d="M513.65,959.15c-4,5.77-6.69,3.1-9.63-1.2-3.52-5.14-4.29-12.25-10.77-15.3-8.61-2.39-17-5.24-23.94-11.19l-5.88-1.78c15.8-2.94,32.24,5.11,40.83,19.27,1.82,3,1.16,9.66,8.05,7.7Z" transform="translate(-373.66 -886)"/><path class="cls-103" d="M454.59,1038.56l-4.45.79c-6.46-2.2-13.7-2.67-18.55-8.4,0,0,.34-.57.56-.6a15.86,15.86,0,0,1,2,0c7.12,2.39,14.22,5,21.87,2.18C458.85,1035.31,455.88,1036.74,454.59,1038.56Z" transform="translate(-373.66 -886)"/><path class="cls-104" d="M454.31,960.66l.64-2c6.4-.19,4.59,4.32,4.54,7.84-1.3,4.45-2.67,8.92,3,11.63,2.66,2.1,6.51,2.66,8.06,6.19-4.43,2.5-8.13-1-12.19-1.48l-7.74-2.28-3.3-3.07C448.09,971.26,452.19,966.37,454.31,960.66Z" transform="translate(-373.66 -886)"/><path class="cls-105" d="M456.67,968.17c-.09-3.25,3.41-7.15-1.72-9.48l1.11-3.84c1.76-8.61,3.79-17.06,12.59-21.55l.67-1.85c8.75,2.1,17.35,4.5,23.94,11.19l3.57,9.45c.69,9.64-2.76,17.71-9.34,24.6l-3.83-3.55c-1.18-4,1.51-7,2.72-10.32,1.79-5,2.13-9.64-1.47-14.08-6-7.4-11.07-6.76-16,1.4C465.14,956.33,465.1,965.15,456.67,968.17Z" transform="translate(-373.66 -886)"/><path class="cls-1" d="M456.67,968.17c4.29-8.23,9-16.27,12.7-24.76,2.31-5.3,5.07-5,9.3-3.08,14.21,6.33,15.79,16.42,5,32.81l-2,2c-5.3,7.88-12.33,8.35-20.32,4.74C453.24,978.63,453.4,974,456.67,968.17Z" transform="translate(-373.66 -886)"/><path class="cls-106" d="M461.37,979.92c7.33.82,14.25-.16,20.32-4.74.28,7.93-2.94,11.61-11.17,9.18C467.42,983,463.41,983.48,461.37,979.92Z" transform="translate(-373.66 -886)"/><path class="cls-56" d="M488.38,930.68c-7.45-1.78-14.48-5.14-22.48-4.88-3.07.1-6.84-.47-8.49-4.23,7.58,2.77,16,1.37,23.47,4.77C483.53,927.56,487,927.31,488.38,930.68Z" transform="translate(-373.66 -886)"/><path class="cls-107" d="M468.65,933.3l-12.59,21.55c-5.23-2.86-9-7.7-6.27-13C453.39,934.9,460.77,932.72,468.65,933.3Z" transform="translate(-373.66 -886)"/></g></svg>