<svg id="Calque_1" data-name="Calque 1" xmlns="http://www.w3.org/2000/svg" viewBox="0 0 230.21 1016.35"><defs><style>.cls-1{fill:#202020;}.cls-2{fill:#fff;}</style></defs><title>EPAY</title><path class="cls-1" d="M601.29,1294.71c6,2.43,10.62,6.51,15,11,5.32,5.43,10.39,10.91,12.43,18.62a42.93,42.93,0,0,0,5.77,12.27,20,20,0,0,1,3.19,7c1.82,9.21,6.45,17.78,5.34,27.67-.93,8.35-3.88,15.89-7.18,23.46-3.52,8.07-9.82,14.28-14,21.78-3.12,5.57-6.32,11.48-6.2,18.42a14.91,14.91,0,0,0,3.32,9.45c11.33,13.75,20.3,29.1,29.82,44.05,4,6.22,9,12.07,10.09,20.07.78,5.57-.65,10.19-3,14.8-3.21,6.31-9.45,9.41-14.62,13.71a88,88,0,0,1-25.27,14.5c-10.11,3.83-20.44,7.23-31.84,6-9.71-1-14.63-8.18-16.23-16.91-3.72-20.39-6.07-41-8.56-61.64-.39-3.23-1.47-4.78-4-6.25-10.64-6.07-21.2-12.25-32.08-17.91a30.72,30.72,0,0,1-10.52-9.74c-2.54-3.7-5.65-5-9.54-5.56s-5.92-2.44-4.84-6.65c.44-1.73.28-3.22-1.84-3.82-8.86-2.51-13.37-9.8-17.81-16.87-1.79-2.85-3.73-5.65-5.5-8.52-5-8.19-2.5-22.31,5.76-28,2.27-1.56,3.14-3,1.67-5.93-3.81-7.7-.07-23.72,8.1-30.56,1.93-1.62,2.62-2.81,2.1-5.57-2.41-12.73,3.94-24.53,15.65-30.24,1.84-.9,4.91-2.34,4.89-3.47-.11-4.75,2.67-9.14,1.54-13.9a2.29,2.29,0,0,0-2.31-1.49c-5.75-.44-11.38-1.6-17.26-1.42a218,218,0,0,1-26.2-1.11c-5.66-.51-7.11-3.59-5.28-9.18a200.71,200.71,0,0,0,7.48-33.14c.94-6.28,4.16-11.94,4.33-18.4.06-2.17,2.45-2.11,3.9-1.74,6.09,1.55,12.62.07,18.53,2.76,1.2.54,2.45.69,3.5-.61,12.2-15.19,26.53-28.54,37.11-45.2,7-11,14.09-21.92,21.16-32.87a225.63,225.63,0,0,1,15-20.89c2.11-2.57,2.57-5.87,4.95-8.13,1-.91-.27-1.71-.63-2.54-5-11.44-12.66-21.29-18.74-32.09-1.1-1.95-3.15-2.16-4.82-3.06-3.45-1.86-5-4.7-3.89-8.46,3-10.56,3.18-21.78,8.4-32.42-5.06.31-8.54,2.34-11.88,4.77-6.15,4.48-8.37,4.17-12.4-2.28-5.57-8.92-10.39-18.27-15.49-27.44-7.2-12.93-13.09-26.6-21.43-38.94-2.93-4.34-4.41-9.68-6.38-14.63-2.44-6.12-6.21-11.6-7.78-18.17-1.13-4.76,1-8.13,4-10.41a290,290,0,0,0,27.12-23.33c7.69-7.37,15.82-14.27,23.46-21.69,8.57-8.32,16.31-17.55,25.36-25.28,5.22-4.46,5.74-9.66,5.69-15.14-.09-12.25-.34-24.43.53-36.71.65-9.18-.44-18.76-.19-27.94.26-9.59-.47-19.31.76-28.91a21.39,21.39,0,0,0,0-4.38c-1.67-20.87,0-41.8-1.21-62.67-.45-7.83-.1-15.8-2.6-23.44-.82-2.51.78-4.41,2.61-5.74,2.54-1.84,3.6-4.34,4.61-7.17,5.71-16,11.32-32,18.21-47.47,4-9.07,6.26-18.53,7.73-28.32a106.51,106.51,0,0,0,1-21c-.18-3.9,2.19-5.21,6.23-3.66,2.69,1,3.75,3.2,4.2,6,3.56,22.6,10.26,44.33,19,65.37,3.63,8.71,8.31,17,12.78,25.4,3.56,6.66,6.32,13.74,10.79,19.92.35.49.69,1.5.45,1.82-3.6,4.77.72,10.5-1.9,15.37a4.59,4.59,0,0,0-.66,2.32c.7,9.74-1,19.37-1.35,29.07-.15,3.89-.46,7.77-.81,11.65a4.7,4.7,0,0,1-3.89,4.41c-7.08,1.8-12.12,7.93-19.88,8.32l.25,1.27,15.52,7c7.36,3.33,8.21,5.8,6.85,14-1.52,9.18-1.56,18.55-2.18,27.82-.47,6.87-.9,13.74-.71,20.59.24,8.83-.85,17.72.84,26.48.43,2.25-.54,4.14-.59,6.2-.22,8.28-2.07,16.52-.7,24.86.4,2.43-1.56,4.26-3,5.2-7.78,5-13.45,12.36-20.45,18.24-7.4,6.22-15,12.14-22.44,18.36-7,5.93-14.34,11.56-21.26,17.63-5.72,5-5.64,10.85-2.73,18.47,4.66,12.22,10.69,23.77,16.86,35.17a198.52,198.52,0,0,0,11.41,17.75,71.79,71.79,0,0,1,6.29,11.43c4.19,9.3,10.07,17.57,15.54,26.13,4.7,7.36,11,13.47,14.92,21.45,3.31,6.8,8.65,12.41,13.55,18.2,3.74,4.43,6.1,9.87,10.23,14,5.92,5.95,10.26,13.3,17,18.53,2.35,1.81,3.83,4,1.08,8-3,4.29-5.65,9.29-6.36,15-.6,4.82-4.24,8.56-6.34,12.84-4.41,9-7.09,18.68-11.9,27.5-5.8,10.63-10.66,21.78-16.67,32.28-3.83,6.69-5.53,14.16-9.12,20.89-1.81,3.39-2.65,7.26-5,10.5-1.34,1.87-1.47,3.44,1.81,3.65a101.44,101.44,0,0,1,17.08,3.1c2.9.7,3.65,2,3.78,4.63a28.37,28.37,0,0,1-1.22,9.62c-2.64,8.75-2.13,17.93-3.83,26.8-.43,2.27-1.35,4.3-1.92,6.48-2.29,8.87-3.08,9.25-11.61,7.05-7.7-2-15.37.35-23.06.63A35.2,35.2,0,0,0,601.29,1294.71Z" transform="translate(-461.08 -541.42)"/><path id="traits" class="cls-2" d="M610,1290.65c6,2.43,10.62,6.51,15,11,5.32,5.43,10.39,10.91,12.43,18.62a42.93,42.93,0,0,0,5.77,12.27,20,20,0,0,1,3.19,7c1.82,9.21,6.45,17.78,5.34,27.67-.93,8.35-3.88,15.89-7.18,23.46-3.52,8.07-9.82,14.28-14,21.78-3.12,5.57-6.32,11.48-6.2,18.42a14.91,14.91,0,0,0,3.32,9.45c11.33,13.75,20.3,29.1,29.82,44.05,4,6.22,9,12.07,10.09,20.07.78,5.57-.65,10.19-3,14.8-3.21,6.31-9.45,9.41-14.62,13.71a88,88,0,0,1-25.27,14.5c-10.11,3.83-20.44,7.23-31.84,6-9.71-1-14.63-8.18-16.23-16.91-3.72-20.39-6.07-41-8.56-61.64-.39-3.23-1.47-4.78-4-6.25-10.64-6.07-21.2-12.25-32.08-17.91a30.72,30.72,0,0,1-10.52-9.74c-2.54-3.7-5.65-5-9.54-5.56s-5.92-2.44-4.84-6.65c.44-1.73.28-3.22-1.84-3.82-8.86-2.51-13.37-9.8-17.81-16.87-1.79-2.85-3.73-5.65-5.5-8.52-5-8.19-2.5-22.31,5.76-28,2.27-1.56,3.14-3,1.67-5.93-3.81-7.7-.07-23.72,8.1-30.56,1.93-1.62,2.62-2.81,2.1-5.57-2.41-12.73,3.94-24.53,15.65-30.24,1.84-.9,4.91-2.34,4.89-3.47-.11-4.75,2.67-9.14,1.54-13.9a2.29,2.29,0,0,0-2.31-1.49c-5.75-.44-11.38-1.6-17.26-1.42a218,218,0,0,1-26.2-1.11c-5.66-.51-7.11-3.59-5.28-9.18a200.71,200.71,0,0,0,7.48-33.14c.94-6.28,4.16-11.94,4.33-18.4.06-2.17,2.45-2.11,3.9-1.74,6.09,1.55,12.62.07,18.53,2.76,1.2.54,2.45.69,3.5-.61,12.2-15.19,26.53-28.54,37.11-45.2,7-11,14.09-21.92,21.16-32.87a225.63,225.63,0,0,1,15-20.89c2.11-2.57,2.57-5.87,4.95-8.13,1-.91-.27-1.71-.63-2.54-5-11.44-12.66-21.29-18.74-32.09-1.1-1.95-3.15-2.16-4.82-3.06-3.45-1.86-5-4.7-3.89-8.46,3-10.56,3.18-21.78,8.4-32.42-5.06.31-8.54,2.34-11.88,4.77-6.15,4.48-8.37,4.17-12.4-2.28-5.57-8.92-10.39-18.27-15.49-27.44-7.2-12.93-13.09-26.6-21.43-38.94-2.93-4.34-4.41-9.68-6.38-14.63-2.44-6.12-6.21-11.6-7.78-18.17-1.13-4.76,1-8.13,4-10.41a290,290,0,0,0,27.12-23.33c7.69-7.37,15.82-14.27,23.46-21.69,8.57-8.32,16.31-17.55,25.36-25.28,5.22-4.46,5.74-9.66,5.69-15.14-.09-12.25-.34-24.43.53-36.71.65-9.18-.44-18.76-.19-27.94.26-9.59-.47-19.31.76-28.91a21.39,21.39,0,0,0,0-4.38c-1.67-20.87,0-41.8-1.21-62.67-.45-7.83-.1-15.8-2.6-23.44-.82-2.51.78-4.41,2.61-5.74,2.54-1.84,3.6-4.34,4.61-7.17,5.71-16,11.32-32,18.21-47.47,4-9.07,6.26-18.53,7.73-28.32a106.51,106.51,0,0,0,1-21c-.18-3.9,2.19-5.21,6.23-3.66,2.69,1,3.75,3.2,4.2,6,3.56,22.6,10.26,44.33,19,65.37,3.63,8.71,8.31,17,12.78,25.4,3.56,6.66,6.32,13.74,10.79,19.92.35.49.69,1.5.45,1.82-3.6,4.77.72,10.5-1.9,15.37a4.59,4.59,0,0,0-.66,2.32c.7,9.74-1,19.37-1.35,29.07-.15,3.89-.46,7.77-.81,11.65a4.7,4.7,0,0,1-3.89,4.41c-7.08,1.8-12.12,7.93-19.88,8.32l.25,1.27,15.52,7c7.36,3.33,8.21,5.8,6.85,14-1.52,9.18-1.56,18.55-2.18,27.82-.47,6.87-.9,13.74-.71,20.59.24,8.83-.85,17.72.84,26.48.43,2.25-.54,4.14-.59,6.2-.22,8.28-2.07,16.52-.7,24.86.4,2.43-1.56,4.26-3,5.2-7.78,5-13.45,12.36-20.45,18.24-7.4,6.22-15,12.14-22.44,18.36-7,5.93-14.34,11.56-21.26,17.63-5.72,5-5.64,10.85-2.73,18.47,4.66,12.22,10.69,23.77,16.86,35.17a198.52,198.52,0,0,0,11.41,17.75,71.79,71.79,0,0,1,6.29,11.43c4.19,9.3,10.07,17.57,15.54,26.13,4.7,7.36,11,13.47,14.92,21.45,3.31,6.8,8.65,12.41,13.55,18.2,3.74,4.43,6.1,9.87,10.23,14,5.92,5.95,10.26,13.3,17,18.53,2.35,1.81,3.83,4,1.08,8-3,4.29-5.65,9.29-6.36,15-.6,4.82-4.24,8.56-6.34,12.84-4.41,9-7.09,18.68-11.9,27.5-5.8,10.63-10.66,21.78-16.67,32.28-3.83,6.69-5.53,14.16-9.12,20.89-1.81,3.39-2.65,7.26-5,10.5-1.34,1.87-1.47,3.44,1.81,3.65a101.44,101.44,0,0,1,17.08,3.1c2.9.7,3.65,2,3.78,4.63a28.37,28.37,0,0,1-1.22,9.62c-2.64,8.75-2.13,17.93-3.83,26.8-.43,2.27-1.35,4.3-1.92,6.48-2.29,8.87-3.08,9.25-11.61,7.05-7.7-2-15.37.35-23.06.63A35.2,35.2,0,0,0,610,1290.65ZM538.13,931.91c3.85,7.75,6.54,15.69,11.89,22.3a111.53,111.53,0,0,1,13.53,22.16c2,4.12,4.9,7.6,6.77,11.76,3.76,8.34,6.86,17.13,11.76,24.76,6.62,10.32,11.67,21.4,17.52,32.08,8,14.59,17.63,28.09,26.69,42,3.14,4.81,6.56,9.58,10.19,14.13,2.76,3.46,1.74,7-.73,9.66-4.32,4.58-6.7,10.27-9.86,15.49-3.42,5.65-6.1,11.73-9.26,17.54-2.24,4.1-4.85,8-7.1,12.09-4.2,7.65-5.82,16.71-11.86,23.29-4.81,5.24-7.82,11.37-10.75,17.64-1.23,2.62-2.08,5.42-3.24,8.08s-3.32,2.71-5.3,1.62c-1.82-1-3.89-3.09-2.52-5.14,4.49-6.74,6.23-14.91,11.41-21.27,3.94-4.84,7.73-9.7,10.16-15.66,3.86-9.44,9.41-18.09,14-27.16,4.79-9.44,10.14-18.62,14.46-28.36,1.8-4.05,1.8-6.16-.59-9.3-9.5-12.46-17.67-25.82-25.86-39.14q-8.59-14-16.47-28.37c-3-5.39-6.81-10.48-8.89-16.12-4.07-11-9.77-21.05-15.49-31.14-4-7.13-7.5-14.56-11.81-21.59-3.63-5.94-9.5-10.13-12-16.82a79.4,79.4,0,0,0-5.6-12.12c-.76-1.3-1.14-2.06-2.8-1.79-6.85,1.12-13.83.71-20.7,2.41-3.39.84-3.32,1.86-2.61,4.33,2.2,7.61,5.83,14.7,8.92,21.91,4.73,11.05,11.08,21.44,16.75,32.08,5.81,10.91,11.47,22,18.48,32.32,1.73,2.55,3,3.6,6.17,2.16,5.87-2.65,11.67-5.57,18.07-6.87,3.43-.7,6.52,2.19,5.49,5.45a161.49,161.49,0,0,0-5.84,23.46c-1.15,7.29-4.34,14.23,2.43,21.54,6.46,7,11.2,15.77,15.68,24.3,2.85,5.42,10.26,9,7.25,17.34-.92,2.55-2.72,3.78-3.88,5.76-6.08,10.49-15,18.82-21,29.58-7.35,13.19-16.47,25.46-25.56,37.59-5,6.68-8.82,14.5-15.74,19.55-5.07,3.7-8.32,8.64-11.82,13.91a22.63,22.63,0,0,0,4.11,1.14c9.65.67,19.15,2.55,28.79,3.47s19.15,2.42,28.78,3.18c10.78.85,21.63-1.06,32.4.79,2.87.49,5.81.55,8.73.75,1.48.1,2.85.07,3.7-1.6,2.19-4.28,5.15-8.28,6.68-12.78a206.45,206.45,0,0,1,14.48-32.76c2.86-5.23,6.44-10.06,8.67-15.67,4.18-10.51,10-20.29,13.31-31.24,1.57-5.21,5.08-9.83,6.59-15,1.27-4.39,6.79-8.43,2.09-13.78,4-3.59-.16-6.44-1.76-8-6.87-6.54-12.13-14.25-18-21.59-9.59-12-17.78-25-26.8-37.36-2.56-3.51-5.48-6.75-7.78-10.49-7.93-13-13.88-27-22.3-39.69-2.07-3.11-4.78-5.76-6.51-9-8.22-15.56-17-30.85-22.51-47.7-.75-2.32-2-3.08-4.31-2.85C557.33,930.06,547.82,931,538.13,931.91Zm-6.19,505.74a15.66,15.66,0,0,0,4.81,5.14c8.33,6,18.71,8.46,26.43,15.68,1.59,1.48,4.42,3.35,7.42,3.06s3.77,1.48,4.48,4c2.53,8.86,3.13,18,4.07,27.09,1.4,13.52,3.51,26.94,5.47,40.36.68,4.64,2.12,9.94,8.15,11.5,9.17,2.36,18.11-.12,26.3-3.06,11.58-4.15,21.22-12.29,31.31-19.31,8.39-5.84,9.9-14.23,5.06-23.18s-10.36-17.53-15.85-26.14c-6.53-10.22-13.08-20.39-20.13-30.27-3.4-4.77-7.1-9.8-5-16.06s4-12.55,8.17-18a111.66,111.66,0,0,0,16.74-29.41c2.65-7.25,4.91-14.57,2.07-22.66-3.42-9.76-6.77-19.42-11.27-28.82-3.76-7.85-6.2-15.77-13.63-21.62-6.41-5-10.17-7.09-17.86-4.51a37.12,37.12,0,0,1-6.57,1.72,58.4,58.4,0,0,0-31.79,15.34c-5.34,4.9-11.17,10.08-10.74,18.61.28,5.48,3.14,6.85,8.37,5.84,10.64-2.05,19.18-8.23,28.43-13.06,3.64-1.9,7.75-2.36,11.72-2.93,2.32-.33,5.16.39,5.89,3.14s-.63,4.7-3.55,5.39c-.56.13-1.51.7-1.48,1,.5,4.85-2.59,8.84-3.15,13.39-1.93,15.81-1,31.93-5.87,47.45-2.19,7-1.4,14.79-4.31,21.82a13.48,13.48,0,0,0-.64,6.19c.54,6.5-2.75,11.27-8.55,14.19-2.69,1.35-5.08-.07-7.62.23-9.37,1.12-18.64.23-27.88-1.67C538.17,1437.54,535.31,1436.18,531.93,1437.65Zm77.74-842.12c-1,1.59-1.44,2.09-1.7,2.66-8,17.22-12.4,35.81-20.71,52.94-1.67,3.45-3.16,7.85-2.31,12.17,1.79,9.05.13,18.22,1.32,27.38,2.07,15.9-.28,32,.87,48,1,13.82-.57,27.86-.2,41.81.32,12.08-.94,24.14-1,36.18,0,10.61,1.26,21.24,1,31.89-.09,3.42,2.22,3.63,4.43,3.82,4.67.4,9.39.31,14,1.46,2.94.74,3.58-.44,3.38-3.25a77.06,77.06,0,0,1-.17-13c2.06-21,1.77-42.05,2.14-63.09.23-13-3.18-25.83-1.13-39.08,2.33-15.07,1.28-30.41.86-45.64-.24-8.73,2.64-17.31,1.4-26.1-1.14-8.05-.61-16.16-.08-24.17a99.25,99.25,0,0,0-2.1-27A41,41,0,0,1,609.67,595.53Zm7.65,139.22c.64,4.27-.42,7.36,0,10.68,1,7.74.31,15.56,1,23.41,1.06,12.8-.36,25.79-.36,38.7,0,12.42-.42,24.81-1.16,37.2-.4,6.66,2.83,10.21,9.45,10.75,4.5.37,9,.28,13.49.4,2.55.07,2.87-.58,3.42-2.54,1.21-4.34-.37-8.83.67-13.06,2-8.19.28-16.42.47-24.61.12-5.11,1-10.54,0-15.39-1.49-6.93-.3-13.63.26-20.25.64-7.56,1-15.1,1.19-22.66.2-7.35-2.39-11.07-9.09-14C630.46,740.78,623.88,739,617.32,734.75Zm1.61-145.68c-.27,3.55.23,6.16-.74,8-2.18,4.11-1.5,8.11-.65,12.19.65,3.09,2.22,6.1,2.3,9.18.31,11.17.49,22.38-.54,33.52-.94,10.19,2,20.41-.75,30.63-1.06,4-.94,8.39-.59,12.55.58,7,1.1,14,.22,21-1.45,11.47-.75,12.11,10.13,8.59a20.5,20.5,0,0,0,2.76-.93c13.6-6.68,13.6-4.8,15-19.88.74-8.2,0-16.61,2-24.57,4.27-16.4-2.57-30.27-10.42-43.25-4.94-8.17-7.8-16.82-11-25.48C624.15,603.87,623,596.64,618.93,589.07Zm-32.08,749.68c-2.84,2.87-7.47,2.45-6,7.06,1.81,5.77-1.57,9.8-4.69,13.49A57.33,57.33,0,0,1,570,1366c-2,1.75-2.71,3.26-.07,5.65,8.48,7.67,3.35,21.27-5.16,23.64-11.32,3.15-22.36,7.5-34.19,8.69-2.76.28-6.31,1.31-7.3,3.29-2.78,5.58-5,11.56-4.78,18.06.07,1.81,1.44,1.66,2.74,2,7.41,1.87,15.17.83,22.53,2.65,8.75,2.16,17.49,2,26.33,1.23,3.28-.28,5.58-1.3,5.95-5,1.24-12.42,4.17-24.53,7.16-36.61,1.69-6.84,1.17-13.82,1.92-20.7C586.14,1359.29,585.58,1349.64,586.85,1338.75Zm-63.74,32a103,103,0,0,0-22.37,3.57c-10.93,3-15.62,13.84-9.54,23.53a96.68,96.68,0,0,0,11.06,14.67c1.81,1.94,4.27,3.64,6.8,3,2.13-.5,1.77-3.52,2.63-5.36,2-4.25,2.86-9.52,7.62-11.75,2.86-1.34,6.2-1.69,9.35-2.37a263.45,263.45,0,0,0,30.72-8.46c2.66-.92,4.85-2.56,5.27-5.72.44-3.35-1.89-4.91-4.13-6.54a20.08,20.08,0,0,0-11.35-3.66C540.49,1371.36,531.8,1371.06,523.11,1370.74Zm23.76-448.07c4-.38,6.95-.29,9.71-1,5-1.3,9.78-3.35,15-1.27,1.51.6,2.65-.39,3.38-1.34,5.23-6.77,12.37-11.4,18.73-16.9,7.18-6.21,14.5-12.3,22.08-18s13.14-13,20.2-19.36c-6.06.45-11.55-1.8-17.28-1.81a10.51,10.51,0,0,0-6.17,1.8c-11.39,7.47-20.63,17.59-32.05,25.07C567.58,898.31,558.49,911,546.87,922.67Zm25.12,425a117.1,117.1,0,0,1-14.8,4.38c-6.71,1.35-15.67-3.07-16.26-9.64-.47-5.2-3.82-5.92-7.24-7.28-4.51-1.79-9.27-1.64-13.9-1.08-12.6,1.52-21.69,8.81-22.39,22.24-.41,7.81,3.16,10.53,10.34,8.13a7.11,7.11,0,0,1,1.85-.53c16-.66,31.92-2,47.81.86.85.15,1.5.45,2.08-.42C563.2,1358.72,569.19,1354.85,572,1347.66Zm30.69-486.22c-6.9-.41-12.63-1.23-18.3-1-8.21.38-13.5,6.39-18.94,11.57-8.24,7.85-16,16.17-24.22,24.08-9.93,9.6-20.51,18.53-30.49,29,4.26-.08,8,.21,11.56-.31,4-.57,8.27-1.11,11.61-3.06,4.35-2.54,7.87-6.49,11.78-9.78,6.17-5.19,10.52-12,16.58-17.43,9-8.06,19.12-14.7,28.17-22.67C594.19,868.55,598.06,865.36,602.67,861.44Zm-51.81,434.72c-8.84,1-17.84,2.56-25.49,6.83-7.1,4-15.48,7.83-16.08,18.36-.35,6-.92,6,4.76,4.84a1.68,1.68,0,0,1,.48,0c8.09.77,16.4-2,24.33,1.54,1,.45,2,1.07,2.83-.5,3.27-6.51,9.65-10.28,14.08-15.8a17.68,17.68,0,0,1,6.42-5.11c1.18-.53,3.37-.67,2.84-2.65-.47-1.76-.72-3.95-2.92-4.76C558.49,1297.52,555,1295.58,550.86,1296.16Zm15.8-19.79c-2.28-6.52-4.21-12.41-8.2-17.19a72.93,72.93,0,0,1-9.16-14.17c-5-9.85-11.24-18.26-24.33-17-3.07.31-3.37.91-1.9,3.27,7.85,12.6,15.44,25.38,23.75,37.67,1.62,2.4,2.71,6.75,7.24,6.55A43.92,43.92,0,0,1,566.67,1276.36Zm-28.23-2.72c-1.92-3.27-3.57-5.85-5-8.54-6.59-12.43-14.38-24.15-21.56-36.22-1.27-2.13-2.92-3.13-5.72-3.56-5-.77-9.87-.24-15-.42,2.32.76,2.88,2.71,3.76,4.61,1.7,3.64,3.22,7.66,5.9,10.48,8.24,8.66,14.25,19,22.12,28C527.46,1273.1,532,1274.15,538.43,1273.64Zm44.62-39.25c-4-.61-4.76,1-3.45,5.24a60.64,60.64,0,0,0,3.83,9.86c5,9.84,12.53,18,18.7,27.05,4,5.86,6.91,6.55,13.66,4.72,2.11-.57,2.22-1.11,1.18-2.89-7.34-12.53-14.72-25-21.79-37.72C592.49,1235.84,588.74,1234,583.05,1234.39Zm19.39.63a19.92,19.92,0,0,0,4.17,9.68,59,59,0,0,1,4.91,7.79c3.85,6.89,8.19,13.5,12.35,20.2,4,6.51,9.63,7.5,16.17,7.83,1.83.09,2.22-1,2.77-2.08.72-1.44-.29-2-1.42-2.5a7.65,7.65,0,0,1-3.45-4c-4.43-9.94-11.2-18.43-16.91-27.58-1.9-3-4.16-7.11-6.57-8.25A19.22,19.22,0,0,0,602.44,1235Zm-50.76-2.95c3.51,4.48,3.79,10.47,7.2,14.44,7.11,8.25,12.07,17.78,17.47,27.06,1.74,3,3.73,4.57,7.28,4.29a20.62,20.62,0,0,1,4.76.71c1.12.18,2.42.53,3.17-.49.88-1.2-.35-2.08-1-2.95-7.6-10.67-15.52-21.14-19.41-34-.68-2.26-2.32-4.24-3.63-6.28-.4-.62-1.24-1.46-1.79-1.4C561,1234,556.6,1232.16,551.68,1232.07Zm-38.53,39.87c-.29-2.89-2.58-4.09-3.55-6.1-5.1-10.55-14.06-18.35-20.23-28.15-.57-.9-2.3-3.65-2.75-1-1.19,7-5,14.41.49,21.21,2.52,3.13,5.65,5.75,8.42,8.68,3.46,3.66,7.26,6.08,12.65,4.89C509.64,1271.15,511.29,1271.74,513.15,1271.94ZM539,1282.68c-2.22-.08-5.14-1.06-6.48,0-1.72,1.35-1.3,4.45-1.37,6.89-.06,2.21.89,2.37,2.7,1.74a59.69,59.69,0,0,1,7.45-2.16c8.93-1.85,18.06-2,25.75,3.11,5.7,3.77,10.25,6.95,17.39,3.46,2.79-1.36,3.35-2.68,3.83-5.15.64-3.27-1.64-3.27-3.62-3.89-4.92-1.55-10.17.35-14.94-1.16C559.67,1282.33,549.18,1284.5,539,1282.68Zm105.61-19.15c1-5.8,1.54-11.33,3-16.76.91-3.33.17-6.36-4.49-6.84-5.22-.54-10.38-1.66-16-2.6C632.19,1247,638.79,1254.94,644.65,1263.52Z" transform="translate(-461.08 -541.42)"/></svg>