<svg id="Calque_1" data-name="Calque 1" xmlns="http://www.w3.org/2000/svg" viewBox="0 0 523.5 332"><defs><style>.cls-1{fill:#202020;}.cls-2{fill:#fecb35;}.cls-3{fill:#f49b37;}.cls-4{fill:#f49d36;}.cls-5{fill:#f4a635;}.cls-6{fill:#f39937;}.cls-7{fill:#fdd666;}.cls-8{fill:#f49e37;}.cls-9{fill:#f9c45d;}.cls-10{fill:#f9db87;}.cls-11{fill:#facc4c;}.cls-12{fill:#fbd056;}.cls-13{fill:#f6b934;}.cls-14{fill:#fbd56e;}.cls-15{fill:#fabe34;}.cls-16{fill:#f2a036;}.cls-17{fill:#f9c839;}.cls-18{fill:#f8b955;}.cls-19{fill:#faca43;}.cls-20{fill:#f7a837;}.cls-21{fill:#f9c733;}.cls-22{fill:#fbd669;}.cls-23{fill:#f0bd69;}.cls-24{fill:#fcd871;}.cls-25{fill:#f7b634;}.cls-26{fill:#fac832;}.cls-27{fill:#efb059;}.cls-28{fill:#fcd671;}.cls-29{fill:#fdd668;}.cls-30{fill:#f6b836;}.cls-31{fill:#f2a236;}.cls-32{fill:#fecb34;}.cls-33{fill:#f5b334;}.cls-34{fill:#fdd45f;}.cls-35{fill:#fdcb3a;}.cls-36{fill:#f6b637;}.cls-37{fill:#fbd054;}.cls-38{fill:#f4b535;}.cls-39{fill:#f4b334;}.cls-40{fill:#f5ab36;}.cls-41{fill:#fbc547;}.cls-42{fill:#fed356;}.cls-43{fill:#f6bb33;}.cls-44{fill:#f5b434;}.cls-45{fill:#fcdb7b;}.cls-46{fill:#f5b736;}.cls-47{fill:#fed96b;}.cls-48{fill:#f4b634;}.cls-49{fill:#faca3b;}.cls-50{fill:#f7b934;}.cls-51{fill:#fed047;}.cls-52{fill:#f5cd6e;}.cls-53{fill:#fbcd41;}.cls-54{fill:#f8d87b;}.cls-55{fill:#fcd052;}.cls-56{fill:#f8ba41;}.cls-57{fill:#f3b53a;}.cls-58{fill:#fed96d;}.cls-59{fill:#f6ba34;}.cls-60{fill:#f3ab35;}.cls-61{fill:#f2a835;}.cls-62{fill:#f5b534;}.cls-63{fill:#fad770;}.cls-64{fill:#fcd361;}.cls-65{fill:#f5c155;}.cls-66{fill:#fed355;}.cls-67{fill:#fed559;}.cls-68{fill:#f4ad35;}.cls-69{fill:#fcc748;}.cls-70{fill:#f4ba3e;}.cls-71{fill:#fbbd34;}.cls-72{fill:#fad265;}.cls-73{fill:#fada81;}.cls-74{fill:#f7ad44;}.cls-75{fill:#f2bc6f;}.cls-76{fill:#f3a735;}.cls-77{fill:#f4a744;}.cls-78{fill:#f8b256;}.cls-79{fill:#facc4f;}.cls-80{fill:#f4ae35;}.cls-81{fill:#fed669;}.cls-82{fill:#f3b134;}.cls-83{fill:#f1a735;}.cls-84{fill:#fbca4d;}.cls-85{fill:#f7ba44;}.cls-86{fill:#f6d371;}.cls-87{fill:#f6bc3c;}.cls-88{fill:#fedd79;}.cls-89{fill:#f9b137;}.cls-90{fill:#f3a535;}.cls-91{fill:#f5be3a;}.cls-92{fill:#f7d373;}.cls-93{fill:#fac582;}.cls-94{fill:#f4b434;}.cls-95{fill:#f4af3e;}.cls-96{fill:#fbc648;}.cls-97{fill:#f3b13e;}.cls-98{fill:#f0a635;}.cls-99{fill:#f1a535;}.cls-100{fill:#f6ab46;}.cls-101{fill:#fcc23e;}.cls-102{fill:#f5c75e;}.cls-103{fill:#f7c24b;}.cls-104{fill:#e9a533;}.cls-105{fill:#eeb05d;}.cls-106{fill:#f3b337;}.cls-107{fill:#fcc43e;}.cls-108{fill:#efb944;}.cls-109{fill:#fac74f;}.cls-110{fill:#f8bc3e;}.cls-111{fill:#9d792a;}.cls-112{fill:#e7aa3a;}.cls-113{fill:#eeb146;}.cls-114{fill:#f1ba33;}.cls-115{fill:#fac74a;}.cls-116{fill:#f3a736;}.cls-117{fill:#f39e36;}.cls-118{fill:#ec9e35;}.cls-119{fill:#ecb63f;}.cls-120{fill:#eaa134;}.cls-121{fill:#ee9537;}.cls-122{fill:#f0d070;}.cls-123{fill:#eb9c35;}.cls-124{fill:#e6a533;}.cls-125{fill:#ebb05d;}.cls-126{fill:#edcc79;}.cls-127{fill:#666;}.cls-128{fill:#5a5a5a;}.cls-129{fill:#eea636;}.cls-130{fill:#ef9d36;}.cls-131{fill:#f1ad34;}.cls-132{fill:#f2b234;}.cls-133{fill:#eca834;}.cls-134{fill:#f8be33;}.cls-135{fill:#fbc933;}.cls-136{fill:#e9bb31;}.cls-137{fill:#e9bc31;}.cls-138{fill:#eabb31;}.cls-139{fill:#eabc31;}.cls-140{fill:#efbe31;}.cls-141{fill:#f5c535;}.cls-142{fill:#f4c333;}.cls-143{fill:#efc031;}.cls-144{fill:#f3c333;}.cls-145{fill:#f7c634;}.cls-146{fill:#f8c633;}.cls-147{fill:#e9bb30;}.cls-148{fill:#edc445;}.cls-149{fill:#eec64f;}.cls-150{fill:#f8d15c;}.cls-151{fill:#f6c739;}.cls-152{fill:#fcc042;}.cls-153{fill:#f9d361;}.cls-154{fill:#f7c43f;}.cls-155{fill:#efbf31;}.cls-156{fill:#eebf32;}.cls-157{fill:#f5c532;}.cls-158{fill:#fbc833;}.cls-159{fill:#f6c532;}.cls-160{fill:#f2c334;}.cls-161{fill:#efc23d;}.cls-162{fill:#eebf33;}.cls-163{fill:#f6c432;}.cls-164{fill:#f1c232;}.cls-165{fill:#fecb33;}.cls-166{fill:#f5c433;}.cls-167{fill:#f1c33e;}.cls-168{fill:#ecbd31;}.cls-169{fill:#f2c53b;}.cls-170{fill:#f6c840;}.cls-171{fill:#f1c131;}.cls-172{fill:#f3b933;}.cls-173{fill:#fdca34;}.cls-174{fill:#edbe32;}.cls-175{fill:#f1c132;}.cls-176{fill:#f5c434;}.cls-177{fill:#ecbe33;}.cls-178{fill:#fed765;}.cls-179{fill:#f5ae38;}.cls-180{fill:#f8b236;}.cls-181{fill:#fbb83d;}.cls-182{fill:#f8c632;}.cls-183{fill:#f3c332;}.cls-184{fill:#fed14e;}.cls-185{fill:#fecd3d;}.cls-186{fill:#fed354;}.cls-187{fill:#edc857;}.cls-188{fill:#edc037;}.cls-189{fill:#efc54e;}.cls-190{fill:#ecc247;}.cls-191{fill:#fed048;}.cls-192{fill:#f6b834;}.cls-193{fill:#f1b134;}.cls-194{fill:#f0b054;}.cls-195{fill:#edbe31;}.cls-196{fill:#fab440;}.cls-197{fill:#efc138;}.cls-198{fill:#f4b341;}.cls-199{fill:#f5b134;}.cls-200{fill:#787878;}.cls-201{fill:#efaf54;}.cls-202{fill:#6d6d6d;}.cls-203{fill:#4d4d4d;}</style></defs><title>YELLOW_TEAM</title><g id="YELLOW"><path class="cls-1" d="M368.34,1079.66c-.11-3-.19-5.58-.3-8.15-.18-4.19.17-8.86,3.4-11.32,11.5-8.75,23.51-17.15,39.12-14.73,3.6.56,6.13-.43,8.94-1.77,10.72-5.13,22-9.36,32-15.72,9.14-5.85,18-12.16,27.5-17.47,15-8.37,23.46-5.63,30,9.93,9.58,22.72,19.31,45.38,28.59,68.22,2.26,5.57,4.77,5.69,9.54,3.32,11.85-5.89,12.2-5.84,6.89-17.36q-13.64-29.62-27.91-59c-6.18-12.66-4.12-20.68,8-27.45,5.82-3.25,11.61-6.56,17.54-9.58,11.5-5.86,20.14-2.77,25.19,9.13,9.86,23.23,19.86,46.41,29.14,69.88,3.16,8,7,5.68,12.23,3.18,5.6-2.67,7.3-4.77,3.58-11.26-9.58-16.71-15.74-34.68-17-54.28-1.93-29.56,20.79-52.59,47.49-55.59,6.35-.71,11.36-2.21,16.72-6.8,7.3-6.25,16.87-10,25.74-14.22,4.6-2.2,9.87-2.05,14,1.33,3.52,2.85,6.06,2.43,9.83.24,6.74-3.93,14-6.92,21.07-10.33,6.24-3,13.91-4,16.05-12.62.43-1.73,3.3-3.22,5.36-4.11a118.49,118.49,0,0,1,27.37-8.39c10.74-1.8,17.46,2.44,20.32,12.89q15,55,29.38,110.18c2.54,9.74-.5,16.1-9.31,21-8.62,4.77-17.54,9-26.19,13.68-5.41,2.94-12.9-1.49-15.9,1.52-3.56,3.57-5.22,9.45-10.64,11.73-9.07,3.82-18.07,7.9-27.4,11-7.77,2.55-14.87.27-20.05-6.68-12.94,26.77-35.52,38.55-63.42,33.18-.57,9.63-6.69,14.61-14.89,18.33-15.84,7.19-30.94,16.41-47.32,21.91-24.53,8.25-46.31,22.66-70.58,30.66-22.89,7.55-44.38,18.11-66.8,26.51-7,2.62-13.55,3.09-19.53-2.29-4.1,13.3-21.24,26.56-35.37,27.93-9.71.94-14.3-5-17.63-12.45q-8.39-18.64-15.94-37.66a26.74,26.74,0,0,0-7.38-10.43c-15.13-13.47-29.79-27.51-45.3-40.53-12.05-10.11-13-26.29,3.46-32.1,3.75-1.33,7-4.08,10.5-6.11C351.58,1069.4,356.24,1069.77,368.34,1079.66Z" transform="translate(-315.47 -884.36)"/><path class="cls-2" d="M683.92,968.22c1.87.64,2.67,2.18,3.28,3.89,3,3.56.65,5.78-2.15,7.45-3.63,2.16-7.37,4.25-11.68,4.86-2.64.28-5-.71-7.41-1.61-10-3.7-16-1.12-20.4,8.68a15.42,15.42,0,0,1-2,3.73c-4.83,2.94-9.68,5.78-11.26,11.92a4.29,4.29,0,0,1-4.34,3.43c-2.05-1.2-2.83-3.17-3.25-5.36,1.4-8.35,6.69-14.69,11.14-21.48a17.25,17.25,0,0,1,1.55-1.89c2.06-2,4-4.06,6-6.14,7.84-7.15,17.46-6.73,27-6.13C675,969.86,679.58,970.51,683.92,968.22Z" transform="translate(-315.47 -884.36)"/><path class="cls-3" d="M573,1109c3.46,3.38,3.66,8.44,6.28,12.25,2,2.86.19,4.05-2.17,5.16q-24.75,11.61-49.46,23.3c-3.21,1.52-5.19,1.18-6.61-2.54-3-7.83-6.38-15.5-9.61-23.24,2-2.58,4.23-1.74,6.45-.29a14.65,14.65,0,0,1,3.21,5c6,12.75,6.1,12.91,19,6.8,6.74-3.2,13.3-7,20.25-9.51,7.41-2.67,9.86-6.93,8.39-14.21C569.34,1109.64,570.63,1108.47,573,1109Z" transform="translate(-315.47 -884.36)"/><path class="cls-4" d="M639.85,1074.3c11.23,19.16,11.26,19.24-8.06,28.75-11.14,5.48-22.48,10.56-33.61,16.06-4.64,2.29-7.16,1.75-8.89-3.59-2-6.29-5-12.29-7.53-18.41a4.27,4.27,0,0,1,5-2A8.26,8.26,0,0,1,590,1099c6.34,13.71,5.59,12.06,19.3,6.25,6.88-2.91,13.36-7,20.34-9.52,7.75-2.83,9.77-7.12,6.83-14.41C636.25,1078.34,636,1075.32,639.85,1074.3Z" transform="translate(-315.47 -884.36)"/><path class="cls-5" d="M714.45,1038.66c1.45,15.51-6.94,30.48-20.32,36.26a19.91,19.91,0,0,1-10.79,3.43c-10,3.18-18.4-.73-25.94-6.68a62.84,62.84,0,0,1-15.58-18c1.5-2.66,3.72-2.31,6.06-1.47,3.35,1.92,5.46,5.12,8.07,7.81,7.31,7.53,15.22,13.26,26.78,10.68,13.2-2.94,21.9-10,24.37-23.79.46-2.55.59-5.22,2.28-7.4A4.36,4.36,0,0,1,714.45,1038.66Z" transform="translate(-315.47 -884.36)"/><path class="cls-6" d="M503.36,1131.7c4.31,5.24,5,12.22,8.43,17.87,2.28,3.7-.3,5.05-3.22,6.27-14.89,6.19-29.91,12.09-44.56,18.8-6.65,3-9.33,1.16-10.85-5.24a100.29,100.29,0,0,0-3.37-9.77,9.81,9.81,0,0,1-2.14-4.85c.26-1.61,1.4-2.17,2.83-2.4a3.55,3.55,0,0,1,2.42,1.07c2.3,2.75,3.09,6.42,5.5,9.1,2.27,3.56,5.39,4.19,8.89,2.17,8-4.61,16.95-7.08,25.4-10.55,7.84-3.22,9.88-7.52,7.85-15C501,1136.51,501.5,1133.85,503.36,1131.7Z" transform="translate(-315.47 -884.36)"/><path class="cls-7" d="M671.29,958.16c3.77,0,4.83,4,7.77,5.26,1.54,4.62-2.13,5.09-5,6-1.93.65-4,.09-6,0-12.81-.91-23.46,3.25-32.28,12.75-4,4.25-8,9.57-15.29,6.66a30,30,0,0,1,7-18.88,30.32,30.32,0,0,0,14-3.89C650.9,961,660.61,957.86,671.29,958.16Z" transform="translate(-315.47 -884.36)"/><path class="cls-8" d="M419.67,1168.86l3.09,7.63c2.56,2.87,2.1,7.13,4.63,10,1.42,2.36,2.65,4.51-1,6.26-4.92,2.35-9.43,5.89-14.56,7.39-6.16,1.79-4.43-4.72-6.18-7.59-2.8-3.44-2.4-8.29-5.19-11.73l-3-7.71c-2.27-2.95-2.87-6.51-3.72-10a3.33,3.33,0,0,1,3.74-2c3.32,1.93,4.21,5.42,5.54,8.63,3.46,5.05,5.19,10.83,7,16.58,1,1.93.36,5.65,4.54,4.19,3.94-1.91,4.64-4.76,2.67-8.53-2.55-4.87-4-10.17-5.76-15.35a54.91,54.91,0,0,0-3.48-9.29,6.26,6.26,0,0,1-.45-2.49,3.69,3.69,0,0,1,2.72-2.43,4.51,4.51,0,0,1,2.45.47l3,7.44C417.81,1162.8,417.54,1166.4,419.67,1168.86Z" transform="translate(-315.47 -884.36)"/><path class="cls-9" d="M444.7,1100.1c1.36,3.5,3.18,4.88,7,2.63,4.9-2.86,10.36-4.78,15.23-7.68,6.46-3.84,10.18-2.78,11.22,5a6.09,6.09,0,0,1-2.69,3.36c-7.86,4.66-15.42,10-24.86,11.18-10.47-1.56-12.09-3.17-12.15-12.06C439.9,1100,441.17,1097.14,444.7,1100.1Z" transform="translate(-315.47 -884.36)"/><path class="cls-10" d="M671.29,958.16c-3.33,4.43-8.55,2.13-12.79,3.37-8,2.34-14.81,7.4-22.82,9.58-2.85.78-6,3.11-8.13-1.18C636.85,956.78,656.57,950.17,671.29,958.16Z" transform="translate(-315.47 -884.36)"/><path class="cls-11" d="M730.85,955.63l-1.09-4.56a9.65,9.65,0,0,1,6.08-4.57c9.41-2.79,18.37-6.76,27.48-10.34,2.6,1.79,3.29,4.71,4.37,7.4,2.06,2.9,3.55,6.42-1.52,6.91a61.71,61.71,0,0,0-31.5,12.38c-.37.27-1.1,0-1.67-.13A13,13,0,0,1,730.85,955.63Z" transform="translate(-315.47 -884.36)"/><path class="cls-12" d="M620.56,988.81c7.14-.7,11.66-5.74,16.21-10.34,9-9.1,20.22-11.15,32.24-11,4,.06,8.21,1,10.05-4.09a9.27,9.27,0,0,1,4.85,4.79c-.39,6.95-5.38,4.38-8.87,4-11.23-1.16-22.32-2.06-32,5.63-1.8,1.86-4.31,3-5.51,5.48h0c-2.89,3.14-5.12,6.84-7.94,10-2.39,2.66-5.63,6.36-9,.61C620.39,992.23,619,990.54,620.56,988.81Z" transform="translate(-315.47 -884.36)"/><path class="cls-13" d="M463.21,1055.53c6,10.09,6,10.13-4.77,14.13-6.76,2.49-13.58,4.82-20.37,7.22-3.5,2.2-2.46,4.68-.45,7.23l2.47,6.06c2.51,3.41,1.93,5.91-2.17,7.39-11.39-8.23-11.33-20.72.1-28.06C446.73,1065.4,456.47,1063.18,463.21,1055.53Z" transform="translate(-315.47 -884.36)"/><path class="cls-14" d="M408.31,1066.58a442.35,442.35,0,0,1,49.33-23.17,4.83,4.83,0,0,1,1.63,4.59c-2.45,1.89-5.37,3-7.94,4.68-8.76,5-17,10.87-26.11,15.25-4.92,2.37-9.71,5.3-15.57,3.63l0,.08C408.54,1070.13,407.48,1068.61,408.31,1066.58Z" transform="translate(-315.47 -884.36)"/><path class="cls-15" d="M768.34,984.13c-5.43-6.38-8.84-14-12.92-21.21-4.79-.29-.58,3.17-1.81,4.36l.54,3.32c-1.31,2.64,4.84,8.19-3.2,8.21-3.36-2.68-4-6.71-5.24-10.47a32,32,0,0,1-1-11.74c2.57-4.55,6.71-4.88,11.24-4.16,2.91,1.77,4.13,4.93,6.13,7.45,2.67,3.57,4.58,7.61,7,11.36a18.9,18.9,0,0,1,2.71,7.67C771.71,981.38,771.32,983.61,768.34,984.13Z" transform="translate(-315.47 -884.36)"/><path class="cls-16" d="M766.12,1022.23c5.84,18.46,5.95,18.75-12.17,25.58-4.34,1.64-10.42,10.11-14.43-.91a8,8,0,0,1,4.11-3.69,67,67,0,0,1,10.35-3.53c6-1.51,8.57-4.87,6.84-11,.91-3.66-3.52-9.32,3.94-10.51A4.39,4.39,0,0,1,766.12,1022.23Z" transform="translate(-315.47 -884.36)"/><path class="cls-17" d="M756.05,953.42c-3.78-.35-7.66-1-9.92,3.27-2.39,4.75-4.14,9.61-2.55,15-.73,3.44,3.38,8.08-2.51,10.26-4.55-3.56-3.13-9.88-6.47-14-.79-1.7-2-3.32-1-5.36,7.59-9.53,18.13-12.84,29.65-13.73,3.79-.29,6.39-.68,4.43-5.34,4.36,3.69,4,10.16,8.25,13.92.41,3.22-1.62,4.61-4.19,5.6a6.54,6.54,0,0,1-1.81-1.46C767,956.1,761,955.61,756.05,953.42Z" transform="translate(-315.47 -884.36)"/><path class="cls-18" d="M639.85,1074.3a5.53,5.53,0,0,0-1.53,6c-10.72,10.36-23.67,13.79-38.21,12.24a13.2,13.2,0,0,1-4.33-3.63,62.86,62.86,0,0,1-6.24-10.64,19.28,19.28,0,0,1-1.6-8c1.3-4.49,3.26-5.28,6.08-1.06l2.54,6c2.79,2.68,1.62,7.45,5.14,9.74a3.64,3.64,0,0,1,1.5-.12c13.51,1.67,24.52-2.26,32-14.22C638,1070.26,639.35,1071.71,639.85,1074.3Z" transform="translate(-315.47 -884.36)"/><path class="cls-19" d="M790,900.43c3.52-1.86,3.78,1,4.29,3.11,1.42,5.84,2.68,11.72,4,17.58-1.42,5.41-6.18,8-9.77,11.55a7,7,0,0,0-3.12,6.54c-.14,2.05,0,4.18-1.57,5.83a3.16,3.16,0,0,1-3.7.06c-1.71-3.65-2.63-7.58-4-11.35-.09-7.7,7.06-10.48,10.77-15.57,2.34-3.21,5.67-5.69,4.83-10.28a31.28,31.28,0,0,0-.86-3.24C790.44,903.3,789.67,902,790,900.43Z" transform="translate(-315.47 -884.36)"/><path class="cls-20" d="M474.8,1101.31l3.39-1.27c3,.65,3,3.32,3.68,5.5,3.23,4.3,3.63,8-2.25,10.3l-6.15,2.49c-2.75,2.66-7,2.12-9.84,4.58-5.47,2.76-.15,6.14-.53,9.2,1.55,2.75,4.33,5.74-1.42,7-7-2.28-7.41-8.29-8-14.19,4.17-11.19,14.83-11.87,23.25-15.35C474.49,1107.94,473.36,1105.06,474.8,1101.31Z" transform="translate(-315.47 -884.36)"/><path class="cls-21" d="M787.5,932c2.51-4.73,7.34-7.16,10.84-10.92l1,3.4c.13,5.53,3.86,10.17,3.88,15.73l1.24,4.51a4.21,4.21,0,0,1-4,2.37c-3-2-6.75-.92-9.93-2.3C788.22,940.88,783.62,937.47,787.5,932Z" transform="translate(-315.47 -884.36)"/><path class="cls-22" d="M763.31,936.16c-4.57,7.33-12.83,7.66-19.81,10.35-4.5,1.73-9.16,3.06-13.75,4.56l-.95-3.42c.59-2.15-1.8-4.38.17-6.5,2.08-1.86,4.69-1.9,7.23-1.87A26.77,26.77,0,0,0,752.89,934c2-1.46,4.11-3.21,7-2.06C760.84,933.52,763.27,933.85,763.31,936.16Z" transform="translate(-315.47 -884.36)"/><path class="cls-23" d="M635.15,1070.62c-2.76,12.74-22.74,21.63-32,14.22C614.23,1081,623.47,1073,635.15,1070.62Z" transform="translate(-315.47 -884.36)"/><path class="cls-24" d="M698.36,934.18c4.25-2.53,3.83,1.51,4.89,3.47,4,10-4.91,20.58-17.33,20.65-2.35-1.29-2.76-3.89-4-5.94.82-5.69,6.77-6.6,9.7-10.36C693.76,939.3,696.59,937.19,698.36,934.18Z" transform="translate(-315.47 -884.36)"/><path class="cls-25" d="M764.42,1018.37c-5,2.47.76,7.06-2,10-4.5-2.47-4.5-7.08-5.21-11.26-.92-5.42-3.26-10.47-4-15.94.11-6.51-3.73-12.22-3.88-18.68a4.47,4.47,0,0,1,2.17-3.72c4.61-1.52.59-5.77,2.57-8.13,2.79,6.52,3.44,13.54,4.87,20.38-.31,4.38,3,8,2.69,12.34l1.65,6.39C762.54,1012.75,765.93,1015.26,764.42,1018.37Z" transform="translate(-315.47 -884.36)"/><path class="cls-26" d="M672.25,982.91c5.36-3.07,13.61-2.14,14.94-10.8,2,.82,2.63,2.65,3.33,4.45-.13,4.63,3.81,8.53,2.38,13.4A13.06,13.06,0,0,1,682,995.89C676,993.6,672.19,989.7,672.25,982.91Z" transform="translate(-315.47 -884.36)"/><path class="cls-27" d="M503.36,1131.7c.42,2.45,1.74,5.14-1.7,6.6-4.06,7.89-12,8.16-19.25,10-3.66-.52-8.07.75-10-4.07C482.5,1139.44,491.91,1133,503.36,1131.7Z" transform="translate(-315.47 -884.36)"/><path class="cls-28" d="M399.49,1062.21c3.95-2.69,6.21-2,6.34,3.12-.39,1.34.81,2.73-.14,4.05a1.32,1.32,0,0,1,.1,1.49c-2.63,8-9.6,6.77-15.58,6.9-4.25.09-6.8-2.46-6.31-7.14.46-3.35,3.48-2.92,5.62-3.79C392.36,1064.23,396.63,1064.74,399.49,1062.21Z" transform="translate(-315.47 -884.36)"/><path class="cls-2" d="M547.66,1024.3l-1.35-1.67c5.29-6.5,12.87-4.77,19.77-5.49a7,7,0,0,1,3.28,3.14c1.5,4,3.92,7.94.69,12.1-3.68,4.74-9,4.62-14.66-.17C552.74,1029.66,552.49,1024.75,547.66,1024.3Z" transform="translate(-315.47 -884.36)"/><path class="cls-29" d="M559.6,992.07c2.55,0,2.59,0,3.65,4.4a8.34,8.34,0,0,1,2.06,5.26c-3.55,8.5-8,12-15,11-5.57-.75-10.63-2.57-10.76-9.63l3-1.57C549.75,1001.08,556.43,999.72,559.6,992.07Z" transform="translate(-315.47 -884.36)"/><path class="cls-30" d="M586.93,1053.17l1.3,3.3c-1.76,2.56,1.2,5.9-1.38,8.33a2.41,2.41,0,0,1-2.5-.46c-2.08-2-2.93-4.73-3.85-7.37a63.73,63.73,0,0,0-5.52-11.81c-4-7-3.34-15.14-5.7-22.53a3.12,3.12,0,0,1,4-1.65c4.27,6.26,5.89,13.62,8.52,20.57C584.61,1044.91,584.17,1049.75,586.93,1053.17Z" transform="translate(-315.47 -884.36)"/><path class="cls-31" d="M823.06,1013.82c-7.45,6.05-16.31,9.75-25,13.29-7.28,3-6.62-5.73-9.55-9.2,1.79-1.88,3.82-2.63,6.3-1.38,3.68,2.58,6.92.37,10.28-.88,3.92-1.46,7.11-4.57,11.47-5C819.45,1010.3,821.21,1012.15,823.06,1013.82Z" transform="translate(-315.47 -884.36)"/><path class="cls-32" d="M463.21,1055.53c-3.21,12.74-15.46,11.24-24.16,15.33-2,1.61-4,3.49-5.93,0,7.27-10,16-17.53,29.4-16.92Z" transform="translate(-315.47 -884.36)"/><path class="cls-33" d="M647.81,1053.33l-6,.32a106.7,106.7,0,0,1-15.31-31.82,4.16,4.16,0,0,1,4.39-2.24,4.54,4.54,0,0,1,2.19,1.41c1.86,2.49,2.64,5.48,3.87,8.27a65.6,65.6,0,0,1,5.18,10.38c1.49,3.54,4,6.5,5.67,9.93A4.25,4.25,0,0,1,647.81,1053.33Z" transform="translate(-315.47 -884.36)"/><path class="cls-34" d="M685.92,958.3c12.37-5.09,18.33-12.18,17.33-20.65,5,4,4.12,11.36,8.67,15.65-4.59,4.64-10.87,6.34-16.42,9.3-2.61,1.39-5.62,1.5-7.9-1.19Z" transform="translate(-315.47 -884.36)"/><path class="cls-35" d="M405.18,1080.19l1.06,3.29a36,36,0,0,1-4.55,7.18c-3.55,3.31-3.63,7.53-3.14,11.9a49,49,0,0,1,.07,13.64c-.5,3-1.07,6.41-5.41,6.39a7.65,7.65,0,0,1-3-4.4,144.85,144.85,0,0,1-.94-21.73C392.48,1089,394.68,1080.52,405.18,1080.19Z" transform="translate(-315.47 -884.36)"/><path class="cls-36" d="M401,1088.92c1.27-2.27,2-5.07,5.23-5.44,2.25,13.87-.49,27.9,1.25,41.79-1.93,1.39-3.56.67-5.12-.7C398.36,1112.83,399.45,1100.88,401,1088.92Z" transform="translate(-315.47 -884.36)"/><path class="cls-37" d="M539.54,1003.11c6.67,10.78,14.69,10.38,25-1.24,3.35,3.32,4.42,7.33,2.18,11.45-2.87,5.28-8.18,5.32-13.37,5.1-3.94.18-6.82-2.28-10-4C541.18,1011,537.43,1008,539.54,1003.11Z" transform="translate(-315.47 -884.36)"/><path class="cls-38" d="M504.2,1050.77c4.27,6.37,6,13.78,8.62,20.83,2.86,3.38,2.41,8.23,5.18,11.65l.66,1.71c-1.57,3.22,2.27,7-1,10a2.78,2.78,0,0,1-2.53-.82c-4.38-5.29-4.08-12.7-8.26-18.07a33.13,33.13,0,0,1-3-6.71c-1.52-4.7-3.73-9.23-3.51-14.36A5.45,5.45,0,0,1,504.2,1050.77Z" transform="translate(-315.47 -884.36)"/><path class="cls-39" d="M768.34,984.13l2-4.25c1.4-.92,2.5-.25,3.57.66,3,3.33,4.85,7.45,7.55,11,2.82,5.7,8.18,10.27,7.8,17.41a4.2,4.2,0,0,1-5.18,1.26C777.49,1002.29,773,993.14,768.34,984.13Z" transform="translate(-315.47 -884.36)"/><path class="cls-40" d="M510.94,1122.81a205.67,205.67,0,0,1-13.06-28.75,7.14,7.14,0,0,1-2-5.43,3.79,3.79,0,0,1,3.91-1.58c7.17,4,7.27,12.49,11.58,18.32a32.72,32.72,0,0,1,2.78,9.75A9.69,9.69,0,0,1,510.94,1122.81Z" transform="translate(-315.47 -884.36)"/><path class="cls-41" d="M716.26,961c4.27,8.95,11.19,16.44,14.38,26,3.22,4.25.14,5-3.14,5.68-1.9-.37-3-1.72-3.94-3.24-2.64-4.57-5.28-9.14-8-13.69-1.68-4.66-4.59-8.85-5.22-13.91C711.9,958.47,714.25,961,716.26,961Z" transform="translate(-315.47 -884.36)"/><path class="cls-42" d="M452.33,1050c1.69-2.15,3.78-3.06,6.48-2.1a2.92,2.92,0,0,1,1.47,3.61c-13.6,6.32-24.32,17.18-37.66,23.92-2.64,1.34-5.21,2.46-8.24,1.86a14.16,14.16,0,0,1-2.64-1l-1.38-3.23C425.55,1067.5,439.33,1059.45,452.33,1050Z" transform="translate(-315.47 -884.36)"/><path class="cls-43" d="M692.61,989c-1.12-4.08-6.54-7.44-2.1-12.46a34.8,34.8,0,0,1,8.16,13.7c2.4,2.21,1.76,6,4.13,8.19l2.46,5.94a9.16,9.16,0,0,1,2,5.3,4,4,0,0,1-3.36,2.49,4.93,4.93,0,0,1-2.83-.7c-2.78-2.36-3.62-5.75-4.75-9C695.43,997.92,691,994.31,692.61,989Z" transform="translate(-315.47 -884.36)"/><path class="cls-44" d="M367.61,1133c-9.1-6.91-17.09-15-25.25-23,.9-1.89,2.54-2.4,4.46-2.42,10.36,6.22,20.64,12.54,25.8,24.3A4.91,4.91,0,0,1,367.61,1133Z" transform="translate(-315.47 -884.36)"/><path class="cls-45" d="M752.87,921.54c1-.78,1.7-.36,2.2.65,4.16,5.95,1.72,10.65-3.55,13.7-7.71,4.45-16.06,5.88-24.64,2a2.9,2.9,0,0,1-1-2.73.76.76,0,0,1,.32-1.21c1.34-2,3.65-2,5.63-2.63C740.3,931.15,748.12,929.63,752.87,921.54Z" transform="translate(-315.47 -884.36)"/><path class="cls-46" d="M411.75,1076.21l1.4-.43c2,1.15,4.42,1.16,6.25,2.65,6.33,9.9,12.8,19.74,15.29,31.5-3.84,4.46-4.78-2.25-7.55-2h.13c-2.34-2.17-1.72-5.83-4-8Z" transform="translate(-315.47 -884.36)"/><path class="cls-47" d="M790,900.43l2.42,2.46c-2.51,11.69-9.57,18-20,17.85-1.71-2.2-2.06-5-3-7.48,4.39-5.81,12.44-6.34,17.07-11.8Z" transform="translate(-315.47 -884.36)"/><path class="cls-48" d="M721.21,1016.5l-15.82-26a4.09,4.09,0,0,1,3.2-2.48c4-.15,5.22,3.33,7.28,5.7,3,3.77,5,8.12,7.58,12.17,1.34,2.19,2.65,4.39,3.86,6.67a4.8,4.8,0,0,1,.15,3.81C725.42,1018.13,723.3,1016.7,721.21,1016.5Z" transform="translate(-315.47 -884.36)"/><path class="cls-49" d="M697,976.83l-3.77-6.14c7.52-7.54,12-7.05,19.78,2.11,1.27,2.43,3.11,4.64,3.24,7.57-1.83,3.9-5.29,1.12-7.87,1.94a12.15,12.15,0,0,1-2.43-.17C702.28,981.58,701,977,697,976.83Z" transform="translate(-315.47 -884.36)"/><path class="cls-50" d="M799.58,946.39l4.91-1.63,2,6.76c.28,6.15,4.25,11.36,4.46,17.52l2.71,9.37a4.21,4.21,0,0,1-5.18,2,9.48,9.48,0,0,1-3.52-4.84,45.94,45.94,0,0,1-3.21-11.61C802.29,957.93,796.9,952.65,799.58,946.39Z" transform="translate(-315.47 -884.36)"/><path class="cls-51" d="M417.55,1078a3.23,3.23,0,0,1-4.41-2.19c8.2-1,15.12-5,21.71-9.63,8-5.65,15.66-11.84,25.13-15a2.7,2.7,0,0,1,1.94,1.15l.59,1.65c-11.34,2.77-20.28,9.64-29,16.92C429.6,1076.34,425.18,1080.74,417.55,1078Z" transform="translate(-315.47 -884.36)"/><path class="cls-52" d="M335.77,1096.44c5.17-3.05,10.11-8,15.56-8.65,6-.73,6.84,8,11.32,11.15,2.35,1.67,4.56,3.34,5.68,6.09-4.39,3.19-7.11-.64-10.32-2.42-4.69-7.22-11.69-4.55-18.15-4.18C338.23,1098.32,336.49,1098.42,335.77,1096.44Z" transform="translate(-315.47 -884.36)"/><path class="cls-53" d="M711.93,975.31c-4.3-9.32-11.09-8.54-18.67-4.62a1.39,1.39,0,0,1-1.42-1.65c4.38-8.19,9.65-10.42,19-8a41.67,41.67,0,0,1,6.56,14.33C715.59,978.15,713.76,976.53,711.93,975.31Z" transform="translate(-315.47 -884.36)"/><path class="cls-54" d="M698.36,934.18c.18,7.64-6.68,9.94-10.9,14.2-1.57,1.59-3.66,2.67-5.51,4-5.3-4.77-5-8.48,1.88-11.37C688.76,938.93,693.52,936.46,698.36,934.18Z" transform="translate(-315.47 -884.36)"/><path class="cls-55" d="M710.88,961c-7.33.35-13.78,2.77-19,8l-4.24-7.63c4.88,1.06,8.62-1.16,12.59-3.68,3.49-2.21,7.28-4.39,11.73-4.43,1.86,2.34,1.25,6.08,4.34,7.73Z" transform="translate(-315.47 -884.36)"/><path class="cls-56" d="M735.07,967.67c4.87,3.55,4.2,9.64,6.59,14.33,3,1.46,3.78,4.48,4.92,7.24,1.29,4.29,3.19,8.53,1.3,13.14-1.11,1.69-2.18,3.48-4.71,2.61-1.87-2-1.82-4.46-2-6.91l-2.08-8c.13-5-3.46-9.06-3.26-14l-2.15-7.94C733.87,967.16,734.34,967,735.07,967.67Z" transform="translate(-315.47 -884.36)"/><path class="cls-57" d="M770.1,912.13l2.72,8.22a8.75,8.75,0,0,1,3.56,4.43c1,2.34.69,4.72.26,7.11l4.43,13.24c7,7.34,7.11,17.54,11,26.18,1,3.36,2.35,6.63,2.72,10.15-.13,1.61,0,3.6-2.1,3.88-2.59.35-4-1.31-4.7-3.68a3.4,3.4,0,0,1,.75-2.63c2-3.64-.35-6.74-1.39-9.9-6-18.17-12.12-36.27-18.09-54.44-.76-2.32-2.72-4.62-1.12-7.36C770.25,908.31,770.66,910,770.1,912.13Z" transform="translate(-315.47 -884.36)"/><path class="cls-58" d="M487.69,1023.81c2.59-1.83,5-3,6.07,1.47-2.16,13.26-9.39,17.73-21.49,13.29-3.61-4.16,0-5.44,2.88-6.44A29.51,29.51,0,0,0,487.69,1023.81Z" transform="translate(-315.47 -884.36)"/><path class="cls-59" d="M547.66,1024.3c6-2.33,6.88,2.26,8.25,6.16,3.87,5.56,8.9,10.38,10.93,17.12a6,6,0,0,1,0,2.75c-1.8,2.73-4,1.33-6.07.53a.9.9,0,0,1-.51-1.16c-2.36-2.26-1.8-6-4.12-8.26Z" transform="translate(-315.47 -884.36)"/><path class="cls-60" d="M721.21,1016.5l6-.39c6.81,4.72,9.93,12,13.28,19.1,0,3.28-2.15,4.64-4.85,5.55Z" transform="translate(-315.47 -884.36)"/><path class="cls-61" d="M403.62,1124.71l3.87.56c1.3,4.78.84,9.66.77,14.51s3.56,8.71,3,13.59l-3.28,1.1c-3.15-1.3-3.72-4.61-5.49-7a10.8,10.8,0,0,1-1.2-3.67c-.24-5.08.08-10.17-.25-15.26C401.28,1126.86,401.18,1124.92,403.62,1124.71Z" transform="translate(-315.47 -884.36)"/><path class="cls-62" d="M560.77,1050.86l5.53,0c4,2.2,5.14,6.52,7.38,10,1.55,4.81,5,8.79,6.07,13.81a6.24,6.24,0,0,1-.3,2.68c-2.81,3-4.65-.73-7-1-1.93-2.33-1.5-5.77-3.74-7.95l-1.9-4.51c-2.38-2.21-1.85-5.86-4-8.17Z" transform="translate(-315.47 -884.36)"/><path class="cls-63" d="M727.2,937.2a35.15,35.15,0,0,0,19.44-.75c7.19-2.43,10.42-6.66,8.41-14.26,2.72,2.71,4.66,5.81,4.8,9.79-8.74,8.47-19.77,10-31.2,10.27C726.88,940.94,726.08,939.35,727.2,937.2Z" transform="translate(-315.47 -884.36)"/><path class="cls-64" d="M383.91,1070.63c4.36,7.09,12.51,7.18,21.89.24a6.63,6.63,0,0,1,.06,5.43c-4.79,4.72-11.27,6.3-17,9.21a5.17,5.17,0,0,1-4.45-.45C383.67,1080.27,382.9,1075.48,383.91,1070.63Z" transform="translate(-315.47 -884.36)"/><path class="cls-65" d="M390.51,1096.05c1.77,7.07,1,14.33,1.58,21.49-3.43,2.72-4.61,1.21-4.64-2.46a97,97,0,0,1-2.18-23.24c1.89,3.32,2.59-3.15,4.4-.54A4.37,4.37,0,0,1,390.51,1096.05Z" transform="translate(-315.47 -884.36)"/><path class="cls-66" d="M390.51,1096.05l-1.65-5c-2.23-2.24-1.58-4.69-.51-7.16,4.79-5,11.68-5.08,17.52-7.62l-.68,3.89C397.46,1082.86,394.72,1090.13,390.51,1096.05Z" transform="translate(-315.47 -884.36)"/><path class="cls-67" d="M335.77,1096.44h3.52c6.41,2.34,13.59,1.26,19.8,4.45,2.69,2.25,5.52,4.18,9.24,4.13l1.8,1.26c3.18,3.82.41,4.28-2.59,4.63-9-2.46-17.46-7-27-7.61-2.74-1.36-6.64-.8-7.84-4.71Z" transform="translate(-315.47 -884.36)"/><path class="cls-68" d="M367.61,1133l5.15-1.8c2.13-.37,3.82.6,5.44,1.77a92.87,92.87,0,0,0,8.09,6.81c2,2.48,5.67,4.11,4.35,8.33a4.25,4.25,0,0,1-4.86.87Z" transform="translate(-315.47 -884.36)"/><path class="cls-69" d="M551.54,1017.23c14.26-.85,17-4,13-15.35l-1.3-5.4c3.65,4.94,5,10.82,6.82,16.52-.35,2.27-1.16,4.19-3.65,4.84l-20.1,4.8-1.12-3.35C546,1014.48,549.12,1017,551.54,1017.23Z" transform="translate(-315.47 -884.36)"/><path class="cls-70" d="M772,962.83l3.93-5.34c6.13,6.07,7.38,15,12.77,21.54l-.33.53a4.33,4.33,0,0,1-4.67,2.08,7.1,7.1,0,0,1-3-2.61c-1.55-2.55-3.27-5-4.65-7.68C775.16,968.3,770.66,966.95,772,962.83Z" transform="translate(-315.47 -884.36)"/><path class="cls-71" d="M487.23,1071.5l-1.93-4.45c-2.36-2.25-1.79-6-4.1-8.23-1.09-2.8-4.16-4.49-4.39-7.78a3.42,3.42,0,0,1,3.45-1.72,10,10,0,0,1,6.59,4.79c2.66,5.42,6.27,10.4,7.52,16.47a7.66,7.66,0,0,1-.29,4.2C489.19,1079.14,489.22,1073.22,487.23,1071.5Z" transform="translate(-315.47 -884.36)"/><path class="cls-72" d="M472.19,1037.91c11.55,3.24,17.45-3.18,21.57-12.63a.92.92,0,0,1,.55,1.22c1.35,1.34,1.72,3.1,2.1,4.86-2.75,9.88-10.8,12.11-19.44,13.51a4.93,4.93,0,0,1-2.58-.37c-2.43-1.32-3.39-3.51-3.59-6.14C471,1037.44,471.46,1037.25,472.19,1037.91Z" transform="translate(-315.47 -884.36)"/><path class="cls-73" d="M752.87,921.54c-1.54,9.21-9.34,13.19-20.41,10.41a2.53,2.53,0,0,1,1.17-1.93C739.95,927,746,923.3,752.87,921.54Z" transform="translate(-315.47 -884.36)"/><path class="cls-74" d="M573.15,1076.11c2.4-.94,3.75,1.44,5.74,1.79,3.7,1.68,3.93,5.87,6.21,8.58a15.75,15.75,0,0,1,2.12,5.06,5.38,5.38,0,0,1-.69,4l-4.78,1.55a82.12,82.12,0,0,1-8.39-18.85Q571.88,1077.32,573.15,1076.11Z" transform="translate(-315.47 -884.36)"/><path class="cls-75" d="M562.86,1101.6a1.45,1.45,0,0,1,1.41-.79c1.37-1.28,3-1.87,4.26-.19,1.91,2.55,1.74,5.17-.71,7.44-8.65,3.29-16.17,9.17-25.4,11.18-2.68,0-5.44.33-7.66-1.71-1-2.68,2-2.26,2.79-3.56l1.78-.7C547.67,1110.37,556.74,1109,562.86,1101.6Z" transform="translate(-315.47 -884.36)"/><path class="cls-76" d="M451.47,1152.93l-3.17,1c-2.62-1.15-1.62-4.51-3.67-6l-3.05-7.65c-2.17-2.72-2.55-6.15-3.67-9.29-.17-1.92,1.13-2.46,2.63-2.82a3.85,3.85,0,0,1,2.66,1c4.72,5.15,6.92,11.52,8.75,18.08C452.4,1149.19,452.59,1151.12,451.47,1152.93Z" transform="translate(-315.47 -884.36)"/><path class="cls-77" d="M472.42,1144.19l8.19,2.75c-6.74,6.15-9.6,6.39-17.29,1.5a11.27,11.27,0,0,1-2.55-8.43l.63-1.36c3.56-1.41,2.25-4.08,1.7-6.55,2.67,2.36,3.29,5.8,4.51,8.88C468.52,1143.31,469.57,1145,472.42,1144.19Z" transform="translate(-315.47 -884.36)"/><path class="cls-78" d="M534.84,1116.49l6,1.46a4.79,4.79,0,0,1-1.62,2.17,11.65,11.65,0,0,1-6.55,2,7.23,7.23,0,0,1-3.86-1.46c-4.68-4.65-6.21-11.07-9.36-16.59a10,10,0,0,1-.46-4c1.51-4.51,3.58-4.68,6.14-.76l2.51,6C531,1108.35,528.37,1115.37,534.84,1116.49Z" transform="translate(-315.47 -884.36)"/><path class="cls-79" d="M620.62,993.94c4.37,3,6.82-.45,9.19-3.05s4.14-6.06,7.75-7.53l-11.62,20.35c-3.71,2.9-4.61.77-4.78-2.67C620.46,998.71,619.54,996.4,620.62,993.94Z" transform="translate(-315.47 -884.36)"/><path class="cls-80" d="M441.61,1128.7l-3.3,1.09c-.2,1-.67,1.08-1.37.42l-3-7.46c-2.24-2.39-1.87-6-4.1-8.44l-2.71-6.33c3.62-2,4.28,2.63,6.81,3.09a5.77,5.77,0,0,1,2.39,1.66C439.08,1117.71,443.94,1122,441.61,1128.7Z" transform="translate(-315.47 -884.36)"/><path class="cls-81" d="M452.33,1050a93.57,93.57,0,0,1-42,23,1.23,1.23,0,0,1-.73-1.43C425.45,1067.48,437.9,1056.78,452.33,1050Z" transform="translate(-315.47 -884.36)"/><path class="cls-82" d="M808.84,980l4.8-1.59,1.54,5.08c1.24,6.88,4.27,13.46,3.43,20.71-.24,2.07.7,4.78-3.07,4.17C809.3,999.86,808.22,990.14,808.84,980Z" transform="translate(-315.47 -884.36)"/><path class="cls-83" d="M816.47,1008.67c.74-8.45-.5-16.8-1.3-25.18a157.91,157.91,0,0,1,7.88,30.32c-2.33.84-3.55-1.62-5.52-1.85A2.41,2.41,0,0,1,816.47,1008.67Z" transform="translate(-315.47 -884.36)"/><path class="cls-84" d="M367.33,1109.21c2.28.32,3.72-.16,2.81-2.91,4.65,3.55,8.31,8,11.75,12.68a5.41,5.41,0,0,1-2.75,3.44,4.13,4.13,0,0,1-2.28.18c-3.75-2.07-8.07-3.38-10.25-7.58A7.4,7.4,0,0,1,367.33,1109.21Z" transform="translate(-315.47 -884.36)"/><path class="cls-85" d="M728.4,991.89c.72-1.64,3.75-2.21,2.24-4.87a59,59,0,0,1,8.76,15.62,3.3,3.3,0,0,1,1.47,3.64,4.15,4.15,0,0,1-3.69,1.76c-2.56-.57-4.09-2.35-5.36-4.47C730.43,999.76,726.27,996.74,728.4,991.89Z" transform="translate(-315.47 -884.36)"/><path class="cls-86" d="M559.6,992.07c-1.63,9.91-6.73,12.74-17,9.47A75.32,75.32,0,0,1,559.6,992.07Z" transform="translate(-315.47 -884.36)"/><path class="cls-87" d="M621.17,1001c1,2,2.28,3.39,4.78,2.67l2.18,6.6c3.85,2.41,4.9,5.73,3.26,9.93l-4.87,1.59C623.81,1015.13,620.93,1008.49,621.17,1001Z" transform="translate(-315.47 -884.36)"/><path class="cls-88" d="M770.1,912.13l-2-4.8c5.73-3.27,12.19-4.25,18.44-5.88C783.47,908.71,777.34,911.28,770.1,912.13Z" transform="translate(-315.47 -884.36)"/><path class="cls-89" d="M387.45,1115.07c.89,2.05,2.29,3.16,4.64,2.46l1.62,5c-.5,8.77-2.73,10-11.63,6.43-2-1.91-4.37-3.66-3.23-7l0,0c3.24-3.14,6,3.71,9.25.44C387.43,1120,386.45,1117.61,387.45,1115.07Z" transform="translate(-315.47 -884.36)"/><path class="cls-90" d="M385.77,1149l5.1-1.75a4.27,4.27,0,0,1,3.71,1.44,21.46,21.46,0,0,1,3.63,8.9,5.59,5.59,0,0,1-.77,4l-3.27,1.06c-1.45-.38-1.33-2.16-2.5-2.79Z" transform="translate(-315.47 -884.36)"/><path class="cls-91" d="M697,976.83c4.89-2.83,6.25,2.64,9.37,4,3,2.05,4.29,4.69,2.73,8.26l-3.75,1.41Z" transform="translate(-315.47 -884.36)"/><path class="cls-92" d="M472.19,1037.91l-.69.23-.69.23c-1.93-2.9-1.76-5.06,1.75-6.74,5.12-2.44,10.09-5.2,15.12-7.82-1.26,6.61-6.43,8.68-12,9.82C472.93,1034.2,471.53,1035,472.19,1037.91Z" transform="translate(-315.47 -884.36)"/><path class="cls-93" d="M562.86,1101.6c-4.67,10.28-14.4,10.37-23.52,11.67Z" transform="translate(-315.47 -884.36)"/><path class="cls-94" d="M487.23,1071.5c2.32.72,2.84,4.82,6.32,3.37,4.82,1.59,6.17,5.55,6.82,10a4.89,4.89,0,0,1-.82,2.7l-3.21,1c-1.56-.27-1.4-2.1-2.51-2.77C491.64,1081.05,488.35,1076.78,487.23,1071.5Z" transform="translate(-315.47 -884.36)"/><path class="cls-76" d="M714.45,1038.66l-4.89,1.62c-2.41-2.52-2.13-5.78-2.46-8.88.44-3.08-.24-7,4.78-6.86a2.35,2.35,0,0,1,.85,2.48C714,1030.8,715.35,1034.56,714.45,1038.66Z" transform="translate(-315.47 -884.36)"/><path class="cls-95" d="M525.09,1099.25c-1.71-.86-3.41-2.58-5.17-.07-2-1.16-2.41-2.87-1.66-5-1-3.14-2.67-6.31.41-9.27C521.09,1089.6,523.91,1094.05,525.09,1099.25Z" transform="translate(-315.47 -884.36)"/><path class="cls-96" d="M495.68,1032.12l-1.37-5.62c3.65,5,5,10.85,6.83,16.57-.21,1.78-.8,3.27-2.8,3.7a3.55,3.55,0,0,1-2.37-.65,7.12,7.12,0,0,1-1.86-3.23C493,1039.08,495.42,1035.75,495.68,1032.12Z" transform="translate(-315.47 -884.36)"/><path class="cls-97" d="M587.19,1064.15c-.5-2.68-3.11-5.63,1-7.68,2.46,4,4.76,8.06,5.79,12.71-1.71-.86-3.42-2.58-5.17-.06l-1.06-.56A3.59,3.59,0,0,1,587.19,1064.15Z" transform="translate(-315.47 -884.36)"/><path class="cls-98" d="M784,1010.19l4.89-1.59c3.16,1.61,5.32,3.79,4.36,7.73a4.24,4.24,0,0,1-4.73,1.59A16.26,16.26,0,0,1,784,1010.19Z" transform="translate(-315.47 -884.36)"/><path class="cls-99" d="M735.65,1040.77c.91-1.68,1.24-4.14,4.17-3.14,3.71,1.29,5.58,3.63,4.39,7.71l-4.69,1.54C738.27,1044.83,735.59,1043.67,735.65,1040.77Z" transform="translate(-315.47 -884.36)"/><path class="cls-100" d="M566.72,1107.59c2.77-3.55,3.76-6.46-2.45-6.77,2.06-2.22,4.1-3.33,5.7.38,1.11,2.58,2,5.24,3,7.86-1.4.59-2.72,1.27-3,3a1.61,1.61,0,0,1-1.94.83,4.43,4.43,0,0,1-1.9-3A3.94,3.94,0,0,1,566.72,1107.59Z" transform="translate(-315.47 -884.36)"/><path class="cls-101" d="M496.95,1046.25l4.19-3.18,3.06,7.7a3.85,3.85,0,0,1-2.88,3.2,6.43,6.43,0,0,1-4.07-2.87C496.39,1049.54,495.95,1047.94,496.95,1046.25Z" transform="translate(-315.47 -884.36)"/><path class="cls-102" d="M388.34,1083.92a11.72,11.72,0,0,1,.51,7.16l-1.67,4.44-1.92-3.68c-.32-2.26-2.15-4.31-.89-6.78Z" transform="translate(-315.47 -884.36)"/><path class="cls-103" d="M332.66,1098.6l8.26,2.81a2.9,2.9,0,0,1,1.31,3.65,3.7,3.7,0,0,1-3.9,1C336.08,1103.87,331.91,1103.1,332.66,1098.6Z" transform="translate(-315.47 -884.36)"/><path class="cls-104" d="M712.73,1027l-1.21-2.09a14.56,14.56,0,0,1-4.87-14.92l-1.38-5.61A47.93,47.93,0,0,1,712.73,1027Z" transform="translate(-315.47 -884.36)"/><path class="cls-105" d="M534.84,1116.49c-9.61.91-4.18-7.89-7.24-11.22,4.35,1.71,1.22,12,9.95,8.69Z" transform="translate(-315.47 -884.36)"/><path class="cls-106" d="M438.41,1096.74c2.11-1.79,2.32-4.07,1.69-6.57,2.73,2.76,3.66,6.35,4.61,9.94-1.93-.64-3.39.18-4.67,1.53A3.57,3.57,0,0,1,438.41,1096.74Z" transform="translate(-315.47 -884.36)"/><path class="cls-107" d="M566.42,1017.83l3.65-4.84,3.18,8-3.53,1.27c-1,.24-1.42-.83-2.2-1.11Z" transform="translate(-315.47 -884.36)"/><path class="cls-108" d="M510.94,1122.81c-.95-2.61,1.1-4.42,1.76-6.59,5.09-.47,4.8,3.19,5,6.48l-.62,1.29h-5.64A1,1,0,0,1,510.94,1122.81Z" transform="translate(-315.47 -884.36)"/><path class="cls-109" d="M474.4,1044.5,476,1044c2.44-1.64,3.94,0,5.48,1.56a5.08,5.08,0,0,1,.5,3.81,1.45,1.45,0,0,1-2.14.71l-3.05,1Z" transform="translate(-315.47 -884.36)"/><path class="cls-82" d="M810.93,969c-1.58-5.82-5.49-11-4.46-17.52C808.42,957.24,811,962.82,810.93,969Z" transform="translate(-315.47 -884.36)"/><path class="cls-110" d="M338.33,1106.09l3.68-1.39c2.35-1.76,3.77-.34,5.09,1.47a3.49,3.49,0,0,1-.14,2.42l-4.6,1.47Z" transform="translate(-315.47 -884.36)"/><path class="cls-111" d="M753.6,967.29l-2.94-8.9c3.9-.06,4.16,2.39,4.75,4.54C753.54,963.86,754.61,966,753.6,967.29Z" transform="translate(-315.47 -884.36)"/><path class="cls-112" d="M740.32,1006.22l-.92-3.58c2.07-.94,1-3.12,1.79-4.56l2.67,6.94c1.27,1,1.8,2.7.55,3.44C742.41,1009.67,740.77,1008.66,740.32,1006.22Z" transform="translate(-315.47 -884.36)"/><path class="cls-113" d="M388.14,1122.32c-3.35,5.35-6.11-1.45-9.25-.44.27-1.71,1.6-2.35,3-2.91C384.31,1119.46,384.92,1123.33,388.14,1122.32Z" transform="translate(-315.47 -884.36)"/><path class="cls-114" d="M803.25,940.25c-1.52-5.19-4.91-9.91-3.88-15.73C801.21,929.62,803.44,934.64,803.25,940.25Z" transform="translate(-315.47 -884.36)"/><path class="cls-115" d="M551.54,1017.23c-2.08.78-4.77-.32-6.34,2l-1.86-4.85C546.71,1013.49,549.22,1015.06,551.54,1017.23Z" transform="translate(-315.47 -884.36)"/><path class="cls-116" d="M479.62,1115.83c3.53-2.82,4.2-6.27,2.25-10.3C485.46,1109.91,488.44,1114.16,479.62,1115.83Z" transform="translate(-315.47 -884.36)"/><path class="cls-117" d="M391.67,1159.88l2.5,2.79,3.27,10.45C394.14,1169.31,393.09,1164.52,391.67,1159.88Z" transform="translate(-315.47 -884.36)"/><path class="cls-118" d="M411.26,1153.37c-.85-4.56-4.43-8.52-3-13.59l4.38,13.15Z" transform="translate(-315.47 -884.36)"/><path class="cls-119" d="M735.85,976.09c1.24,4.64,4.59,8.79,3.26,14C737.44,985.58,735.52,981.1,735.85,976.09Z" transform="translate(-315.47 -884.36)"/><path class="cls-120" d="M764.42,1018.37c-.3-2.89-2.69-5.52-1.07-8.64,1.53,4,3.26,8,2.77,12.5Z" transform="translate(-315.47 -884.36)"/><path class="cls-97" d="M586.93,1053.17c-3.89-2.91-3.6-7.68-5.17-11.63C584.74,1044.86,585.73,1049.06,586.93,1053.17Z" transform="translate(-315.47 -884.36)"/><path class="cls-95" d="M518,1083.25c-3.9-2.91-3.58-7.7-5.18-11.64C515.8,1074.93,516.79,1079.14,518,1083.25Z" transform="translate(-315.47 -884.36)"/><path class="cls-121" d="M400.44,1180.84c3.93,2.93,3.68,7.72,5.19,11.73C402.49,1189.28,401.67,1185,400.44,1180.84Z" transform="translate(-315.47 -884.36)"/><path class="cls-119" d="M735.07,967.67l-1.37.48c-1.51-4-3.3-8-2.85-12.51l2.75,7Z" transform="translate(-315.47 -884.36)"/><path class="cls-122" d="M727.2,937.2l1.45,5.06c.36,1.79,1.41,3.56.15,5.39-1.52-4-3.3-8-2.89-12.49Z" transform="translate(-315.47 -884.36)"/><path class="cls-123" d="M444.62,1147.92c2.66,1.13,2.54,4,3.67,6l1.5,5.68C446.79,1156.28,445.83,1152,444.62,1147.92Z" transform="translate(-315.47 -884.36)"/><path class="cls-124" d="M761.7,1003.33c-1.23-4-4.13-7.72-2.69-12.34C760.5,995,762.27,998.9,761.7,1003.33Z" transform="translate(-315.47 -884.36)"/><path class="cls-125" d="M601.69,1085c-4.46-1.8-3.72-6.34-5.14-9.74C599.56,1077.78,599.81,1081.8,601.69,1085Z" transform="translate(-315.47 -884.36)"/><path class="cls-123" d="M436.94,1130.2l1.37-.42,3.26,10.48C438.77,1137.49,438,1133.8,436.94,1130.2Z" transform="translate(-315.47 -884.36)"/><path class="cls-116" d="M463.63,1122.91c2.35-3.52,6.48-3.22,9.84-4.58C470.76,1121.07,467.17,1121.94,463.63,1122.91Z" transform="translate(-315.47 -884.36)"/><path class="cls-126" d="M399.49,1062.21c-2.38,3.58-6.5,3.39-10,4.62C392.31,1064.13,395.9,1063.16,399.49,1062.21Z" transform="translate(-315.47 -884.36)"/><path class="cls-127" d="M423.83,1136.78l3.29,10C423.95,1143,423,1140.78,423.83,1136.78Z" transform="translate(-315.47 -884.36)"/><path class="cls-128" d="M430.84,1155c2.7,2.58,2.66,5,3.44,8.07C431.38,1161,431.13,1158.63,430.84,1155Z" transform="translate(-315.47 -884.36)"/><path class="cls-129" d="M573.15,1076.11l.21,2.14c-2.75-2.7-3.67-6.26-4.65-9.8C571.94,1070,571.49,1073.66,573.15,1076.11Z" transform="translate(-315.47 -884.36)"/><path class="cls-13" d="M461.93,1052.27l-1.94-1.15-1.18-3.25-1.18-4.46C460.84,1045.51,460.9,1049.12,461.93,1052.27Z" transform="translate(-315.47 -884.36)"/><path class="cls-130" d="M683.34,1078.36l10.78-3.43A12.59,12.59,0,0,1,683.34,1078.36Z" transform="translate(-315.47 -884.36)"/><path class="cls-121" d="M427.39,1186.51c-3.6-2.38-3.35-6.55-4.63-10C425.61,1179.23,426.39,1182.92,427.39,1186.51Z" transform="translate(-315.47 -884.36)"/><path class="cls-131" d="M562.79,1055.76c3.15,1.83,2.95,5.31,4,8.17C564.38,1061.75,563.54,1058.78,562.79,1055.76Z" transform="translate(-315.47 -884.36)"/><path class="cls-106" d="M437.62,1084.11c-3-2.6-4.74-5.13.45-7.23C435.57,1079.14,437.22,1081.66,437.62,1084.11Z" transform="translate(-315.47 -884.36)"/><path class="cls-126" d="M405.7,1069.38a3.63,3.63,0,0,1,.14-4.05l2.47,1.25,1.38,5C408.12,1071.29,407.72,1068.9,405.7,1069.38Z" transform="translate(-315.47 -884.36)"/><path class="cls-132" d="M702.81,998.45c-3.28-1.77-3-5.31-4.13-8.19C701.29,992.37,702,995.43,702.81,998.45Z" transform="translate(-315.47 -884.36)"/><path class="cls-80" d="M423.25,1100c3.21,1.73,3,5.18,4,8C424.58,1106,424.11,1102.87,423.25,1100Z" transform="translate(-315.47 -884.36)"/><path class="cls-76" d="M429.85,1114.29c3.26,1.89,3,5.48,4.1,8.44C431.39,1120.5,430.68,1117.37,429.85,1114.29Z" transform="translate(-315.47 -884.36)"/><path class="cls-133" d="M493.84,1085.82l2.51,2.77,1.53,5.47C495.43,1091.86,494.58,1088.87,493.84,1085.82Z" transform="translate(-315.47 -884.36)"/><path class="cls-118" d="M419.67,1168.86c-3.2-1.94-3-5.51-4-8.48C418.18,1162.63,418.88,1165.76,419.67,1168.86Z" transform="translate(-315.47 -884.36)"/><path class="cls-62" d="M556.15,1041.44c3.27,1.8,3,5.37,4.11,8.26C557.75,1047.51,557,1044.47,556.15,1041.44Z" transform="translate(-315.47 -884.36)"/><path class="cls-122" d="M733.63,930l-1.17,1.93-6.22,2C727.86,931.06,730.9,930.83,733.63,930Z" transform="translate(-315.47 -884.36)"/><path class="cls-94" d="M481.2,1058.82c3.25,1.81,3.06,5.32,4.1,8.23C482.76,1064.89,482,1061.85,481.2,1058.82Z" transform="translate(-315.47 -884.36)"/><path class="cls-134" d="M672.25,982.91c2.83,4.09,5.18,8.57,9.33,11.59a5.51,5.51,0,0,1,2.75,6.23c-1.56,2.57-3.78,2.35-6.16,1.45-3.94-2.21-5.45-6.55-8.36-9.67-3.88-4.14-8.09-7.64-14.27-5.17-5.77,2.3-5.55,7.36-5.3,12.36.12,2.29.12,4.59.14,6.89.06,4.42,2.25,8.27,3.18,12.45.74,3.37,1.82,6.91-2.63,8.75a4.4,4.4,0,0,1-4.12-1.26c-3.73-4.49-3.86-10.07-4.71-15.44-1.08-5.65-3.55-11.38.93-16.72,2.52-14.08,11.88-19.12,24.46-13.21C669,981.88,670.66,982.33,672.25,982.91Z" transform="translate(-315.47 -884.36)"/><path class="cls-135" d="M643,994.38c-.61,5.44-.67,10.83,1.6,16-2.43,5.94-7.16,8.81-13.24,9.87h0l-3.26-9.93C632.32,1004.27,632.56,994.53,643,994.38Z" transform="translate(-315.47 -884.36)"/><path class="cls-79" d="M637.57,983.34c.25-3.42,2.63-4.71,5.51-5.48A9.5,9.5,0,0,1,637.57,983.34Z" transform="translate(-315.47 -884.36)"/><path class="cls-136" d="M568.33,1112.53l1.65-.5c3.6,11,3.47,10.74-7.3,15.34s-21.4,9.67-31.85,15c-3.43,1.76-4.64,1.52-6.62-1.81a75.9,75.9,0,0,1-7.14-16.59l0,0c4.55-6.4,10.81-2.08,16.3-2.59,10.25-1.88,20.55-3.56,29.89-8.62A5.88,5.88,0,0,1,568.33,1112.53Z" transform="translate(-315.47 -884.36)"/><path class="cls-137" d="M586.53,1095.55l-1.05-3.32c4.43-4.94,9.38-2.92,14.32-1.09,12.38-.32,24.35-2,34.55-10,1-.76,2.63-.63,4-.91,4.18,12.4,4.1,12.21-7.51,17.26-10.25,4.46-20.49,9-30.32,14.31-4.15,2.23-5.5,2.1-7.73-2.12A79.58,79.58,0,0,1,586.53,1095.55Z" transform="translate(-315.47 -884.36)"/><path class="cls-138" d="M708.46,1031.48a14.71,14.71,0,0,1,1.09,8.81c2.14,26.14-24.87,37.68-41,31.74-9.3-3.43-15.34-10.81-20.79-18.69l-1.09-3.32c2.76-6,6.4-2.81,9.71-.78,5.55,3.39,10.43,8.14,17.51,8.25,11.3-.06,19.12-4.66,21.48-16.41.32-1.22.68-2.42,1-3.64,1.28-6-.92-14.28,9.27-14.67a4.46,4.46,0,0,1,1.85,2C707.66,1027,709.18,1029.09,708.46,1031.48Z" transform="translate(-315.47 -884.36)"/><path class="cls-136" d="M464.14,1146.93c5.49,5.78,11,1.49,16.48,0,7.19-2.44,14.77-4,21-8.65.81,2.47,1.47,5,2.47,7.41,1.72,4.14.34,6.08-3.79,7.75-10.91,4.4-21.68,9.16-32.33,14.16-6.36,3-10.4,2.32-11.64-5.27-3-2.41-1.76-7-4.9-9.4h0l-1.6-5a7.12,7.12,0,0,1,5.46-3.62C458.67,1143.8,461.4,1145.39,464.14,1146.93Z" transform="translate(-315.47 -884.36)"/><path class="cls-76" d="M451.47,1152.94c3.93,1.94,3.32,6.24,4.9,9.4C452.45,1160.39,453.06,1156.09,451.47,1152.94Z" transform="translate(-315.47 -884.36)"/><path class="cls-139" d="M413.42,1165.52c2.38,5.81,3.62,12,7,17.51,4.67,7.61-2.62,8.14-7.11,10-4.19,1.86-2.48-3.65-4.93-4-2.52-5.88-2.74-12.76-7.64-17.61,2.25-3.84,6.51-4.38,10-6.14A3.84,3.84,0,0,1,413.42,1165.52Z" transform="translate(-315.47 -884.36)"/><path class="cls-140" d="M411.77,1166c-2.42,4.34-7.38,3.56-11,5.48l-3.32-9.9-1-3.33c5.27-2.07,6.55-6.61,7.17-11.56,3.49,1.43,3,5.11,4.41,7.75q.26.82.54,1.64A14.48,14.48,0,0,1,411.77,1166Z" transform="translate(-315.47 -884.36)"/><path class="cls-61" d="M411.77,1166l-3.25-9.92c3.91,2,3.3,6.25,4.89,9.41Z" transform="translate(-315.47 -884.36)"/><path class="cls-117" d="M408.4,1189.12l4.94,4C408.22,1196.09,409.85,1190.69,408.4,1189.12Z" transform="translate(-315.47 -884.36)"/><path class="cls-141" d="M441.61,1128.7c-.85-6-5.52-10.32-7.08-16,5.13-4.26,9.83,1.66,14.82.61,9.22-2.44,17.26-7.36,25.44-12,3.48,10.13,3.56,10.33-10.44,16-3.93,1.6-7.24,3.4-9.49,7-2.71,6.59-7.09,8.13-13.22,4.36Z" transform="translate(-315.47 -884.36)"/><path class="cls-32" d="M449.35,1113.31c-5,1.8-9.85-1.15-14.83-.61l-.58-1.64L417.55,1078c6.1-.66,10.95-4.11,16-7.13,1.83,1.55,3.67.55,5.51,0-9.16,7.45-9.34,14.82-.64,25.88l1.63,4.9C438,1109.64,443.92,1111.28,449.35,1113.31Z" transform="translate(-315.47 -884.36)"/><path class="cls-142" d="M744.39,990.27,741.66,982c2.07-3.67-1.6-7.34,0-11,1.33-2.37,2.49-5,6.07-3.83l3.82,11.57-1.1,2.2C747.86,983.67,748.51,988.53,744.39,990.27Z" transform="translate(-315.47 -884.36)"/><path class="cls-143" d="M778,970l4.38,7.72c-2.88,2.38-5.79,4.64-9.91,3.27l-2.2-1.12-2.73-8.25C770,964.14,774,967.4,778,970Z" transform="translate(-315.47 -884.36)"/><path class="cls-144" d="M778,970c-3.75-1.19-7.56-2.7-10.46,1.62-3.81-2.52-4.16-7.39-7.12-10.49,3.68-5.07,7.35-3.13,11,0l.55,1.66Z" transform="translate(-315.47 -884.36)"/><path class="cls-145" d="M771.45,961.17c-3.67-1.24-7.33-2-11,0a14.32,14.32,0,0,1-4.39-7.72Q766.87,951.09,771.45,961.17Z" transform="translate(-315.47 -884.36)"/><path class="cls-146" d="M747.75,967.16,741.68,971c-2.46-6-1.21-10.83,4.45-14.3Z" transform="translate(-315.47 -884.36)"/><path class="cls-147" d="M744.21,1045.35l-4.39-7.71-12.59-21.51-1.09-3.32c2-3.73,5.59-4.39,9.32-4.72a13.68,13.68,0,0,1,5.62,1.92c4.55,2.62,5.38-.43,5.85-4,.7-2.18.89-4.69,2.29-6.43,1.55-1.93,3.79-4.2,5.6.05,4.18,9.12,4.53,19.26,7.63,28.66,4.37,7.92,1.4,11.82-6.92,13.38C751.66,1042.43,748,1044.11,744.21,1045.35Z" transform="translate(-315.47 -884.36)"/><path class="cls-148" d="M599.8,1091.14l-14.32,1.09-1.65-5c-.61-6.68-1.78-13.52,5-18.17h0l2.72,8.27c-.76,5,1,8.69,5.47,11C598.59,1088.68,599.3,1089.8,599.8,1091.14Z" transform="translate(-315.47 -884.36)"/><path class="cls-149" d="M597,1088.41c-9.32,0-7.36-5.51-5.47-11Z" transform="translate(-315.47 -884.36)"/><path class="cls-150" d="M776.64,931.88l-2.2-6.61c.31-1.08.22-2.58,1.24-3.06,7.58-3.52,12.16-10.34,17.82-16,2.31,4.74-.07,8.38-3.06,11.6C786,922.67,781.25,927.22,776.64,931.88Z" transform="translate(-315.47 -884.36)"/><path class="cls-151" d="M787.5,932c-1.11,5.26,4,8.45,4.37,13.23,4,2.9,3.31,7,2.83,11-1,2.25-2.55,3.28-5,2-5.19-5.6-5-12.71-5.52-19.61C782.61,935.09,783.71,932.88,787.5,932Z" transform="translate(-315.47 -884.36)"/><path class="cls-152" d="M790.34,973.13l-9.27-28,3.1-1c3.37,8.13,7.74,15.87,9.83,24.52C793.79,971,793,972.8,790.34,973.13Z" transform="translate(-315.47 -884.36)"/><path class="cls-153" d="M793.5,906.25c-4.37,8.33-11.25,14.15-19.06,19l-1.62-4.93c9.72-2.26,15.18-9.3,19.65-17.46Z" transform="translate(-315.47 -884.36)"/><path class="cls-154" d="M792.9,970.6l-8.73-26.45c-.54-1.84-1.54-3.67,0-5.51l6.55,19.84c4.7,4.25,7.46,9,4.18,15.43C792.64,973.79,792.51,972.35,792.9,970.6Z" transform="translate(-315.47 -884.36)"/><path class="cls-155" d="M441.64,1128.68a14.1,14.1,0,0,0,13.22-4.36c2,4.87,2.26,10.51,6.54,14.33h0c-1.15,2.72-3.38,4.68-4.92,7.13l-6.57,2.17C448.5,1141,444.11,1135.23,441.64,1128.68Z" transform="translate(-315.47 -884.36)"/><path class="cls-142" d="M793.49,955.73l-1.62-10.47c3.1-3.23,6-4.93,7.71,1.13,1.06,5.74,5.44,10.74,3.8,17.08a9.94,9.94,0,0,1-4.08-2A23.42,23.42,0,0,1,793.49,955.73Z" transform="translate(-315.47 -884.36)"/><path class="cls-156" d="M754.82,999.67c-7.85-2.29-3.64,5.79-6.62,7.69-2-1.16-2.27-2.92-1.65-5,1.09-4.36-1-8.16-2.16-12.13,1.29-3.59.28-8.69,6.08-9.34C751.59,987.26,756.42,992.72,754.82,999.67Z" transform="translate(-315.47 -884.36)"/><path class="cls-157" d="M683.77,1001.11l-2.18-6.61c4.18-.8,7.54-3.27,11-5.47,1.56,4.44,5.34,7.83,6,12.68-2.48,3.84-6.23,4.87-10.51,4.76C685.4,1005.72,683.72,1004.12,683.77,1001.11Z" transform="translate(-315.47 -884.36)"/><path class="cls-158" d="M567.51,1021.13l2.2,1.11,7.64,23.15c-2.83,4.38-6,7.71-11.58,3.82l-9.86-18.75c3.2,3.94,6.65,4.81,11.24,1.83C573,1028.5,567.44,1024.83,567.51,1021.13Z" transform="translate(-315.47 -884.36)"/><path class="cls-159" d="M565.77,1049.21c4.92,1.94,7.58-3,11.58-3.82,3.48,2.86,4.06,7.15,5.46,11-2.71,3.76-5.78,6.79-11,5.47-2.21-3.48-4.66-6.85-5.49-11Z" transform="translate(-315.47 -884.36)"/><path class="cls-160" d="M571.79,1061.9l11-5.47,2.74,8.26c-.67,4.92-1.59,9.69-7.19,11.54Z" transform="translate(-315.47 -884.36)"/><path class="cls-161" d="M578.36,1076.22l7.19-11.54,1.65-.53,1.63,5c-4.09,5.39-2.19,12.43-5,18.17-3.93-1.92-3.29-6.25-4.93-9.37Z" transform="translate(-315.47 -884.36)"/><path class="cls-147" d="M793.28,1016.33l-4.36-7.73-9.31-17.1c-1.67-5.15,1.87-6.14,5.57-7,4.07-.09,9.15,6.84,12-1.74,4-1.68,4.36-8.13,10-7.69l1.64,5c4,9.17,3.4,19.56,7.63,28.66l1.06,3.3c-5.43,2.56-11.19,4.62-16.21,7.81S794.73,1020.31,793.28,1016.33Z" transform="translate(-315.47 -884.36)"/><path class="cls-162" d="M673.68,1059.45c-6.54.49-10.93-3.76-15.93-6.92-3.22-2-6.3-6.45-11-2.52-3.4-2-4.35-5.91-6.56-8.84,2.81-4.59,6.77-7.45,12.21-8,6.2,4.63,7.5,12.72,12.7,18.05C667.46,1054.43,673.07,1054.34,673.68,1059.45Z" transform="translate(-315.47 -884.36)"/><path class="cls-163" d="M631.39,1020.23l13.24-9.87a41.93,41.93,0,0,0,3.27,15.42c-3.28,4.85-7.81,5.94-13.22,4.37Z" transform="translate(-315.47 -884.36)"/><path class="cls-164" d="M634.68,1030.15l13.22-4.37,2.2,1.11a5.11,5.11,0,0,1,2.85,4.12,4.07,4.07,0,0,1-.67,2.49,48.62,48.62,0,0,1-12.12,7.66C639.32,1037,636.87,1033.64,634.68,1030.15Z" transform="translate(-315.47 -884.36)"/><path class="cls-158" d="M382.71,1127.95c6.1,3.08,9.51.74,11-5.46,5.46-6.21,2.89-13.46,2.4-20.32-.38-5.33-.7-10.29,4.9-13.25,1.88,8.77,1.2,17.66,1.26,26.51,0,3.18.05,6.31,1.34,9.28-1.07,1.16-1,2.5-.56,3.87-3.74,7.54-9.33,12.13-18.22,11.53-3.86-.71-6-3.46-7.69-6.63C377.5,1130.13,379,1127.94,382.71,1127.95Z" transform="translate(-315.47 -884.36)"/><path class="cls-165" d="M498.58,1051.21c1.56.28,2.26,1.41,2.75,2.76l4.9,14.89c-3.85,4.64-8.22,6.64-13.75,2.71l-7.67-17.65C488.72,1049.57,493.56,1050,498.58,1051.21Z" transform="translate(-315.47 -884.36)"/><path class="cls-166" d="M499.56,1087.56q-.25-.83-.51-1.66c3.35-3.28,8.65-4.81,9.38-10.44,5.52,5.25,5.18,13,8.19,19.3-.67,4.93-1.59,9.69-7.19,11.55Z" transform="translate(-315.47 -884.36)"/><path class="cls-167" d="M509.43,1106.31l7.19-11.55,1.64-.53,1.66,5,1.08,3.33c-.5,1.08-.31,2.29-.58,3.39-2.08,8.48,1.19,13,9.87,13.71l2.23,1.12q1,.27.9.9c-.06.42-.18.66-.36.72-5.28.93-10.83-.81-16,1.6-1.34-2.65-.89-6.31-4.39-7.73Z" transform="translate(-315.47 -884.36)"/><path class="cls-26" d="M508.42,1075.46c3.66,9.57-4.41,8.62-9.38,10.44-.85-4.17-3.28-7.54-5.49-11l-1.08-3.31c5,1.19,9.23-1.5,13.75-2.71Z" transform="translate(-315.47 -884.36)"/><path class="cls-168" d="M786.79,985.46c-3.18,1.07-6.79,1.64-7.17,6-3.39-2.81-5.44-6.52-7.12-10.49,3.49-.52,5.72-4.86,9.91-3.27l1.11,3.3C785.74,981.66,787.77,982.44,786.79,985.46Z" transform="translate(-315.47 -884.36)"/><path class="cls-169" d="M728.4,991.89l5.47,11c-1.53,1.44-3.07.76-4.62,0-3-2.74-6.9-4.41-9.12-8-1-1.8-2-3.57-2.88-5.43-.54-1.74-.42-3.29,1.31-4.35,3.76-1.17,4.43,3.17,7.09,4C726.14,990.47,726.84,991.61,728.4,991.89Z" transform="translate(-315.47 -884.36)"/><path class="cls-170" d="M725.65,989.12c-3.51,1.5-4.05-2.9-6.6-3.32-1.89-.88-3.72-1.8-3.29-4.42l-3.83-6.07,5.51,0Z" transform="translate(-315.47 -884.36)"/><path class="cls-171" d="M687.06,1005.53l11.57-3.82,3.28,9.92c-.13.37-.27.75-.4,1.12-4.92,2.81-4.76,8.44-7.06,12.72-2.66-.34-3.63-2.42-4.64-4.46a58.47,58.47,0,0,1-2.39-6.8C686.63,1011.34,685.4,1008.49,687.06,1005.53Z" transform="translate(-315.47 -884.36)"/><path class="cls-132" d="M708.46,1031.48l-2.19-6.62c-1-4.57-5.12-8.53-2.71-13.77l3.09-1.09,4.87,14.92C708.07,1026,710.25,1029.65,708.46,1031.48Z" transform="translate(-315.47 -884.36)"/><path class="cls-172" d="M703.56,1011.08c.72,4.63,4.67,8.62,2.71,13.77l-.55-1.65q-6.26-4.35-3.82-11.58h0Z" transform="translate(-315.47 -884.36)"/><path class="cls-173" d="M382.71,1127.95l-5.56,5.53-4.38-2.24L347,1108.59l-.54-1.67c8.61-1.84,15.75.29,20.92,7.75l11.52,7.22Z" transform="translate(-315.47 -884.36)"/><path class="cls-174" d="M730,1002.35l3.85.56,3.3,4.42q.82.35.78,1t-.25.69l-11.56,3.81c-3-.94-2.85-3.86-3.84-6.07-2-1.67-1.7-3.41.11-4.85C725,999.82,727.6,1000.34,730,1002.35Z" transform="translate(-315.47 -884.36)"/><path class="cls-175" d="M730,1002.35c-3.35.1-8-2.12-7.72,4.38-3.82-3.25-5.31-8-7.67-12.14,1-4.38,1.73-4.43,7.16-.53C723.64,997.71,729,997.9,730,1002.35Z" transform="translate(-315.47 -884.36)"/><path class="cls-176" d="M721.78,994.06c-2.35.64-5.09-4-7.16.53-3.15-.54-2.35-5-5.49-5.53l-2.73-8.26,1.66-.55c5.1,1.32,7.48,5.68,10.43,9.39C720.83,990.2,721.13,992.26,721.78,994.06Z" transform="translate(-315.47 -884.36)"/><path class="cls-151" d="M718.49,989.65c-4.6-1.89-7.34-5.84-10.43-9.39,2.8-1.19,5.11,1,7.7,1.12l3.29,4.42C718,986.95,718.08,988.28,718.49,989.65Z" transform="translate(-315.47 -884.36)"/><path class="cls-177" d="M807.2,975.05c-3.63,2.56-4,8.78-9.91,8.78l-.93-.76c-.15-.37-.29-.75-.45-1.11.81-7.25.53-14.74,4.73-21.24,1.57.27,2.26,1.41,2.75,2.76Z" transform="translate(-315.47 -884.36)"/><path class="cls-178" d="M359.1,1100.9c-6.92-.05-13.93.29-19.8-4.45C346.27,1096.28,354.16,1092,359.1,1100.9Z" transform="translate(-315.47 -884.36)"/><path class="cls-179" d="M737.7,1009l-.53-1.67,3.16-1.1c.94.53,1.95,1.57,2.81,1.46,1.55-.2.79-1.66.73-2.66l2.68-2.62,1.65,5c.65,2.85.26,5.56-3,6.13C741.76,1014.11,739.16,1012.26,737.7,1009Z" transform="translate(-315.47 -884.36)"/><path class="cls-180" d="M796.72,982.18l.56,1.65c.65,2.8.28,5.37-2.86,6.14-3.78.93-5.32-2.6-7.64-4.51L783.51,981l4.86-1.47c1.28,1.85,1,6,5.19,3.59A2.28,2.28,0,0,1,796.72,982.18Z" transform="translate(-315.47 -884.36)"/><path class="cls-181" d="M796.72,982.18l-3.16,1-3.22-10,2.56-2.53,1.1,3.31c2.69,2.17,2.85,5.17,2.74,8.26Z" transform="translate(-315.47 -884.36)"/><path class="cls-182" d="M384.83,1140.11c6.9-2.54,12.72-6.78,18.22-11.53.2,5,.94,10-.55,14.86-2.77,2.37-5.4,5-9.44,5l-2.18-1.14Z" transform="translate(-315.47 -884.36)"/><path class="cls-183" d="M393.06,1148.41c2.79-2.33,5.12-5.54,9.44-5l1.07,3.28c2.89,9.65,1.86,11.29-7.18,11.56Z" transform="translate(-315.47 -884.36)"/><path class="cls-184" d="M367.34,1114.68c-6.09-5-13.45-6.52-20.92-7.75a6,6,0,0,0-4.41-2.22l-1.1-3.3c9.41.54,17.89,4.26,26.41,7.8C367.88,1111,368.87,1112.85,367.34,1114.68Z" transform="translate(-315.47 -884.36)"/><path class="cls-185" d="M498.58,1051.21c-4.31,2.35-9.28,1.32-13.77,2.71l-4.94-3.86,1.65-.56c4.81-2.66,9.7-4.93,15.42-3.25h0Z" transform="translate(-315.47 -884.36)"/><path class="cls-186" d="M480.42,1046.2A6,6,0,0,0,476,1044c7.24-2.82,15.05-4.68,19.66-11.87,2.7,3.57-1.11,7.23.16,10.82C491.4,1047.31,486.4,1049.07,480.42,1046.2Z" transform="translate(-315.47 -884.36)"/><path class="cls-187" d="M566.72,1107.59l.53,1.67c-7.74,8.39-20.32,12.55-28.11,9.3l1.67-.6c6.87-3.18,13.79-6.26,20.57-9.63C563.21,1107.42,564.68,1106.12,566.72,1107.59Z" transform="translate(-315.47 -884.36)"/><path class="cls-188" d="M456.44,1145.8c-1.18-4.32,1.33-6.1,4.92-7.13l2.78,8.26C461.34,1148.12,459,1146,456.44,1145.8Z" transform="translate(-315.47 -884.36)"/><path class="cls-189" d="M530.29,1119.6c-14.55.61-16.33-2.67-9.29-17.1C524.81,1107.82,525.78,1114.67,530.29,1119.6Z" transform="translate(-315.47 -884.36)"/><path class="cls-190" d="M539.13,1118.55c10.81,1.26,19.46-4,28.11-9.3l1.08,3.27a65,65,0,0,1-35.27,9.82l-.53-1.62Z" transform="translate(-315.47 -884.36)"/><path class="cls-191" d="M480.42,1046.2a41.6,41.6,0,0,0,15.42-3.26l1.09,3.31c-5.1,1.27-9.8,4.47-15.43,3.25Z" transform="translate(-315.47 -884.36)"/><path class="cls-1" d="M648.26,1005.53c-.17-2.85-.55-5.71-.46-8.56.18-5.36,1.42-10.24,7.13-12.56s10.21-.24,13.84,3.86,6.56,8.48,9.8,12.75c3.32,3,6.38,6.11,7.49,10.64,1.24,3.69,2.57,7.36,3.69,11.09,1,3.25,2.14,6.47,3.11,9.74a22.46,22.46,0,0,1,.24,11.18c-1.2,6.08-4.1,10.7-10.38,12.74-5.87,1.9-10.09-1-14.1-4.49a46.21,46.21,0,0,1-9.16-11.52c-2.1-4-4.88-7.66-5.59-12.28C654.09,1020.07,648.94,1013.36,648.26,1005.53Z" transform="translate(-315.47 -884.36)"/><path class="cls-192" d="M684.06,1012.07l-5.48-11,5.19.08,3.29,4.42,2.73,8.27C686.61,1017.45,685.66,1013.66,684.06,1012.07Z" transform="translate(-315.47 -884.36)"/><path class="cls-193" d="M648.26,1005.53l7.61,23.13c-.86,1.72-1.54,3.69-4.12,3.18l-1.65-4.95c3.86-1.91,1.76-4.73,1.21-7.4C650.35,1014.82,646.82,1010.72,648.26,1005.53Z" transform="translate(-315.47 -884.36)"/><path class="cls-194" d="M661.4,1039.72c2.68,3.41,5.08,7.1,8.13,10.14,3.54,3.53,7.78,6.44,13.21,4.29s8.14-6.25,8.37-12c.12-2.87,0-5.76,0-8.63a2.67,2.67,0,0,1,2.43-1.22c4.11,1.67,3.79,5.05,3.3,8.51-1.41,13.21-8.3,18.74-23.2,18.65l-9.37-6.1C663.28,1048.82,656.46,1045.53,661.4,1039.72Z" transform="translate(-315.47 -884.36)"/><path class="cls-195" d="M701.91,1011.63l3.82,11.58c-8.45,2.18-5.23,10.22-7.73,15.39-2.85-4.2-4.83-8.58-2.74-13.76C691.25,1017.29,695.58,1014,701.91,1011.63Z" transform="translate(-315.47 -884.36)"/><path class="cls-196" d="M695.26,1024.83l2.74,13.76-1.11,2.21c-1.36-2.64-.89-6.32-4.4-7.73-2.67-2.6-2.61-6.34-4-9.48-.23-2.56.76-3.8,3.46-3.18C692.63,1022.21,692.93,1024.27,695.26,1024.83Z" transform="translate(-315.47 -884.36)"/><path class="cls-197" d="M796.73,982.16,794,973.9c1.76-5.74-2.37-10.24-3.26-15.43,1.35-.48,2.49-1.18,2.76-2.75,3.38.22,5,3,7.14,5A108.57,108.57,0,0,1,796.73,982.16Z" transform="translate(-315.47 -884.36)"/><path class="cls-198" d="M661.4,1039.72c-1.49,5.07,2.13,9,2.92,13.63-5.58-5.66-8.86-12.73-12-19.84l-.53-1.67,4.12-3.18Z" transform="translate(-315.47 -884.36)"/><path class="cls-199" d="M692,1020.41a4,4,0,0,0-2.92,2.8l-.69.23-4.3-11.37c1.87.72,3.32,2.82,5.73,1.72Z" transform="translate(-315.47 -884.36)"/><path class="cls-200" d="M672,1021.7c1.12,3.39,3.33,6.49,2.5,12.6l-4.06-12.3C670.82,1021.3,671.33,1021.16,672,1021.7Z" transform="translate(-315.47 -884.36)"/><path class="cls-201" d="M688.36,1023.44l.7-.23,3.43,9.86-1.32.44Z" transform="translate(-315.47 -884.36)"/><path class="cls-202" d="M667.34,1017.4c-.89-2.9-2.91-5.53-2.21-9,2.49,2.49,2.48,5.82,3.62,8.67C668.44,1017.8,668,1017.88,667.34,1017.4Z" transform="translate(-315.47 -884.36)"/><path class="cls-203" d="M667.34,1017.4a9.69,9.69,0,0,0,1.41-.35c2.4.62,2.87,2.59,3.22,4.64q-.78.13-1.55.31C668,1021.37,667.75,1019.35,667.34,1017.4Z" transform="translate(-315.47 -884.36)"/></g></svg>